  0
SECTION
  2
HEADER
  9
$ACADVER
  1
AC1015
  9
$ACADMAINTVER
 70
     6
  9
$DWGCODEPAGE
  3
ANSI_1252
  9
$INSBASE
 10
0.0
 20
0.0
 30
0.0
  9
$EXTMIN
 10
-490.0
 20
-450.0
 30
0.0
  9
$EXTMAX
 10
10.0
 20
450.0
 30
0.0
  9
$LIMMIN
 10
0.0
 20
0.0
  9
$LIMMAX
 10
420.0
 20
297.0
  9
$ORTHOMODE
 70
     0
  9
$REGENMODE
 70
     1
  9
$FILLMODE
 70
     1
  9
$QTEXTMODE
 70
     0
  9
$MIRRTEXT
 70
     1
  9
$LTSCALE
 40
1.0
  9
$ATTMODE
 70
     1
  9
$TEXTSIZE
 40
3.5
  9
$TRACEWID
 40
1.0
  9
$TEXTSTYLE
  7
Standard
  9
$CLAYER
  8
0
  9
$CELTYPE
  6
ByLayer
  9
$CECOLOR
 62
   256
  9
$CELTSCALE
 40
1.0
  9
$DISPSILH
 70
     0
  9
$DIMSCALE
 40
1.0
  9
$DIMASZ
 40
3.302
  9
$DIMEXO
 40
0.0
  9
$DIMDLI
 40
3.75
  9
$DIMRND
 40
0.0
  9
$DIMDLE
 40
0.0
  9
$DIMEXE
 40
1.0
  9
$DIMTP
 40
0.0
  9
$DIMTM
 40
0.0
  9
$DIMTXT
 40
3.5
  9
$DIMCEN
 40
2.5
  9
$DIMTSZ
 40
0.0
  9
$DIMTOL
 70
     0
  9
$DIMLIM
 70
     0
  9
$DIMTIH
 70
     1
  9
$DIMTOH
 70
     1
  9
$DIMSE1
 70
     0
  9
$DIMSE2
 70
     0
  9
$DIMTAD
 70
     1
  9
$DIMZIN
 70
     1
  9
$DIMBLK
  1

  9
$DIMASO
 70
     1
  9
$DIMSHO
 70
     1
  9
$DIMPOST
  1

  9
$DIMAPOST
  1

  9
$DIMALT
 70
     0
  9
$DIMALTD
 70
     3
  9
$DIMALTF
 40
0.0393700787
  9
$DIMLFAC
 40
1.0
  9
$DIMTOFL
 70
     1
  9
$DIMTVP
 40
0.0
  9
$DIMTIX
 70
     0
  9
$DIMSOXD
 70
     0
  9
$DIMSAH
 70
     0
  9
$DIMBLK1
  1

  9
$DIMBLK2
  1

  9
$DIMSTYLE
  2
ISO-25
  9
$DIMCLRD
 70
     0
  9
$DIMCLRE
 70
     0
  9
$DIMCLRT
 70
     0
  9
$DIMTFAC
 40
1.0
  9
$DIMGAP
 40
1.524
  9
$DIMJUST
 70
     0
  9
$DIMSD1
 70
     0
  9
$DIMSD2
 70
     0
  9
$DIMTOLJ
 70
     0
  9
$DIMTZIN
 70
     1
  9
$DIMALTZ
 70
     0
  9
$DIMALTTZ
 70
     0
  9
$DIMUPT
 70
     0
  9
$DIMDEC
 70
     2
  9
$DIMTDEC
 70
     2
  9
$DIMALTU
 70
     2
  9
$DIMALTTD
 70
     3
  9
$DIMTXSTY
  7
Standard
  9
$DIMAUNIT
 70
     0
  9
$DIMADEC
 70
     2
  9
$DIMALTRND
 40
0.0
  9
$DIMAZIN
 70
     0
  9
$DIMDSEP
 70
    44
  9
$DIMATFIT
 70
     3
  9
$DIMFRAC
 70
     0
  9
$DIMLDRBLK
  1

  9
$DIMLUNIT
 70
     2
  9
$DIMLWD
 70
    -2
  9
$DIMLWE
 70
    -2
  9
$DIMTMOVE
 70
     0
  9
$LUNITS
 70
     2
  9
$LUPREC
 70
     2
  9
$SKETCHINC
 40
1.0
  9
$FILLETRAD
 40
0.0
  9
$AUNITS
 70
     0
  9
$AUPREC
 70
     2
  9
$MENU
  1
.
  9
$ELEVATION
 40
0.0
  9
$PELEVATION
 40
0.0
  9
$THICKNESS
 40
0.0
  9
$LIMCHECK
 70
     0
  9
$CHAMFERA
 40
0.0
  9
$CHAMFERB
 40
0.0
  9
$CHAMFERC
 40
0.0
  9
$CHAMFERD
 40
0.0
  9
$SKPOLY
 70
     0
  9
$TDCREATE
 40
2461139.3952775
  9
$TDUCREATE
 40
2461139.311944167
  9
$TDUPDATE
 40
2461139.395307639
  9
$TDUUPDATE
 40
2461139.311974306
  9
$TDINDWG
 40
0.0000000116
  9
$TDUSRTIMER
 40
0.0000000116
  9
$USRTIMER
 70
     1
  9
$ANGBASE
 50
0.0
  9
$ANGDIR
 70
     0
  9
$PDMODE
 70
     0
  9
$PDSIZE
 40
-1.0
  9
$PLINEWID
 40
0.0
  9
$SPLFRAME
 70
     0
  9
$SPLINETYPE
 70
     6
  9
$SPLINESEGS
 70
     8
  9
$HANDSEED
  5
7C7
  9
$SURFTAB1
 70
     6
  9
$SURFTAB2
 70
     6
  9
$SURFTYPE
 70
     6
  9
$SURFU
 70
     6
  9
$SURFV
 70
     6
  9
$UCSBASE
  2

  9
$UCSNAME
  2

  9
$UCSORG
 10
0.0
 20
0.0
 30
0.0
  9
$UCSXDIR
 10
1.0
 20
0.0
 30
0.0
  9
$UCSYDIR
 10
0.0
 20
1.0
 30
0.0
  9
$UCSORTHOREF
  2

  9
$UCSORTHOVIEW
 70
     0
  9
$UCSORGTOP
 10
0.0
 20
0.0
 30
0.0
  9
$UCSORGBOTTOM
 10
0.0
 20
0.0
 30
0.0
  9
$UCSORGLEFT
 10
0.0
 20
0.0
 30
0.0
  9
$UCSORGRIGHT
 10
0.0
 20
0.0
 30
0.0
  9
$UCSORGFRONT
 10
0.0
 20
0.0
 30
0.0
  9
$UCSORGBACK
 10
0.0
 20
0.0
 30
0.0
  9
$PUCSBASE
  2

  9
$PUCSNAME
  2

  9
$PUCSORG
 10
0.0
 20
0.0
 30
0.0
  9
$PUCSXDIR
 10
1.0
 20
0.0
 30
0.0
  9
$PUCSYDIR
 10
0.0
 20
1.0
 30
0.0
  9
$PUCSORTHOREF
  2

  9
$PUCSORTHOVIEW
 70
     0
  9
$PUCSORGTOP
 10
0.0
 20
0.0
 30
0.0
  9
$PUCSORGBOTTOM
 10
0.0
 20
0.0
 30
0.0
  9
$PUCSORGLEFT
 10
0.0
 20
0.0
 30
0.0
  9
$PUCSORGRIGHT
 10
0.0
 20
0.0
 30
0.0
  9
$PUCSORGFRONT
 10
0.0
 20
0.0
 30
0.0
  9
$PUCSORGBACK
 10
0.0
 20
0.0
 30
0.0
  9
$USERI1
 70
     0
  9
$USERI2
 70
     0
  9
$USERI3
 70
     0
  9
$USERI4
 70
     0
  9
$USERI5
 70
     0
  9
$USERR1
 40
0.0
  9
$USERR2
 40
0.0
  9
$USERR3
 40
0.0
  9
$USERR4
 40
0.0
  9
$USERR5
 40
0.0
  9
$WORLDVIEW
 70
     1
  9
$SHADEDGE
 70
     3
  9
$SHADEDIF
 70
    70
  9
$TILEMODE
 70
     1
  9
$MAXACTVP
 70
    64
  9
$PINSBASE
 10
0.0
 20
0.0
 30
0.0
  9
$PLIMCHECK
 70
     0
  9
$PEXTMIN
 10
1.0000000000E+20
 20
1.0000000000E+20
 30
1.0000000000E+20
  9
$PEXTMAX
 10
-1.0000000000E+20
 20
-1.0000000000E+20
 30
-1.0000000000E+20
  9
$PLIMMIN
 10
0.0
 20
0.0
  9
$PLIMMAX
 10
420.0
 20
297.0
  9
$UNITMODE
 70
     0
  9
$VISRETAIN
 70
     1
  9
$PLINEGEN
 70
     0
  9
$PSLTSCALE
 70
     1
  9
$TREEDEPTH
 70
  3020
  9
$CMLSTYLE
  2
Standard
  9
$CMLJUST
 70
     0
  9
$CMLSCALE
 40
20.0
  9
$PROXYGRAPHICS
 70
     1
  9
$MEASUREMENT
 70
     1
  9
$CELWEIGHT
370
    -1
  9
$ENDCAPS
280
     0
  9
$JOINSTYLE
280
     0
  9
$LWDISPLAY
290
     1
  9
$INSUNITS
 70
     4
  9
$HYPERLINKBASE
  1

  9
$STYLESHEET
  1

  9
$XEDIT
290
     1
  9
$CEPSNTYPE
380
     0
  9
$PSTYLEMODE
290
     1
  9
$FINGERPRINTGUID
  2
{20189d12-aef3-4aa8-b01d-cd64cbc9318c}
  9
$VERSIONGUID
  2
{FAEB1C32-E019-11D5-929B-00C0DF256EC4}
  9
$EXTNAMES
290
     1
  9
$PSVPSCALE
 40
0.0
  9
$OLESTARTUP
290
     0
  0
ENDSEC
  0
SECTION
  2
CLASSES
  0
CLASS
  1
ACDBDICTIONARYWDFLT
  2
AcDbDictionaryWithDefault
  3
ObjectDBX Classes
 90
        0
280
     0
281
     0
  0
CLASS
  1
VISUALSTYLE
  2
AcDbVisualStyle
  3
ObjectDBX Classes
 90
     4095
280
     0
281
     0
  0
CLASS
  1
MATERIAL
  2
AcDbMaterial
  3
ObjectDBX Classes
 90
     1153
280
     0
281
     0
  0
CLASS
  1
SCALE
  2
AcDbScale
  3
ObjectDBX Classes
 90
     1153
280
     0
281
     0
  0
CLASS
  1
TABLESTYLE
  2
AcDbTableStyle
  3
ObjectDBX Classes
 90
     4095
280
     0
281
     0
  0
CLASS
  1
MLEADERSTYLE
  2
AcDbMLeaderStyle
  3
ACDB_MLEADERSTYLE_CLASS
 90
     4095
280
     0
281
     0
  0
CLASS
  1
SUN
  2
AcDbSun
  3
SCENEOE
 90
     1153
280
     0
281
     0
  0
CLASS
  1
ACDBPLACEHOLDER
  2
AcDbPlaceHolder
  3
ObjectDBX Classes
 90
        0
280
     0
281
     0
  0
CLASS
  1
LAYOUT
  2
AcDbLayout
  3
ObjectDBX Classes
 90
        0
280
     0
281
     0
  0
ENDSEC
  0
SECTION
  2
TABLES
  0
TABLE
  2
VPORT
  5
8
330
0
100
AcDbSymbolTable
 70
     1
  0
VPORT
  5
29
330
8
100
AcDbSymbolTableRecord
100
AcDbViewportTableRecord
  2
*Active
 70
     0
 10
0.0
 20
0.0
 11
1.0
 21
1.0
 12
-240.0
 22
0.0
 13
0.0
 23
0.0
 14
10.0
 24
10.0
 15
10.0
 25
10.0
 16
0.0
 26
0.0
 36
1.0
 17
0.0
 27
0.0
 37
0.0
 40
918.0
 41
0.5555555556
 42
50.0
 43
0.0
 44
0.0
 50
0.0
 51
0.0
 71
     0
 72
   100
 73
     1
 74
     3
 75
     0
 76
     0
 77
     0
 78
     0
281
     0
 65
     1
110
0.0
120
0.0
130
0.0
111
1.0
121
0.0
131
0.0
112
0.0
122
1.0
132
0.0
 79
     0
146
0.0
  0
ENDTAB
  0
TABLE
  2
LTYPE
  5
5
330
0
100
AcDbSymbolTable
 70
     6
  0
LTYPE
  5
14
330
5
100
AcDbSymbolTableRecord
100
AcDbLinetypeTableRecord
  2
ByBlock
 70
     0
  3

 72
    65
 73
     0
 40
0.0
  0
LTYPE
  5
15
330
5
100
AcDbSymbolTableRecord
100
AcDbLinetypeTableRecord
  2
ByLayer
 70
     0
  3

 72
    65
 73
     0
 40
0.0
  0
LTYPE
  5
16
330
5
100
AcDbSymbolTableRecord
100
AcDbLinetypeTableRecord
  2
Continuous
 70
     0
  3
Solid line
 72
    65
 73
     0
 40
0.0
  0
LTYPE
  5
5E
330
5
100
AcDbSymbolTableRecord
100
AcDbLinetypeTableRecord
  2
HIDDEN
 70
     0
  3
Hidden __ __ __ __ __ __ __ __ __ __ __ __ __ __
 72
    65
 73
     2
 40
1.905
 49
1.27
 74
     0
 49
-0.635
 74
     0
  0
LTYPE
  5
5F
330
5
100
AcDbSymbolTableRecord
100
AcDbLinetypeTableRecord
  2
PHANTOM
 70
     0
  3
Phantom ______  __  __  ______  __  __  ______
 72
    65
 73
     6
 40
12.7
 49
6.35
 74
     0
 49
-1.27
 74
     0
 49
1.27
 74
     0
 49
-1.27
 74
     0
 49
1.27
 74
     0
 49
-1.27
 74
     0
  0
LTYPE
  5
60
330
5
100
AcDbSymbolTableRecord
100
AcDbLinetypeTableRecord
  2
CENTER
 70
     0
  3
Center ____ _ ____ _ ____ _ ____ _ ____ _ ____
 72
    65
 73
     4
 40
10.16
 49
6.35
 74
     0
 49
-1.27
 74
     0
 49
1.27
 74
     0
 49
-1.27
 74
     0
  0
LTYPE
  5
61
330
5
100
AcDbSymbolTableRecord
100
AcDbLinetypeTableRecord
  2
CENTERX2
 70
     0
  3
Center (2x) ________  __  ________  __  _____
 72
    65
 73
     4
 40
20.32
 49
12.7
 74
     0
 49
-2.54
 74
     0
 49
2.54
 74
     0
 49
-2.54
 74
     0
  0
LTYPE
  5
62
330
5
100
AcDbSymbolTableRecord
100
AcDbLinetypeTableRecord
  2
DOT2
 70
     0
  3
Dot (.5x) ........................................
 72
    65
 73
     2
 40
0.635
 49
0.0
 74
     0
 49
-0.635
 74
     0
  0
ENDTAB
  0
TABLE
  2
LAYER
  5
2
330
0
100
AcDbSymbolTable
 70
     1
  0
LAYER
  5
10
330
2
100
AcDbSymbolTableRecord
100
AcDbLayerTableRecord
  2
0
 70
     0
 62
     7
  6
Continuous
370
    -3
390
F
  0
ENDTAB
  0
TABLE
  2
STYLE
  5
3
330
0
100
AcDbSymbolTable
 70
     2
  0
STYLE
  5
11
330
3
100
AcDbSymbolTableRecord
100
AcDbTextStyleTableRecord
  2
Standard
 70
     0
 40
0.0
 41
1.0
 50
0.0
 71
     0
 42
3.5
  3
txt
  4

  0
STYLE
  5
7C3
330
3
100
AcDbSymbolTableRecord
100
AcDbTextStyleTableRecord
  2
SLDTEXTSTYLE0
 70
     0
 40
0.0
 41
0.7
 50
0.0
 71
     0
 42
3.5
  3
TXT
  4

  0
ENDTAB
  0
TABLE
  2
VIEW
  5
6
330
0
100
AcDbSymbolTable
 70
     0
  0
ENDTAB
  0
TABLE
  2
UCS
  5
7
330
0
100
AcDbSymbolTable
 70
     0
  0
ENDTAB
  0
TABLE
  2
APPID
  5
9
330
0
100
AcDbSymbolTable
 70
     1
  0
APPID
  5
12
330
9
100
AcDbSymbolTableRecord
100
AcDbRegAppTableRecord
  2
ACAD
 70
     0
  0
ENDTAB
  0
TABLE
  2
DIMSTYLE
  5
A
330
0
100
AcDbSymbolTable
 70
     1
100
AcDbDimStyleTable
  0
DIMSTYLE
105
27
330
A
100
AcDbSymbolTableRecord
100
AcDbDimStyleTableRecord
  2
ISO-25
 70
     0
 41
2.5
 42
0.625
 43
3.75
 44
1.25
 73
     0
 74
     0
 77
     1
 78
     8
140
2.5
141
2.5
143
0.0393700787
147
0.625
171
     3
172
     1
178
     0
271
     2
272
     2
274
     3
278
    44
283
     0
284
     8
340
11
  0
ENDTAB
  0
TABLE
  2
BLOCK_RECORD
  5
1
330
0
100
AcDbSymbolTable
 70
     1
  0
BLOCK_RECORD
  5
1F
330
1
100
AcDbSymbolTableRecord
100
AcDbBlockTableRecord
  2
*Model_Space
340
22
  0
BLOCK_RECORD
  5
1B
330
1
100
AcDbSymbolTableRecord
100
AcDbBlockTableRecord
  2
*Paper_Space
340
1E
  0
BLOCK_RECORD
  5
23
330
1
100
AcDbSymbolTableRecord
100
AcDbBlockTableRecord
  2
*Paper_Space0
340
26
  0
ENDTAB
  0
ENDSEC
  0
SECTION
  2
BLOCKS
  0
BLOCK
  5
20
330
1F
100
AcDbEntity
  8
0
100
AcDbBlockBegin
  2
*Model_Space
 70
     0
 10
0.0
 20
0.0
 30
0.0
  3
*Model_Space
  1

  0
ENDBLK
  5
21
330
1F
100
AcDbEntity
  8
0
100
AcDbBlockEnd
  0
BLOCK
  5
1C
330
1B
100
AcDbEntity
 67
     1
  8
0
100
AcDbBlockBegin
  2
*Paper_Space
 70
     0
 10
0.0
 20
0.0
 30
0.0
  3
*Paper_Space
  1

  0
ENDBLK
  5
1D
330
1B
100
AcDbEntity
 67
     1
  8
0
100
AcDbBlockEnd
  0
BLOCK
  5
24
330
23
100
AcDbEntity
  8
0
100
AcDbBlockBegin
  2
*Paper_Space0
 70
     0
 10
0.0
 20
0.0
 30
0.0
  3
*Paper_Space0
  1

  0
ENDBLK
  5
25
330
23
100
AcDbEntity
  8
0
100
AcDbBlockEnd
  0
ENDSEC
  0
SECTION
  2
ENTITIES
  0
LINE
  5
63
330
1F
100
AcDbEntity
  8
0
  6
Continuous
 62
     7
100
AcDbLine
 10
-480.0
 20
-450.0
 30
0.0
 11
-480.0
 21
450.0
 31
0.0
  0
LINE
  5
64
330
1F
100
AcDbEntity
  8
0
  6
Continuous
 62
     7
100
AcDbLine
 10
0.0
 20
-450.0
 30
0.0
 11
0.0
 21
450.0
 31
0.0
  0
CIRCLE
  5
4D4
330
1F
100
AcDbEntity
  8
0
  6
Continuous
 62
     7
370
    25
100
AcDbCircle
 10
-480.0
 20
445.0
 30
0.0
 40
2.499999999999943
  0
CIRCLE
  5
4D5
330
1F
100
AcDbEntity
  8
0
  6
Continuous
 62
     7
370
    25
100
AcDbCircle
 10
-480.0
 20
433.0
 30
0.0
 40
2.499999999999943
  0
CIRCLE
  5
4D6
330
1F
100
AcDbEntity
  8
0
  6
Continuous
 62
     7
370
    25
100
AcDbCircle
 10
-480.0
 20
421.0
 30
0.0
 40
2.499999999999943
  0
CIRCLE
  5
4D7
330
1F
100
AcDbEntity
  8
0
  6
Continuous
 62
     7
370
    25
100
AcDbCircle
 10
-480.0
 20
409.0
 30
0.0
 40
2.499999999999943
  0
CIRCLE
  5
4D8
330
1F
100
AcDbEntity
  8
0
  6
Continuous
 62
     7
370
    25
100
AcDbCircle
 10
-480.0
 20
397.0
 30
0.0
 40
2.5
  0
CIRCLE
  5
4D9
330
1F
100
AcDbEntity
  8
0
  6
Continuous
 62
     7
370
    25
100
AcDbCircle
 10
-480.0
 20
385.0
 30
0.0
 40
2.5
  0
CIRCLE
  5
4DA
330
1F
100
AcDbEntity
  8
0
  6
Continuous
 62
     7
370
    25
100
AcDbCircle
 10
-480.0
 20
373.0
 30
0.0
 40
2.5
  0
CIRCLE
  5
4DB
330
1F
100
AcDbEntity
  8
0
  6
Continuous
 62
     7
370
    25
100
AcDbCircle
 10
-480.0
 20
361.0
 30
0.0
 40
2.5
  0
CIRCLE
  5
4DC
330
1F
100
AcDbEntity
  8
0
  6
Continuous
 62
     7
370
    25
100
AcDbCircle
 10
-480.0
 20
349.0
 30
0.0
 40
2.5
  0
CIRCLE
  5
4DD
330
1F
100
AcDbEntity
  8
0
  6
Continuous
 62
     7
370
    25
100
AcDbCircle
 10
-480.0
 20
337.0
 30
0.0
 40
2.5
  0
CIRCLE
  5
4DE
330
1F
100
AcDbEntity
  8
0
  6
Continuous
 62
     7
370
    25
100
AcDbCircle
 10
-480.0
 20
325.0
 30
0.0
 40
2.5
  0
CIRCLE
  5
4DF
330
1F
100
AcDbEntity
  8
0
  6
Continuous
 62
     7
370
    25
100
AcDbCircle
 10
-480.0
 20
313.0
 30
0.0
 40
2.499999999999943
  0
CIRCLE
  5
4E0
330
1F
100
AcDbEntity
  8
0
  6
Continuous
 62
     7
370
    25
100
AcDbCircle
 10
-480.0
 20
301.0
 30
0.0
 40
2.499999999999943
  0
CIRCLE
  5
4E1
330
1F
100
AcDbEntity
  8
0
  6
Continuous
 62
     7
370
    25
100
AcDbCircle
 10
-480.0
 20
289.0
 30
0.0
 40
2.499999999999943
  0
CIRCLE
  5
4E2
330
1F
100
AcDbEntity
  8
0
  6
Continuous
 62
     7
370
    25
100
AcDbCircle
 10
-480.0
 20
277.0
 30
0.0
 40
2.499999999999943
  0
CIRCLE
  5
4E3
330
1F
100
AcDbEntity
  8
0
  6
Continuous
 62
     7
370
    25
100
AcDbCircle
 10
-480.0
 20
265.0
 30
0.0
 40
2.499999999999886
  0
CIRCLE
  5
4E6
330
1F
100
AcDbEntity
  8
0
  6
Continuous
 62
     7
370
    25
100
AcDbCircle
 10
-480.0
 20
217.0
 30
0.0
 40
2.500000000000085
  0
CIRCLE
  5
4E7
330
1F
100
AcDbEntity
  8
0
  6
Continuous
 62
     7
370
    25
100
AcDbCircle
 10
-480.0
 20
205.0
 30
0.0
 40
2.500000000000057
  0
CIRCLE
  5
4E8
330
1F
100
AcDbEntity
  8
0
  6
Continuous
 62
     7
370
    25
100
AcDbCircle
 10
-480.0
 20
193.0
 30
0.0
 40
2.5
  0
CIRCLE
  5
4E9
330
1F
100
AcDbEntity
  8
0
  6
Continuous
 62
     7
370
    25
100
AcDbCircle
 10
-480.0
 20
181.0
 30
0.0
 40
2.499999999999972
  0
CIRCLE
  5
4EA
330
1F
100
AcDbEntity
  8
0
  6
Continuous
 62
     7
370
    25
100
AcDbCircle
 10
-480.0
 20
169.0
 30
0.0
 40
2.499999999999972
  0
CIRCLE
  5
4EB
330
1F
100
AcDbEntity
  8
0
  6
Continuous
 62
     7
370
    25
100
AcDbCircle
 10
-480.0
 20
157.0
 30
0.0
 40
2.5
  0
CIRCLE
  5
4EC
330
1F
100
AcDbEntity
  8
0
  6
Continuous
 62
     7
370
    25
100
AcDbCircle
 10
-480.0
 20
145.0
 30
0.0
 40
2.500000000000057
  0
CIRCLE
  5
4ED
330
1F
100
AcDbEntity
  8
0
  6
Continuous
 62
     7
370
    25
100
AcDbCircle
 10
-480.0
 20
133.0
 30
0.0
 40
2.5
  0
CIRCLE
  5
4EE
330
1F
100
AcDbEntity
  8
0
  6
Continuous
 62
     7
370
    25
100
AcDbCircle
 10
-480.0
 20
121.0
 30
0.0
 40
2.499999999999972
  0
CIRCLE
  5
4EF
330
1F
100
AcDbEntity
  8
0
  6
Continuous
 62
     7
370
    25
100
AcDbCircle
 10
-480.0
 20
109.0
 30
0.0
 40
2.500000000000071
  0
CIRCLE
  5
4F0
330
1F
100
AcDbEntity
  8
0
  6
Continuous
 62
     7
370
    25
100
AcDbCircle
 10
-480.0
 20
97.0
 30
0.0
 40
2.500000000000014
  0
CIRCLE
  5
4F4
330
1F
100
AcDbEntity
  8
0
  6
Continuous
 62
     7
370
    25
100
AcDbCircle
 10
-480.0
 20
37.0
 30
0.0
 40
2.500000000000021
  0
CIRCLE
  5
4F5
330
1F
100
AcDbEntity
  8
0
  6
Continuous
 62
     7
370
    25
100
AcDbCircle
 10
-480.0
 20
25.0
 30
0.0
 40
2.500000000000032
  0
CIRCLE
  5
4F6
330
1F
100
AcDbEntity
  8
0
  6
Continuous
 62
     7
370
    25
100
AcDbCircle
 10
-480.0
 20
13.0
 30
0.0
 40
2.50000000000002
  0
CIRCLE
  5
4F7
330
1F
100
AcDbEntity
  8
0
  6
Continuous
 62
     7
370
    25
100
AcDbCircle
 10
-480.0
 20
1.0
 30
0.0
 40
2.50000000000002
  0
CIRCLE
  5
4F8
330
1F
100
AcDbEntity
  8
0
  6
Continuous
 62
     7
370
    25
100
AcDbCircle
 10
-480.0
 20
-11.0
 30
0.0
 40
2.50000000000002
  0
CIRCLE
  5
4F9
330
1F
100
AcDbEntity
  8
0
  6
Continuous
 62
     7
370
    25
100
AcDbCircle
 10
-480.0
 20
-23.0
 30
0.0
 40
2.500000000000025
  0
CIRCLE
  5
4FA
330
1F
100
AcDbEntity
  8
0
  6
Continuous
 62
     7
370
    25
100
AcDbCircle
 10
-480.0
 20
-35.0
 30
0.0
 40
2.500000000000021
  0
CIRCLE
  5
4FB
330
1F
100
AcDbEntity
  8
0
  6
Continuous
 62
     7
370
    25
100
AcDbCircle
 10
-480.0
 20
-47.0
 30
0.0
 40
2.500000000000014
  0
CIRCLE
  5
4FC
330
1F
100
AcDbEntity
  8
0
  6
Continuous
 62
     7
370
    25
100
AcDbCircle
 10
-480.0
 20
-59.0
 30
0.0
 40
2.500000000000021
  0
CIRCLE
  5
4FD
330
1F
100
AcDbEntity
  8
0
  6
Continuous
 62
     7
370
    25
100
AcDbCircle
 10
-480.0
 20
-71.0
 30
0.0
 40
2.5
  0
CIRCLE
  5
4FE
330
1F
100
AcDbEntity
  8
0
  6
Continuous
 62
     7
370
    25
100
AcDbCircle
 10
-480.0
 20
-83.0
 30
0.0
 40
2.500000000000071
  0
CIRCLE
  5
4FF
330
1F
100
AcDbEntity
  8
0
  6
Continuous
 62
     7
370
    25
100
AcDbCircle
 10
-480.0
 20
-95.0
 30
0.0
 40
2.499999999999957
  0
CIRCLE
  5
500
330
1F
100
AcDbEntity
  8
0
  6
Continuous
 62
     7
370
    25
100
AcDbCircle
 10
-480.0
 20
-107.0
 30
0.0
 40
2.500000000000057
  0
CIRCLE
  5
502
330
1F
100
AcDbEntity
  8
0
  6
Continuous
 62
     7
370
    25
100
AcDbCircle
 10
-480.0
 20
-155.0
 30
0.0
 40
2.5
  0
CIRCLE
  5
503
330
1F
100
AcDbEntity
  8
0
  6
Continuous
 62
     7
370
    25
100
AcDbCircle
 10
-480.0
 20
-167.0
 30
0.0
 40
2.500000000000057
  0
CIRCLE
  5
504
330
1F
100
AcDbEntity
  8
0
  6
Continuous
 62
     7
370
    25
100
AcDbCircle
 10
-480.0
 20
-179.0
 30
0.0
 40
2.5
  0
CIRCLE
  5
505
330
1F
100
AcDbEntity
  8
0
  6
Continuous
 62
     7
370
    25
100
AcDbCircle
 10
-480.0
 20
-191.0
 30
0.0
 40
2.5
  0
CIRCLE
  5
506
330
1F
100
AcDbEntity
  8
0
  6
Continuous
 62
     7
370
    25
100
AcDbCircle
 10
-480.0
 20
-203.0
 30
0.0
 40
2.499999999999972
  0
CIRCLE
  5
507
330
1F
100
AcDbEntity
  8
0
  6
Continuous
 62
     7
370
    25
100
AcDbCircle
 10
-480.0
 20
-215.0
 30
0.0
 40
2.5
  0
CIRCLE
  5
508
330
1F
100
AcDbEntity
  8
0
  6
Continuous
 62
     7
370
    25
100
AcDbCircle
 10
-480.0
 20
-227.0
 30
0.0
 40
2.500000000000085
  0
CIRCLE
  5
509
330
1F
100
AcDbEntity
  8
0
  6
Continuous
 62
     7
370
    25
100
AcDbCircle
 10
-480.0
 20
-239.0
 30
0.0
 40
2.500000000000085
  0
CIRCLE
  5
50A
330
1F
100
AcDbEntity
  8
0
  6
Continuous
 62
     7
370
    25
100
AcDbCircle
 10
-480.0
 20
-251.0
 30
0.0
 40
2.5
  0
CIRCLE
  5
510
330
1F
100
AcDbEntity
  8
0
  6
Continuous
 62
     7
370
    25
100
AcDbCircle
 10
-480.0
 20
-311.0
 30
0.0
 40
2.499999999999943
  0
CIRCLE
  5
511
330
1F
100
AcDbEntity
  8
0
  6
Continuous
 62
     7
370
    25
100
AcDbCircle
 10
-480.0
 20
-323.0
 30
0.0
 40
2.499999999999943
  0
CIRCLE
  5
512
330
1F
100
AcDbEntity
  8
0
  6
Continuous
 62
     7
370
    25
100
AcDbCircle
 10
-480.0
 20
-335.0
 30
0.0
 40
2.499999999999943
  0
CIRCLE
  5
513
330
1F
100
AcDbEntity
  8
0
  6
Continuous
 62
     7
370
    25
100
AcDbCircle
 10
-480.0
 20
-347.0
 30
0.0
 40
2.499999999999943
  0
CIRCLE
  5
514
330
1F
100
AcDbEntity
  8
0
  6
Continuous
 62
     7
370
    25
100
AcDbCircle
 10
-480.0
 20
-359.0
 30
0.0
 40
2.499999999999886
  0
CIRCLE
  5
515
330
1F
100
AcDbEntity
  8
0
  6
Continuous
 62
     7
370
    25
100
AcDbCircle
 10
-480.0
 20
-371.0
 30
0.0
 40
2.499999999999943
  0
CIRCLE
  5
516
330
1F
100
AcDbEntity
  8
0
  6
Continuous
 62
     7
370
    25
100
AcDbCircle
 10
-480.0
 20
-383.0
 30
0.0
 40
2.499999999999943
  0
CIRCLE
  5
51A
330
1F
100
AcDbEntity
  8
0
  6
Continuous
 62
     7
370
    25
100
AcDbCircle
 10
-480.0
 20
-443.0
 30
0.0
 40
2.499999999999943
  0
CIRCLE
  5
53D
330
1F
100
AcDbEntity
  8
0
  6
Continuous
 62
     7
370
    25
100
AcDbCircle
 10
0.0
 20
445.0
 30
0.0
 40
2.5
  0
CIRCLE
  5
53E
330
1F
100
AcDbEntity
  8
0
  6
Continuous
 62
     7
370
    25
100
AcDbCircle
 10
0.0
 20
433.0
 30
0.0
 40
2.5
  0
CIRCLE
  5
53F
330
1F
100
AcDbEntity
  8
0
  6
Continuous
 62
     7
370
    25
100
AcDbCircle
 10
0.0
 20
421.0
 30
0.0
 40
2.5
  0
CIRCLE
  5
540
330
1F
100
AcDbEntity
  8
0
  6
Continuous
 62
     7
370
    25
100
AcDbCircle
 10
0.0
 20
409.0
 30
0.0
 40
2.5
  0
CIRCLE
  5
541
330
1F
100
AcDbEntity
  8
0
  6
Continuous
 62
     7
370
    25
100
AcDbCircle
 10
0.0
 20
397.0
 30
0.0
 40
2.499999999999943
  0
CIRCLE
  5
542
330
1F
100
AcDbEntity
  8
0
  6
Continuous
 62
     7
370
    25
100
AcDbCircle
 10
0.0
 20
385.0
 30
0.0
 40
2.5
  0
CIRCLE
  5
543
330
1F
100
AcDbEntity
  8
0
  6
Continuous
 62
     7
370
    25
100
AcDbCircle
 10
0.0
 20
373.0
 30
0.0
 40
2.5
  0
CIRCLE
  5
544
330
1F
100
AcDbEntity
  8
0
  6
Continuous
 62
     7
370
    25
100
AcDbCircle
 10
0.0
 20
361.0
 30
0.0
 40
2.5
  0
CIRCLE
  5
545
330
1F
100
AcDbEntity
  8
0
  6
Continuous
 62
     7
370
    25
100
AcDbCircle
 10
0.0
 20
349.0
 30
0.0
 40
2.5
  0
CIRCLE
  5
546
330
1F
100
AcDbEntity
  8
0
  6
Continuous
 62
     7
370
    25
100
AcDbCircle
 10
0.0
 20
337.0
 30
0.0
 40
2.5
  0
CIRCLE
  5
547
330
1F
100
AcDbEntity
  8
0
  6
Continuous
 62
     7
370
    25
100
AcDbCircle
 10
0.0
 20
325.0
 30
0.0
 40
2.5
  0
CIRCLE
  5
548
330
1F
100
AcDbEntity
  8
0
  6
Continuous
 62
     7
370
    25
100
AcDbCircle
 10
0.0
 20
313.0
 30
0.0
 40
2.5
  0
CIRCLE
  5
549
330
1F
100
AcDbEntity
  8
0
  6
Continuous
 62
     7
370
    25
100
AcDbCircle
 10
0.0
 20
301.0
 30
0.0
 40
2.5
  0
CIRCLE
  5
54A
330
1F
100
AcDbEntity
  8
0
  6
Continuous
 62
     7
370
    25
100
AcDbCircle
 10
0.0
 20
289.0
 30
0.0
 40
2.5
  0
CIRCLE
  5
54B
330
1F
100
AcDbEntity
  8
0
  6
Continuous
 62
     7
370
    25
100
AcDbCircle
 10
0.0
 20
277.0
 30
0.0
 40
2.499999999999943
  0
CIRCLE
  5
54C
330
1F
100
AcDbEntity
  8
0
  6
Continuous
 62
     7
370
    25
100
AcDbCircle
 10
0.0
 20
265.0
 30
0.0
 40
2.5
  0
CIRCLE
  5
54F
330
1F
100
AcDbEntity
  8
0
  6
Continuous
 62
     7
370
    25
100
AcDbCircle
 10
0.0
 20
217.0
 30
0.0
 40
2.500000000000057
  0
CIRCLE
  5
550
330
1F
100
AcDbEntity
  8
0
  6
Continuous
 62
     7
370
    25
100
AcDbCircle
 10
0.0
 20
205.0
 30
0.0
 40
2.499999999999972
  0
CIRCLE
  5
551
330
1F
100
AcDbEntity
  8
0
  6
Continuous
 62
     7
370
    25
100
AcDbCircle
 10
0.0
 20
193.0
 30
0.0
 40
2.500000000000028
  0
CIRCLE
  5
552
330
1F
100
AcDbEntity
  8
0
  6
Continuous
 62
     7
370
    25
100
AcDbCircle
 10
0.0
 20
181.0
 30
0.0
 40
2.500000000000057
  0
CIRCLE
  5
553
330
1F
100
AcDbEntity
  8
0
  6
Continuous
 62
     7
370
    25
100
AcDbCircle
 10
0.0
 20
169.0
 30
0.0
 40
2.5
  0
CIRCLE
  5
554
330
1F
100
AcDbEntity
  8
0
  6
Continuous
 62
     7
370
    25
100
AcDbCircle
 10
0.0
 20
157.0
 30
0.0
 40
2.500000000000028
  0
CIRCLE
  5
555
330
1F
100
AcDbEntity
  8
0
  6
Continuous
 62
     7
370
    25
100
AcDbCircle
 10
0.0
 20
145.0
 30
0.0
 40
2.499999999999972
  0
CIRCLE
  5
556
330
1F
100
AcDbEntity
  8
0
  6
Continuous
 62
     7
370
    25
100
AcDbCircle
 10
0.0
 20
133.0
 30
0.0
 40
2.5
  0
CIRCLE
  5
557
330
1F
100
AcDbEntity
  8
0
  6
Continuous
 62
     7
370
    25
100
AcDbCircle
 10
0.0
 20
121.0
 30
0.0
 40
2.499999999999972
  0
CIRCLE
  5
558
330
1F
100
AcDbEntity
  8
0
  6
Continuous
 62
     7
370
    25
100
AcDbCircle
 10
0.0
 20
109.0
 30
0.0
 40
2.500000000000071
  0
CIRCLE
  5
559
330
1F
100
AcDbEntity
  8
0
  6
Continuous
 62
     7
370
    25
100
AcDbCircle
 10
0.0
 20
97.0
 30
0.0
 40
2.499999999999986
  0
CIRCLE
  5
55D
330
1F
100
AcDbEntity
  8
0
  6
Continuous
 62
     7
370
    25
100
AcDbCircle
 10
0.0
 20
37.0
 30
0.0
 40
2.500000000000028
  0
CIRCLE
  5
55E
330
1F
100
AcDbEntity
  8
0
  6
Continuous
 62
     7
370
    25
100
AcDbCircle
 10
0.0
 20
25.0
 30
0.0
 40
2.500000000000021
  0
CIRCLE
  5
55F
330
1F
100
AcDbEntity
  8
0
  6
Continuous
 62
     7
370
    25
100
AcDbCircle
 10
0.0
 20
13.0
 30
0.0
 40
2.500000000000023
  0
CIRCLE
  5
560
330
1F
100
AcDbEntity
  8
0
  6
Continuous
 62
     7
370
    25
100
AcDbCircle
 10
0.0
 20
1.0
 30
0.0
 40
2.500000000000024
  0
CIRCLE
  5
561
330
1F
100
AcDbEntity
  8
0
  6
Continuous
 62
     7
370
    25
100
AcDbCircle
 10
0.0
 20
-11.0
 30
0.0
 40
2.500000000000023
  0
CIRCLE
  5
562
330
1F
100
AcDbEntity
  8
0
  6
Continuous
 62
     7
370
    25
100
AcDbCircle
 10
0.0
 20
-23.0
 30
0.0
 40
2.500000000000021
  0
CIRCLE
  5
563
330
1F
100
AcDbEntity
  8
0
  6
Continuous
 62
     7
370
    25
100
AcDbCircle
 10
0.0
 20
-35.0
 30
0.0
 40
2.500000000000028
  0
CIRCLE
  5
564
330
1F
100
AcDbEntity
  8
0
  6
Continuous
 62
     7
370
    25
100
AcDbCircle
 10
0.0
 20
-47.0
 30
0.0
 40
2.500000000000028
  0
CIRCLE
  5
565
330
1F
100
AcDbEntity
  8
0
  6
Continuous
 62
     7
370
    25
100
AcDbCircle
 10
0.0
 20
-59.0
 30
0.0
 40
2.500000000000028
  0
CIRCLE
  5
566
330
1F
100
AcDbEntity
  8
0
  6
Continuous
 62
     7
370
    25
100
AcDbCircle
 10
0.0
 20
-71.0
 30
0.0
 40
2.500000000000057
  0
CIRCLE
  5
567
330
1F
100
AcDbEntity
  8
0
  6
Continuous
 62
     7
370
    25
100
AcDbCircle
 10
0.0
 20
-83.0
 30
0.0
 40
2.500000000000071
  0
CIRCLE
  5
568
330
1F
100
AcDbEntity
  8
0
  6
Continuous
 62
     7
370
    25
100
AcDbCircle
 10
0.0
 20
-95.0
 30
0.0
 40
2.499999999999986
  0
CIRCLE
  5
569
330
1F
100
AcDbEntity
  8
0
  6
Continuous
 62
     7
370
    25
100
AcDbCircle
 10
0.0
 20
-107.0
 30
0.0
 40
2.500000000000085
  0
CIRCLE
  5
56B
330
1F
100
AcDbEntity
  8
0
  6
Continuous
 62
     7
370
    25
100
AcDbCircle
 10
0.0
 20
-155.0
 30
0.0
 40
2.500000000000028
  0
CIRCLE
  5
56C
330
1F
100
AcDbEntity
  8
0
  6
Continuous
 62
     7
370
    25
100
AcDbCircle
 10
0.0
 20
-167.0
 30
0.0
 40
2.499999999999972
  0
CIRCLE
  5
56D
330
1F
100
AcDbEntity
  8
0
  6
Continuous
 62
     7
370
    25
100
AcDbCircle
 10
0.0
 20
-179.0
 30
0.0
 40
2.500000000000028
  0
CIRCLE
  5
56E
330
1F
100
AcDbEntity
  8
0
  6
Continuous
 62
     7
370
    25
100
AcDbCircle
 10
0.0
 20
-191.0
 30
0.0
 40
2.500000000000057
  0
CIRCLE
  5
56F
330
1F
100
AcDbEntity
  8
0
  6
Continuous
 62
     7
370
    25
100
AcDbCircle
 10
0.0
 20
-203.0
 30
0.0
 40
2.500000000000057
  0
CIRCLE
  5
570
330
1F
100
AcDbEntity
  8
0
  6
Continuous
 62
     7
370
    25
100
AcDbCircle
 10
0.0
 20
-215.0
 30
0.0
 40
2.5
  0
CIRCLE
  5
571
330
1F
100
AcDbEntity
  8
0
  6
Continuous
 62
     7
370
    25
100
AcDbCircle
 10
0.0
 20
-227.0
 30
0.0
 40
2.5
  0
CIRCLE
  5
572
330
1F
100
AcDbEntity
  8
0
  6
Continuous
 62
     7
370
    25
100
AcDbCircle
 10
0.0
 20
-239.0
 30
0.0
 40
2.5
  0
CIRCLE
  5
573
330
1F
100
AcDbEntity
  8
0
  6
Continuous
 62
     7
370
    25
100
AcDbCircle
 10
0.0
 20
-251.0
 30
0.0
 40
2.500000000000028
  0
CIRCLE
  5
579
330
1F
100
AcDbEntity
  8
0
  6
Continuous
 62
     7
370
    25
100
AcDbCircle
 10
0.0
 20
-311.0
 30
0.0
 40
2.5
  0
CIRCLE
  5
57A
330
1F
100
AcDbEntity
  8
0
  6
Continuous
 62
     7
370
    25
100
AcDbCircle
 10
0.0
 20
-323.0
 30
0.0
 40
2.5
  0
CIRCLE
  5
57B
330
1F
100
AcDbEntity
  8
0
  6
Continuous
 62
     7
370
    25
100
AcDbCircle
 10
0.0
 20
-335.0
 30
0.0
 40
2.5
  0
CIRCLE
  5
57C
330
1F
100
AcDbEntity
  8
0
  6
Continuous
 62
     7
370
    25
100
AcDbCircle
 10
0.0
 20
-347.0
 30
0.0
 40
2.5
  0
CIRCLE
  5
57D
330
1F
100
AcDbEntity
  8
0
  6
Continuous
 62
     7
370
    25
100
AcDbCircle
 10
0.0
 20
-359.0
 30
0.0
 40
2.499999999999943
  0
CIRCLE
  5
57E
330
1F
100
AcDbEntity
  8
0
  6
Continuous
 62
     7
370
    25
100
AcDbCircle
 10
0.0
 20
-371.0
 30
0.0
 40
2.500000000000057
  0
CIRCLE
  5
57F
330
1F
100
AcDbEntity
  8
0
  6
Continuous
 62
     7
370
    25
100
AcDbCircle
 10
0.0
 20
-383.0
 30
0.0
 40
2.500000000000057
  0
CIRCLE
  5
583
330
1F
100
AcDbEntity
  8
0
  6
Continuous
 62
     7
370
    25
100
AcDbCircle
 10
0.0
 20
-443.0
 30
0.0
 40
2.5
  0
LINE
  5
5C4
330
1F
100
AcDbEntity
  8
0
  6
Continuous
 62
     7
370
    25
100
AcDbLine
 10
-446.6343156475
 20
-276.5
 30
0.0
 11
-342.2343156475
 21
-276.5
 31
0.0
  0
LINE
  5
5C5
330
1F
100
AcDbEntity
  8
0
  6
Continuous
 62
     7
370
    25
100
AcDbLine
 10
-342.2343156475
 20
-288.5
 30
0.0
 11
-446.6343156475
 21
-288.5
 31
0.0
  0
LINE
  5
5C6
330
1F
100
AcDbEntity
  8
0
  6
Continuous
 62
     7
370
    25
100
AcDbLine
 10
-342.2343156475
 20
-264.0
 30
0.0
 11
-446.6343156475
 21
-264.0
 31
0.0
  0
LINE
  5
5C7
330
1F
100
AcDbEntity
  8
0
  6
Continuous
 62
     7
370
    25
100
AcDbLine
 10
-342.2343156475
 20
-260.0
 30
0.0
 11
-446.6343156475
 21
-260.0
 31
0.0
  0
LINE
  5
5C8
330
1F
100
AcDbEntity
  8
0
  6
Continuous
 62
     7
370
    25
100
AcDbLine
 10
-359.6343156475
 20
-240.0
 30
0.0
 11
-359.6343156475
 21
-325.0
 31
0.0
  0
LINE
  5
5C9
330
1F
100
AcDbEntity
  8
0
  6
Continuous
 62
     7
370
    25
100
AcDbLine
 10
-342.2343156475
 20
-325.0
 30
0.0
 11
-342.2343156475
 21
-240.0
 31
0.0
  0
LINE
  5
5CA
330
1F
100
AcDbEntity
  8
0
  6
Continuous
 62
     7
370
    25
100
AcDbLine
 10
-342.2343156475
 20
-305.0
 30
0.0
 11
-446.6343156475
 21
-305.0
 31
0.0
  0
LINE
  5
5CB
330
1F
100
AcDbEntity
  8
0
  6
Continuous
 62
     7
370
    25
100
AcDbLine
 10
-342.2343156475
 20
-325.0
 30
0.0
 11
-446.6343156475
 21
-325.0
 31
0.0
  0
LINE
  5
5CC
330
1F
100
AcDbEntity
  8
0
  6
Continuous
 62
     7
370
    25
100
AcDbLine
 10
-342.2343156475
 20
-240.0
 30
0.0
 11
-446.6343156475
 21
-240.0
 31
0.0
  0
LINE
  5
5CD
330
1F
100
AcDbEntity
  8
0
  6
Continuous
 62
     7
370
    25
100
AcDbLine
 10
-377.0343156475
 20
-240.0
 30
0.0
 11
-377.0343156475
 21
-325.0
 31
0.0
  0
LINE
  5
5CE
330
1F
100
AcDbEntity
  8
0
  6
Continuous
 62
     7
370
    25
100
AcDbLine
 10
-394.4343156475
 20
-240.0
 30
0.0
 11
-394.4343156475
 21
-325.0
 31
0.0
  0
LINE
  5
5CF
330
1F
100
AcDbEntity
  8
0
  6
Continuous
 62
     7
370
    25
100
AcDbLine
 10
-411.8343156475
 20
-240.0
 30
0.0
 11
-411.8343156475
 21
-325.0
 31
0.0
  0
LINE
  5
5D0
330
1F
100
AcDbEntity
  8
0
  6
Continuous
 62
     7
370
    25
100
AcDbLine
 10
-260.2227758112
 20
-90.0
 30
0.0
 11
-260.2227758112
 21
-175.0
 31
0.0
  0
LINE
  5
5D1
330
1F
100
AcDbEntity
  8
0
  6
Continuous
 62
     7
370
    25
100
AcDbLine
 10
-242.8227758112
 20
-175.0
 30
0.0
 11
-242.8227758112
 21
-90.0
 31
0.0
  0
LINE
  5
5D2
330
1F
100
AcDbEntity
  8
0
  6
Continuous
 62
     7
370
    25
100
AcDbLine
 10
-295.0227758112
 20
-90.0
 30
0.0
 11
-295.0227758112
 21
-175.0
 31
0.0
  0
LINE
  5
5D3
330
1F
100
AcDbEntity
  8
0
  6
Continuous
 62
     7
370
    25
100
AcDbLine
 10
-277.6227758112
 20
-175.0
 30
0.0
 11
-277.6227758112
 21
-90.0
 31
0.0
  0
LINE
  5
5D4
330
1F
100
AcDbEntity
  8
0
  6
Continuous
 62
     7
370
    25
100
AcDbLine
 10
-347.2227758112
 20
-90.0
 30
0.0
 11
-347.2227758112
 21
-175.0
 31
0.0
  0
LINE
  5
5D5
330
1F
100
AcDbEntity
  8
0
  6
Continuous
 62
     7
370
    25
100
AcDbLine
 10
-329.8227758112
 20
-175.0
 30
0.0
 11
-329.8227758112
 21
-90.0
 31
0.0
  0
LINE
  5
5D6
330
1F
100
AcDbEntity
  8
0
  6
Continuous
 62
     7
370
    25
100
AcDbLine
 10
-434.2227758112
 20
-90.0
 30
0.0
 11
-434.2227758112
 21
-175.0
 31
0.0
  0
LINE
  5
5D7
330
1F
100
AcDbEntity
  8
0
  6
Continuous
 62
     7
370
    25
100
AcDbLine
 10
-416.8227758112
 20
-175.0
 30
0.0
 11
-416.8227758112
 21
-90.0
 31
0.0
  0
LINE
  5
5D8
330
1F
100
AcDbEntity
  8
0
  6
Continuous
 62
     7
370
    25
100
AcDbLine
 10
-312.4227758112
 20
-175.0
 30
0.0
 11
-312.4227758112
 21
-90.0
 31
0.0
  0
LINE
  5
5D9
330
1F
100
AcDbEntity
  8
0
  6
Continuous
 62
     7
370
    25
100
AcDbLine
 10
-451.6227758112
 20
-126.5
 30
0.0
 11
-242.8227758112
 21
-126.5
 31
0.0
  0
LINE
  5
5DA
330
1F
100
AcDbEntity
  8
0
  6
Continuous
 62
     7
370
    25
100
AcDbLine
 10
-242.8227758112
 20
-138.5
 30
0.0
 11
-451.6227758112
 21
-138.5
 31
0.0
  0
LINE
  5
5DB
330
1F
100
AcDbEntity
  8
0
  6
Continuous
 62
     7
370
    25
100
AcDbLine
 10
-242.8227758112
 20
-110.0
 30
0.0
 11
-451.6227758112
 21
-110.0
 31
0.0
  0
LINE
  5
5DC
330
1F
100
AcDbEntity
  8
0
  6
Continuous
 62
     7
370
    25
100
AcDbLine
 10
-242.8227758112
 20
-114.0
 30
0.0
 11
-451.6227758112
 21
-114.0
 31
0.0
  0
LINE
  5
5DD
330
1F
100
AcDbEntity
  8
0
  6
Continuous
 62
     7
370
    25
100
AcDbLine
 10
-364.6227758112
 20
-175.0
 30
0.0
 11
-364.6227758112
 21
-90.0
 31
0.0
  0
LINE
  5
5DE
330
1F
100
AcDbEntity
  8
0
  6
Continuous
 62
     7
370
    25
100
AcDbLine
 10
-382.0227758112
 20
-90.0
 30
0.0
 11
-382.0227758112
 21
-175.0
 31
0.0
  0
LINE
  5
5DF
330
1F
100
AcDbEntity
  8
0
  6
Continuous
 62
     7
370
    25
100
AcDbLine
 10
-242.8227758112
 20
-155.0
 30
0.0
 11
-451.6227758112
 21
-155.0
 31
0.0
  0
LINE
  5
5E0
330
1F
100
AcDbEntity
  8
0
  6
Continuous
 62
     7
370
    25
100
AcDbLine
 10
-242.8227758112
 20
-175.0
 30
0.0
 11
-451.6227758112
 21
-175.0
 31
0.0
  0
LINE
  5
5E1
330
1F
100
AcDbEntity
  8
0
  6
Continuous
 62
     7
370
    25
100
AcDbLine
 10
-242.8227758112
 20
-90.0
 30
0.0
 11
-451.6227758112
 21
-90.0
 31
0.0
  0
LINE
  5
5E2
330
1F
100
AcDbEntity
  8
0
  6
Continuous
 62
     7
370
    25
100
AcDbLine
 10
-399.4227758112
 20
-175.0
 30
0.0
 11
-399.4227758112
 21
-90.0
 31
0.0
  0
LINE
  5
5E3
330
1F
100
AcDbEntity
  8
0
  6
Continuous
 62
     7
370
    25
100
AcDbLine
 10
-35.1401605751
 20
25.0
 30
0.0
 11
-35.1401605751
 21
110.0
 31
0.0
  0
LINE
  5
5E4
330
1F
100
AcDbEntity
  8
0
  6
Continuous
 62
     7
370
    25
100
AcDbLine
 10
-52.5401605751
 20
110.0
 30
0.0
 11
-52.5401605751
 21
25.0
 31
0.0
  0
LINE
  5
5E5
330
1F
100
AcDbEntity
  8
0
  6
Continuous
 62
     7
370
    25
100
AcDbLine
 10
-429.2343156475
 20
-240.0
 30
0.0
 11
-429.2343156475
 21
-325.0
 31
0.0
  0
LINE
  5
5E6
330
1F
100
AcDbEntity
  8
0
  6
Continuous
 62
     7
370
    25
100
AcDbLine
 10
-446.6343156475
 20
-240.0
 30
0.0
 11
-446.6343156475
 21
-325.0
 31
0.0
  0
LINE
  5
5E7
330
1F
100
AcDbEntity
  8
0
  6
Continuous
 62
     7
370
    25
100
AcDbLine
 10
-451.6227758112
 20
-90.0
 30
0.0
 11
-451.6227758112
 21
-175.0
 31
0.0
  0
LINE
  5
5E8
330
1F
100
AcDbEntity
  8
0
  6
Continuous
 62
     7
370
    25
100
AcDbLine
 10
-69.9401605751
 20
110.0
 30
0.0
 11
-69.9401605751
 21
25.0
 31
0.0
  0
LINE
  5
5E9
330
1F
100
AcDbEntity
  8
0
  6
Continuous
 62
     7
370
    25
100
AcDbLine
 10
-226.5401605751
 20
25.0
 30
0.0
 11
-226.5401605751
 21
110.0
 31
0.0
  0
LINE
  5
5EA
330
1F
100
AcDbEntity
  8
0
  6
Continuous
 62
     7
370
    25
100
AcDbLine
 10
-243.9401605751
 20
110.0
 30
0.0
 11
-243.9401605751
 21
25.0
 31
0.0
  0
LINE
  5
5EB
330
1F
100
AcDbEntity
  8
0
  6
Continuous
 62
     7
370
    25
100
AcDbLine
 10
-122.1401605751
 20
25.0
 30
0.0
 11
-122.1401605751
 21
110.0
 31
0.0
  0
LINE
  5
5EC
330
1F
100
AcDbEntity
  8
0
  6
Continuous
 62
     7
370
    25
100
AcDbLine
 10
-139.5401605751
 20
110.0
 30
0.0
 11
-139.5401605751
 21
25.0
 31
0.0
  0
LINE
  5
5ED
330
1F
100
AcDbEntity
  8
0
  6
Continuous
 62
     7
370
    25
100
AcDbLine
 10
-435.4219742602
 20
25.0
 30
0.0
 11
-435.4219742602
 21
110.0
 31
0.0
  0
LINE
  5
5EE
330
1F
100
AcDbEntity
  8
0
  6
Continuous
 62
     7
370
    25
100
AcDbLine
 10
-452.8219742602
 20
110.0
 30
0.0
 11
-452.8219742602
 21
25.0
 31
0.0
  0
LINE
  5
5EF
330
1F
100
AcDbEntity
  8
0
  6
Continuous
 62
     7
370
    25
100
AcDbLine
 10
-87.3401605751
 20
25.0
 30
0.0
 11
-87.3401605751
 21
110.0
 31
0.0
  0
LINE
  5
5F0
330
1F
100
AcDbEntity
  8
0
  6
Continuous
 62
     7
370
    25
100
AcDbLine
 10
-104.7401605751
 20
110.0
 30
0.0
 11
-104.7401605751
 21
25.0
 31
0.0
  0
LINE
  5
5F1
330
1F
100
AcDbEntity
  8
0
  6
Continuous
 62
     7
370
    25
100
AcDbLine
 10
-452.8219742602
 20
73.5
 30
0.0
 11
-313.6219742602
 21
73.5
 31
0.0
  0
LINE
  5
5F2
330
1F
100
AcDbEntity
  8
0
  6
Continuous
 62
     7
370
    25
100
AcDbLine
 10
-313.6219742602
 20
61.5
 30
0.0
 11
-452.8219742602
 21
61.5
 31
0.0
  0
LINE
  5
5F3
330
1F
100
AcDbEntity
  8
0
  6
Continuous
 62
     7
370
    25
100
AcDbLine
 10
-313.6219742602
 20
90.0
 30
0.0
 11
-452.8219742602
 21
90.0
 31
0.0
  0
LINE
  5
5F4
330
1F
100
AcDbEntity
  8
0
  6
Continuous
 62
     7
370
    25
100
AcDbLine
 10
-313.6219742602
 20
86.0
 30
0.0
 11
-452.8219742602
 21
86.0
 31
0.0
  0
LINE
  5
5F5
330
1F
100
AcDbEntity
  8
0
  6
Continuous
 62
     7
370
    25
100
AcDbLine
 10
-383.2219742602
 20
110.0
 30
0.0
 11
-383.2219742602
 21
25.0
 31
0.0
  0
LINE
  5
5F6
330
1F
100
AcDbEntity
  8
0
  6
Continuous
 62
     7
370
    25
100
AcDbLine
 10
-365.8219742602
 20
25.0
 30
0.0
 11
-365.8219742602
 21
110.0
 31
0.0
  0
LINE
  5
5F7
330
1F
100
AcDbEntity
  8
0
  6
Continuous
 62
     7
370
    25
100
AcDbLine
 10
-313.6219742602
 20
45.0
 30
0.0
 11
-452.8219742602
 21
45.0
 31
0.0
  0
LINE
  5
5F8
330
1F
100
AcDbEntity
  8
0
  6
Continuous
 62
     7
370
    25
100
AcDbLine
 10
-313.6219742602
 20
25.0
 30
0.0
 11
-452.8219742602
 21
25.0
 31
0.0
  0
LINE
  5
5F9
330
1F
100
AcDbEntity
  8
0
  6
Continuous
 62
     7
370
    25
100
AcDbLine
 10
-313.6219742602
 20
110.0
 30
0.0
 11
-452.8219742602
 21
110.0
 31
0.0
  0
LINE
  5
5FA
330
1F
100
AcDbEntity
  8
0
  6
Continuous
 62
     7
370
    25
100
AcDbLine
 10
-418.0219742602
 20
25.0
 30
0.0
 11
-418.0219742602
 21
110.0
 31
0.0
  0
LINE
  5
5FB
330
1F
100
AcDbEntity
  8
0
  6
Continuous
 62
     7
370
    25
100
AcDbLine
 10
-400.6219742602
 20
25.0
 30
0.0
 11
-400.6219742602
 21
110.0
 31
0.0
  0
LINE
  5
5FC
330
1F
100
AcDbEntity
  8
0
  6
Continuous
 62
     7
370
    25
100
AcDbLine
 10
-348.4219742602
 20
25.0
 30
0.0
 11
-348.4219742602
 21
110.0
 31
0.0
  0
LINE
  5
5FD
330
1F
100
AcDbEntity
  8
0
  6
Continuous
 62
     7
370
    25
100
AcDbLine
 10
-209.1401605751
 20
110.0
 30
0.0
 11
-209.1401605751
 21
25.0
 31
0.0
  0
LINE
  5
5FE
330
1F
100
AcDbEntity
  8
0
  6
Continuous
 62
     7
370
    25
100
AcDbLine
 10
-191.7401605751
 20
25.0
 30
0.0
 11
-191.7401605751
 21
110.0
 31
0.0
  0
LINE
  5
5FF
330
1F
100
AcDbEntity
  8
0
  6
Continuous
 62
     7
370
    25
100
AcDbLine
 10
-243.9401605751
 20
73.5
 30
0.0
 11
-35.1401605751
 21
73.5
 31
0.0
  0
LINE
  5
600
330
1F
100
AcDbEntity
  8
0
  6
Continuous
 62
     7
370
    25
100
AcDbLine
 10
-35.1401605751
 20
61.5
 30
0.0
 11
-243.9401605751
 21
61.5
 31
0.0
  0
LINE
  5
601
330
1F
100
AcDbEntity
  8
0
  6
Continuous
 62
     7
370
    25
100
AcDbLine
 10
-35.1401605751
 20
90.0
 30
0.0
 11
-243.9401605751
 21
90.0
 31
0.0
  0
LINE
  5
602
330
1F
100
AcDbEntity
  8
0
  6
Continuous
 62
     7
370
    25
100
AcDbLine
 10
-35.1401605751
 20
86.0
 30
0.0
 11
-243.9401605751
 21
86.0
 31
0.0
  0
LINE
  5
603
330
1F
100
AcDbEntity
  8
0
  6
Continuous
 62
     7
370
    25
100
AcDbLine
 10
-174.3401605751
 20
110.0
 30
0.0
 11
-174.3401605751
 21
25.0
 31
0.0
  0
LINE
  5
604
330
1F
100
AcDbEntity
  8
0
  6
Continuous
 62
     7
370
    25
100
AcDbLine
 10
-156.9401605751
 20
25.0
 30
0.0
 11
-156.9401605751
 21
110.0
 31
0.0
  0
LINE
  5
605
330
1F
100
AcDbEntity
  8
0
  6
Continuous
 62
     7
370
    25
100
AcDbLine
 10
-35.1401605751
 20
45.0
 30
0.0
 11
-243.9401605751
 21
45.0
 31
0.0
  0
LINE
  5
606
330
1F
100
AcDbEntity
  8
0
  6
Continuous
 62
     7
370
    25
100
AcDbLine
 10
-35.1401605751
 20
25.0
 30
0.0
 11
-243.9401605751
 21
25.0
 31
0.0
  0
LINE
  5
607
330
1F
100
AcDbEntity
  8
0
  6
Continuous
 62
     7
370
    25
100
AcDbLine
 10
-35.1401605751
 20
110.0
 30
0.0
 11
-243.9401605751
 21
110.0
 31
0.0
  0
LINE
  5
608
330
1F
100
AcDbEntity
  8
0
  6
Continuous
 62
     7
370
    25
100
AcDbLine
 10
-331.0219742602
 20
25.0
 30
0.0
 11
-331.0219742602
 21
110.0
 31
0.0
  0
LINE
  5
609
330
1F
100
AcDbEntity
  8
0
  6
Continuous
 62
     7
370
    25
100
AcDbLine
 10
-313.6219742602
 20
25.0
 30
0.0
 11
-313.6219742602
 21
110.0
 31
0.0
  0
LINE
  5
60A
330
1F
100
AcDbEntity
  8
0
  6
Continuous
 62
     7
370
    25
100
AcDbLine
 10
-490.0
 20
-295.0
 30
0.0
 11
-446.6343156475
 21
-295.0
 31
0.0
  0
LINE
  5
60B
330
1F
100
AcDbEntity
  8
0
  6
Continuous
 62
     7
370
    25
100
AcDbLine
 10
-342.2343156475
 20
-295.0
 30
0.0
 11
10.0
 21
-295.0
 31
0.0
  0
LINE
  5
60C
330
1F
100
AcDbEntity
  8
0
  6
Continuous
 62
     7
370
    25
100
AcDbLine
 10
-490.0
 20
-300.0
 30
0.0
 11
-446.6343156475
 21
-300.0
 31
0.0
  0
LINE
  5
60D
330
1F
100
AcDbEntity
  8
0
  6
Continuous
 62
     7
370
    25
100
AcDbLine
 10
-342.2343156475
 20
-300.0
 30
0.0
 11
10.0
 21
-300.0
 31
0.0
  0
LINE
  5
60E
330
1F
100
AcDbEntity
  8
0
  6
Continuous
 62
     7
370
    25
100
AcDbLine
 10
-490.0
 20
-270.0
 30
0.0
 11
-446.6343156475
 21
-270.0
 31
0.0
  0
LINE
  5
60F
330
1F
100
AcDbEntity
  8
0
  6
Continuous
 62
     7
370
    25
100
AcDbLine
 10
-342.2343156475
 20
-270.0
 30
0.0
 11
10.0
 21
-270.0
 31
0.0
  0
LINE
  5
610
330
1F
100
AcDbEntity
  8
0
  6
Continuous
 62
     7
370
    25
100
AcDbLine
 10
-490.0
 20
-265.0
 30
0.0
 11
-446.6343156475
 21
-265.0
 31
0.0
  0
LINE
  5
611
330
1F
100
AcDbEntity
  8
0
  6
Continuous
 62
     7
370
    25
100
AcDbLine
 10
-342.2343156475
 20
-265.0
 30
0.0
 11
10.0
 21
-265.0
 31
0.0
  0
LINE
  5
612
330
1F
100
AcDbEntity
  8
0
  6
Continuous
 62
     7
370
    25
100
AcDbLine
 10
-307.0
 20
-285.5
 30
0.0
 11
-298.0
 21
-285.5
 31
0.0
  0
LINE
  5
613
330
1F
100
AcDbEntity
  8
0
  6
Continuous
 62
     7
370
    25
100
AcDbLine
 10
-298.0
 20
-279.5
 30
0.0
 11
-307.0
 21
-279.5
 31
0.0
  0
LINE
  5
614
330
1F
100
AcDbEntity
  8
0
  6
Continuous
 62
     7
370
    25
100
AcDbLine
 10
-332.0
 20
-285.5
 30
0.0
 11
-323.0
 21
-285.5
 31
0.0
  0
LINE
  5
615
330
1F
100
AcDbEntity
  8
0
  6
Continuous
 62
     7
370
    25
100
AcDbLine
 10
-323.0
 20
-279.5
 30
0.0
 11
-332.0
 21
-279.5
 31
0.0
  0
LINE
  5
616
330
1F
100
AcDbEntity
  8
0
  6
Continuous
 62
     7
370
    25
100
AcDbLine
 10
-457.0
 20
-285.5
 30
0.0
 11
-448.0
 21
-285.5
 31
0.0
  0
LINE
  5
617
330
1F
100
AcDbEntity
  8
0
  6
Continuous
 62
     7
370
    25
100
AcDbLine
 10
-448.0
 20
-279.5
 30
0.0
 11
-457.0
 21
-279.5
 31
0.0
  0
LINE
  5
618
330
1F
100
AcDbEntity
  8
0
  6
Continuous
 62
     7
370
    25
100
AcDbLine
 10
-482.0
 20
-285.5
 30
0.0
 11
-473.0
 21
-285.5
 31
0.0
  0
LINE
  5
619
330
1F
100
AcDbEntity
  8
0
  6
Continuous
 62
     7
370
    25
100
AcDbLine
 10
-473.0
 20
-279.5
 30
0.0
 11
-482.0
 21
-279.5
 31
0.0
  0
LINE
  5
61A
330
1F
100
AcDbEntity
  8
0
  6
Continuous
 62
     7
370
    25
100
AcDbLine
 10
2.0
 20
-279.5
 30
0.0
 11
-7.0
 21
-279.5
 31
0.0
  0
LINE
  5
61B
330
1F
100
AcDbEntity
  8
0
  6
Continuous
 62
     7
370
    25
100
AcDbLine
 10
-7.0
 20
-285.5
 30
0.0
 11
2.0
 21
-285.5
 31
0.0
  0
LINE
  5
61C
330
1F
100
AcDbEntity
  8
0
  6
Continuous
 62
     7
370
    25
100
AcDbLine
 10
-23.0
 20
-279.5
 30
0.0
 11
-32.0
 21
-279.5
 31
0.0
  0
LINE
  5
61D
330
1F
100
AcDbEntity
  8
0
  6
Continuous
 62
     7
370
    25
100
AcDbLine
 10
-32.0
 20
-285.5
 30
0.0
 11
-23.0
 21
-285.5
 31
0.0
  0
LINE
  5
61E
330
1F
100
AcDbEntity
  8
0
  6
Continuous
 62
     7
370
    25
100
AcDbLine
 10
-48.0
 20
-279.5
 30
0.0
 11
-57.0
 21
-279.5
 31
0.0
  0
LINE
  5
61F
330
1F
100
AcDbEntity
  8
0
  6
Continuous
 62
     7
370
    25
100
AcDbLine
 10
-57.0
 20
-285.5
 30
0.0
 11
-48.0
 21
-285.5
 31
0.0
  0
LINE
  5
620
330
1F
100
AcDbEntity
  8
0
  6
Continuous
 62
     7
370
    25
100
AcDbLine
 10
-73.0
 20
-279.5
 30
0.0
 11
-82.0
 21
-279.5
 31
0.0
  0
LINE
  5
621
330
1F
100
AcDbEntity
  8
0
  6
Continuous
 62
     7
370
    25
100
AcDbLine
 10
-82.0
 20
-285.5
 30
0.0
 11
-73.0
 21
-285.5
 31
0.0
  0
LINE
  5
622
330
1F
100
AcDbEntity
  8
0
  6
Continuous
 62
     7
370
    25
100
AcDbLine
 10
-98.0
 20
-279.5
 30
0.0
 11
-107.0
 21
-279.5
 31
0.0
  0
LINE
  5
623
330
1F
100
AcDbEntity
  8
0
  6
Continuous
 62
     7
370
    25
100
AcDbLine
 10
-107.0
 20
-285.5
 30
0.0
 11
-98.0
 21
-285.5
 31
0.0
  0
LINE
  5
624
330
1F
100
AcDbEntity
  8
0
  6
Continuous
 62
     7
370
    25
100
AcDbLine
 10
-123.0
 20
-279.5
 30
0.0
 11
-132.0
 21
-279.5
 31
0.0
  0
LINE
  5
625
330
1F
100
AcDbEntity
  8
0
  6
Continuous
 62
     7
370
    25
100
AcDbLine
 10
-132.0
 20
-285.5
 30
0.0
 11
-123.0
 21
-285.5
 31
0.0
  0
LINE
  5
626
330
1F
100
AcDbEntity
  8
0
  6
Continuous
 62
     7
370
    25
100
AcDbLine
 10
-148.0
 20
-279.5
 30
0.0
 11
-157.0
 21
-279.5
 31
0.0
  0
LINE
  5
627
330
1F
100
AcDbEntity
  8
0
  6
Continuous
 62
     7
370
    25
100
AcDbLine
 10
-157.0
 20
-285.5
 30
0.0
 11
-148.0
 21
-285.5
 31
0.0
  0
LINE
  5
628
330
1F
100
AcDbEntity
  8
0
  6
Continuous
 62
     7
370
    25
100
AcDbLine
 10
-173.0
 20
-279.5
 30
0.0
 11
-182.0
 21
-279.5
 31
0.0
  0
LINE
  5
629
330
1F
100
AcDbEntity
  8
0
  6
Continuous
 62
     7
370
    25
100
AcDbLine
 10
-182.0
 20
-285.5
 30
0.0
 11
-173.0
 21
-285.5
 31
0.0
  0
LINE
  5
62A
330
1F
100
AcDbEntity
  8
0
  6
Continuous
 62
     7
370
    25
100
AcDbLine
 10
-198.0
 20
-279.5
 30
0.0
 11
-207.0
 21
-279.5
 31
0.0
  0
LINE
  5
62B
330
1F
100
AcDbEntity
  8
0
  6
Continuous
 62
     7
370
    25
100
AcDbLine
 10
-207.0
 20
-285.5
 30
0.0
 11
-198.0
 21
-285.5
 31
0.0
  0
LINE
  5
62C
330
1F
100
AcDbEntity
  8
0
  6
Continuous
 62
     7
370
    25
100
AcDbLine
 10
-223.0
 20
-279.5
 30
0.0
 11
-232.0
 21
-279.5
 31
0.0
  0
LINE
  5
62D
330
1F
100
AcDbEntity
  8
0
  6
Continuous
 62
     7
370
    25
100
AcDbLine
 10
-232.0
 20
-285.5
 30
0.0
 11
-223.0
 21
-285.5
 31
0.0
  0
LINE
  5
62E
330
1F
100
AcDbEntity
  8
0
  6
Continuous
 62
     7
370
    25
100
AcDbLine
 10
-248.0
 20
-279.5
 30
0.0
 11
-257.0
 21
-279.5
 31
0.0
  0
LINE
  5
62F
330
1F
100
AcDbEntity
  8
0
  6
Continuous
 62
     7
370
    25
100
AcDbLine
 10
-257.0
 20
-285.5
 30
0.0
 11
-248.0
 21
-285.5
 31
0.0
  0
LINE
  5
630
330
1F
100
AcDbEntity
  8
0
  6
Continuous
 62
     7
370
    25
100
AcDbLine
 10
-273.0
 20
-279.5
 30
0.0
 11
-282.0
 21
-279.5
 31
0.0
  0
LINE
  5
631
330
1F
100
AcDbEntity
  8
0
  6
Continuous
 62
     7
370
    25
100
AcDbLine
 10
-282.0
 20
-285.5
 30
0.0
 11
-273.0
 21
-285.5
 31
0.0
  0
LINE
  5
632
330
1F
100
AcDbEntity
  8
0
  6
Continuous
 62
     7
370
    25
100
AcDbLine
 10
-490.0
 20
228.0153862759
 30
0.0
 11
10.0
 21
228.0153862759
 31
0.0
  0
LINE
  5
633
330
1F
100
AcDbEntity
  8
0
  6
Continuous
 62
     7
370
    25
100
AcDbLine
 10
-490.0
 20
230.2653862759
 30
0.0
 11
10.0
 21
230.2653862759
 31
0.0
  0
LINE
  5
634
330
1F
100
AcDbEntity
  8
0
  6
Continuous
 62
     7
370
    25
100
AcDbLine
 10
-490.0
 20
255.2653862759
 30
0.0
 11
10.0
 21
255.2653862759
 31
0.0
  0
LINE
  5
635
330
1F
100
AcDbEntity
  8
0
  6
Continuous
 62
     7
370
    25
100
AcDbLine
 10
-490.0
 20
257.5153862759
 30
0.0
 11
10.0
 21
257.5153862759
 31
0.0
  0
LINE
  5
636
330
1F
100
AcDbEntity
  8
0
  6
Continuous
 62
     7
370
    25
100
AcDbLine
 10
-490.0
 20
225.2653862759
 30
0.0
 11
10.0
 21
225.2653862759
 31
0.0
  0
LINE
  5
637
330
1F
100
AcDbEntity
  8
0
  6
Continuous
 62
     7
370
    25
100
AcDbLine
 10
-490.0
 20
260.2653862759
 30
0.0
 11
10.0
 21
260.2653862759
 31
0.0
  0
LINE
  5
638
330
1F
100
AcDbEntity
  8
0
  6
Continuous
 62
     7
370
    25
100
AcDbLine
 10
-490.0
 20
230.5153862759
 30
0.0
 11
10.0
 21
230.5153862759
 31
0.0
  0
LINE
  5
639
330
1F
100
AcDbEntity
  8
0
  6
Continuous
 62
     7
370
    25
100
AcDbLine
 10
-490.0
 20
255.0153862759
 30
0.0
 11
10.0
 21
255.0153862759
 31
0.0
  0
LINE
  5
63A
330
1F
100
AcDbEntity
  8
0
  6
Continuous
 62
     7
370
    25
100
AcDbLine
 10
-307.0
 20
239.7653862759
 30
0.0
 11
-298.0
 21
239.7653862759
 31
0.0
  0
LINE
  5
63B
330
1F
100
AcDbEntity
  8
0
  6
Continuous
 62
     7
370
    25
100
AcDbLine
 10
-298.0
 20
245.7653862759
 30
0.0
 11
-307.0
 21
245.7653862759
 31
0.0
  0
LINE
  5
63C
330
1F
100
AcDbEntity
  8
0
  6
Continuous
 62
     7
370
    25
100
AcDbLine
 10
-332.0
 20
239.7653862759
 30
0.0
 11
-323.0
 21
239.7653862759
 31
0.0
  0
LINE
  5
63D
330
1F
100
AcDbEntity
  8
0
  6
Continuous
 62
     7
370
    25
100
AcDbLine
 10
-323.0
 20
245.7653862759
 30
0.0
 11
-332.0
 21
245.7653862759
 31
0.0
  0
LINE
  5
63E
330
1F
100
AcDbEntity
  8
0
  6
Continuous
 62
     7
370
    25
100
AcDbLine
 10
-357.0
 20
239.7653862759
 30
0.0
 11
-348.0
 21
239.7653862759
 31
0.0
  0
LINE
  5
63F
330
1F
100
AcDbEntity
  8
0
  6
Continuous
 62
     7
370
    25
100
AcDbLine
 10
-348.0
 20
245.7653862759
 30
0.0
 11
-357.0
 21
245.7653862759
 31
0.0
  0
LINE
  5
640
330
1F
100
AcDbEntity
  8
0
  6
Continuous
 62
     7
370
    25
100
AcDbLine
 10
-382.0
 20
239.7653862759
 30
0.0
 11
-373.0
 21
239.7653862759
 31
0.0
  0
LINE
  5
641
330
1F
100
AcDbEntity
  8
0
  6
Continuous
 62
     7
370
    25
100
AcDbLine
 10
-373.0
 20
245.7653862759
 30
0.0
 11
-382.0
 21
245.7653862759
 31
0.0
  0
LINE
  5
642
330
1F
100
AcDbEntity
  8
0
  6
Continuous
 62
     7
370
    25
100
AcDbLine
 10
-407.0
 20
239.7653862759
 30
0.0
 11
-398.0
 21
239.7653862759
 31
0.0
  0
LINE
  5
643
330
1F
100
AcDbEntity
  8
0
  6
Continuous
 62
     7
370
    25
100
AcDbLine
 10
-398.0
 20
245.7653862759
 30
0.0
 11
-407.0
 21
245.7653862759
 31
0.0
  0
LINE
  5
644
330
1F
100
AcDbEntity
  8
0
  6
Continuous
 62
     7
370
    25
100
AcDbLine
 10
-432.0
 20
239.7653862759
 30
0.0
 11
-423.0
 21
239.7653862759
 31
0.0
  0
LINE
  5
645
330
1F
100
AcDbEntity
  8
0
  6
Continuous
 62
     7
370
    25
100
AcDbLine
 10
-423.0
 20
245.7653862759
 30
0.0
 11
-432.0
 21
245.7653862759
 31
0.0
  0
LINE
  5
646
330
1F
100
AcDbEntity
  8
0
  6
Continuous
 62
     7
370
    25
100
AcDbLine
 10
-457.0
 20
239.7653862759
 30
0.0
 11
-448.0
 21
239.7653862759
 31
0.0
  0
LINE
  5
647
330
1F
100
AcDbEntity
  8
0
  6
Continuous
 62
     7
370
    25
100
AcDbLine
 10
-448.0
 20
245.7653862759
 30
0.0
 11
-457.0
 21
245.7653862759
 31
0.0
  0
LINE
  5
648
330
1F
100
AcDbEntity
  8
0
  6
Continuous
 62
     7
370
    25
100
AcDbLine
 10
-482.0
 20
239.7653862759
 30
0.0
 11
-473.0
 21
239.7653862759
 31
0.0
  0
LINE
  5
649
330
1F
100
AcDbEntity
  8
0
  6
Continuous
 62
     7
370
    25
100
AcDbLine
 10
-473.0
 20
245.7653862759
 30
0.0
 11
-482.0
 21
245.7653862759
 31
0.0
  0
LINE
  5
64A
330
1F
100
AcDbEntity
  8
0
  6
Continuous
 62
     7
370
    25
100
AcDbLine
 10
2.0
 20
245.7653862759
 30
0.0
 11
-7.0
 21
245.7653862759
 31
0.0
  0
LINE
  5
64B
330
1F
100
AcDbEntity
  8
0
  6
Continuous
 62
     7
370
    25
100
AcDbLine
 10
-7.0
 20
239.7653862759
 30
0.0
 11
2.0
 21
239.7653862759
 31
0.0
  0
LINE
  5
64C
330
1F
100
AcDbEntity
  8
0
  6
Continuous
 62
     7
370
    25
100
AcDbLine
 10
-23.0
 20
245.7653862759
 30
0.0
 11
-32.0
 21
245.7653862759
 31
0.0
  0
LINE
  5
64D
330
1F
100
AcDbEntity
  8
0
  6
Continuous
 62
     7
370
    25
100
AcDbLine
 10
-32.0
 20
239.7653862759
 30
0.0
 11
-23.0
 21
239.7653862759
 31
0.0
  0
LINE
  5
64E
330
1F
100
AcDbEntity
  8
0
  6
Continuous
 62
     7
370
    25
100
AcDbLine
 10
-48.0
 20
245.7653862759
 30
0.0
 11
-57.0
 21
245.7653862759
 31
0.0
  0
LINE
  5
64F
330
1F
100
AcDbEntity
  8
0
  6
Continuous
 62
     7
370
    25
100
AcDbLine
 10
-57.0
 20
239.7653862759
 30
0.0
 11
-48.0
 21
239.7653862759
 31
0.0
  0
LINE
  5
650
330
1F
100
AcDbEntity
  8
0
  6
Continuous
 62
     7
370
    25
100
AcDbLine
 10
-73.0
 20
245.7653862759
 30
0.0
 11
-82.0
 21
245.7653862759
 31
0.0
  0
LINE
  5
651
330
1F
100
AcDbEntity
  8
0
  6
Continuous
 62
     7
370
    25
100
AcDbLine
 10
-82.0
 20
239.7653862759
 30
0.0
 11
-73.0
 21
239.7653862759
 31
0.0
  0
LINE
  5
652
330
1F
100
AcDbEntity
  8
0
  6
Continuous
 62
     7
370
    25
100
AcDbLine
 10
-98.0
 20
245.7653862759
 30
0.0
 11
-107.0
 21
245.7653862759
 31
0.0
  0
LINE
  5
653
330
1F
100
AcDbEntity
  8
0
  6
Continuous
 62
     7
370
    25
100
AcDbLine
 10
-107.0
 20
239.7653862759
 30
0.0
 11
-98.0
 21
239.7653862759
 31
0.0
  0
LINE
  5
654
330
1F
100
AcDbEntity
  8
0
  6
Continuous
 62
     7
370
    25
100
AcDbLine
 10
-123.0
 20
245.7653862759
 30
0.0
 11
-132.0
 21
245.7653862759
 31
0.0
  0
LINE
  5
655
330
1F
100
AcDbEntity
  8
0
  6
Continuous
 62
     7
370
    25
100
AcDbLine
 10
-132.0
 20
239.7653862759
 30
0.0
 11
-123.0
 21
239.7653862759
 31
0.0
  0
LINE
  5
656
330
1F
100
AcDbEntity
  8
0
  6
Continuous
 62
     7
370
    25
100
AcDbLine
 10
-148.0
 20
245.7653862759
 30
0.0
 11
-157.0
 21
245.7653862759
 31
0.0
  0
LINE
  5
657
330
1F
100
AcDbEntity
  8
0
  6
Continuous
 62
     7
370
    25
100
AcDbLine
 10
-157.0
 20
239.7653862759
 30
0.0
 11
-148.0
 21
239.7653862759
 31
0.0
  0
LINE
  5
658
330
1F
100
AcDbEntity
  8
0
  6
Continuous
 62
     7
370
    25
100
AcDbLine
 10
-173.0
 20
245.7653862759
 30
0.0
 11
-182.0
 21
245.7653862759
 31
0.0
  0
LINE
  5
659
330
1F
100
AcDbEntity
  8
0
  6
Continuous
 62
     7
370
    25
100
AcDbLine
 10
-182.0
 20
239.7653862759
 30
0.0
 11
-173.0
 21
239.7653862759
 31
0.0
  0
LINE
  5
65A
330
1F
100
AcDbEntity
  8
0
  6
Continuous
 62
     7
370
    25
100
AcDbLine
 10
-198.0
 20
245.7653862759
 30
0.0
 11
-207.0
 21
245.7653862759
 31
0.0
  0
LINE
  5
65B
330
1F
100
AcDbEntity
  8
0
  6
Continuous
 62
     7
370
    25
100
AcDbLine
 10
-207.0
 20
239.7653862759
 30
0.0
 11
-198.0
 21
239.7653862759
 31
0.0
  0
LINE
  5
65C
330
1F
100
AcDbEntity
  8
0
  6
Continuous
 62
     7
370
    25
100
AcDbLine
 10
-223.0
 20
245.7653862759
 30
0.0
 11
-232.0
 21
245.7653862759
 31
0.0
  0
LINE
  5
65D
330
1F
100
AcDbEntity
  8
0
  6
Continuous
 62
     7
370
    25
100
AcDbLine
 10
-232.0
 20
239.7653862759
 30
0.0
 11
-223.0
 21
239.7653862759
 31
0.0
  0
LINE
  5
65E
330
1F
100
AcDbEntity
  8
0
  6
Continuous
 62
     7
370
    25
100
AcDbLine
 10
-248.0
 20
245.7653862759
 30
0.0
 11
-257.0
 21
245.7653862759
 31
0.0
  0
LINE
  5
65F
330
1F
100
AcDbEntity
  8
0
  6
Continuous
 62
     7
370
    25
100
AcDbLine
 10
-257.0
 20
239.7653862759
 30
0.0
 11
-248.0
 21
239.7653862759
 31
0.0
  0
LINE
  5
660
330
1F
100
AcDbEntity
  8
0
  6
Continuous
 62
     7
370
    25
100
AcDbLine
 10
-273.0
 20
245.7653862759
 30
0.0
 11
-282.0
 21
245.7653862759
 31
0.0
  0
LINE
  5
661
330
1F
100
AcDbEntity
  8
0
  6
Continuous
 62
     7
370
    25
100
AcDbLine
 10
-282.0
 20
239.7653862759
 30
0.0
 11
-273.0
 21
239.7653862759
 31
0.0
  0
LINE
  5
662
330
1F
100
AcDbEntity
  8
0
  6
Continuous
 62
     7
370
    25
100
AcDbLine
 10
-490.0
 20
-145.0
 30
0.0
 11
-451.6227758112
 21
-145.0
 31
0.0
  0
LINE
  5
663
330
1F
100
AcDbEntity
  8
0
  6
Continuous
 62
     7
370
    25
100
AcDbLine
 10
-242.8227758112
 20
-145.0
 30
0.0
 11
10.0
 21
-145.0
 31
0.0
  0
LINE
  5
664
330
1F
100
AcDbEntity
  8
0
  6
Continuous
 62
     7
370
    25
100
AcDbLine
 10
-490.0
 20
-150.0
 30
0.0
 11
-451.6227758112
 21
-150.0
 31
0.0
  0
LINE
  5
665
330
1F
100
AcDbEntity
  8
0
  6
Continuous
 62
     7
370
    25
100
AcDbLine
 10
-242.8227758112
 20
-150.0
 30
0.0
 11
10.0
 21
-150.0
 31
0.0
  0
LINE
  5
666
330
1F
100
AcDbEntity
  8
0
  6
Continuous
 62
     7
370
    25
100
AcDbLine
 10
-490.0
 20
-120.0
 30
0.0
 11
-451.6227758112
 21
-120.0
 31
0.0
  0
LINE
  5
667
330
1F
100
AcDbEntity
  8
0
  6
Continuous
 62
     7
370
    25
100
AcDbLine
 10
-242.8227758112
 20
-120.0
 30
0.0
 11
10.0
 21
-120.0
 31
0.0
  0
LINE
  5
668
330
1F
100
AcDbEntity
  8
0
  6
Continuous
 62
     7
370
    25
100
AcDbLine
 10
-490.0
 20
-115.0
 30
0.0
 11
-451.6227758112
 21
-115.0
 31
0.0
  0
LINE
  5
669
330
1F
100
AcDbEntity
  8
0
  6
Continuous
 62
     7
370
    25
100
AcDbLine
 10
-242.8227758112
 20
-115.0
 30
0.0
 11
10.0
 21
-115.0
 31
0.0
  0
LINE
  5
66A
330
1F
100
AcDbEntity
  8
0
  6
Continuous
 62
     7
370
    25
100
AcDbLine
 10
-457.0
 20
-135.5
 30
0.0
 11
-451.6227758112
 21
-135.5
 31
0.0
  0
LINE
  5
66B
330
1F
100
AcDbEntity
  8
0
  6
Continuous
 62
     7
370
    25
100
AcDbLine
 10
-451.6227758112
 20
-129.5
 30
0.0
 11
-457.0
 21
-129.5
 31
0.0
  0
LINE
  5
66C
330
1F
100
AcDbEntity
  8
0
  6
Continuous
 62
     7
370
    25
100
AcDbLine
 10
-482.0
 20
-135.5
 30
0.0
 11
-473.0
 21
-135.5
 31
0.0
  0
LINE
  5
66D
330
1F
100
AcDbEntity
  8
0
  6
Continuous
 62
     7
370
    25
100
AcDbLine
 10
-473.0
 20
-129.5
 30
0.0
 11
-482.0
 21
-129.5
 31
0.0
  0
LINE
  5
66E
330
1F
100
AcDbEntity
  8
0
  6
Continuous
 62
     7
370
    25
100
AcDbLine
 10
2.0
 20
-129.5
 30
0.0
 11
-7.0
 21
-129.5
 31
0.0
  0
LINE
  5
66F
330
1F
100
AcDbEntity
  8
0
  6
Continuous
 62
     7
370
    25
100
AcDbLine
 10
-7.0
 20
-135.5
 30
0.0
 11
2.0
 21
-135.5
 31
0.0
  0
LINE
  5
670
330
1F
100
AcDbEntity
  8
0
  6
Continuous
 62
     7
370
    25
100
AcDbLine
 10
-23.0
 20
-129.5
 30
0.0
 11
-32.0
 21
-129.5
 31
0.0
  0
LINE
  5
671
330
1F
100
AcDbEntity
  8
0
  6
Continuous
 62
     7
370
    25
100
AcDbLine
 10
-32.0
 20
-135.5
 30
0.0
 11
-23.0
 21
-135.5
 31
0.0
  0
LINE
  5
672
330
1F
100
AcDbEntity
  8
0
  6
Continuous
 62
     7
370
    25
100
AcDbLine
 10
-48.0
 20
-129.5
 30
0.0
 11
-57.0
 21
-129.5
 31
0.0
  0
LINE
  5
673
330
1F
100
AcDbEntity
  8
0
  6
Continuous
 62
     7
370
    25
100
AcDbLine
 10
-57.0
 20
-135.5
 30
0.0
 11
-48.0
 21
-135.5
 31
0.0
  0
LINE
  5
674
330
1F
100
AcDbEntity
  8
0
  6
Continuous
 62
     7
370
    25
100
AcDbLine
 10
-73.0
 20
-129.5
 30
0.0
 11
-82.0
 21
-129.5
 31
0.0
  0
LINE
  5
675
330
1F
100
AcDbEntity
  8
0
  6
Continuous
 62
     7
370
    25
100
AcDbLine
 10
-82.0
 20
-135.5
 30
0.0
 11
-73.0
 21
-135.5
 31
0.0
  0
LINE
  5
676
330
1F
100
AcDbEntity
  8
0
  6
Continuous
 62
     7
370
    25
100
AcDbLine
 10
-98.0
 20
-129.5
 30
0.0
 11
-107.0
 21
-129.5
 31
0.0
  0
LINE
  5
677
330
1F
100
AcDbEntity
  8
0
  6
Continuous
 62
     7
370
    25
100
AcDbLine
 10
-107.0
 20
-135.5
 30
0.0
 11
-98.0
 21
-135.5
 31
0.0
  0
LINE
  5
678
330
1F
100
AcDbEntity
  8
0
  6
Continuous
 62
     7
370
    25
100
AcDbLine
 10
-123.0
 20
-129.5
 30
0.0
 11
-132.0
 21
-129.5
 31
0.0
  0
LINE
  5
679
330
1F
100
AcDbEntity
  8
0
  6
Continuous
 62
     7
370
    25
100
AcDbLine
 10
-132.0
 20
-135.5
 30
0.0
 11
-123.0
 21
-135.5
 31
0.0
  0
LINE
  5
67A
330
1F
100
AcDbEntity
  8
0
  6
Continuous
 62
     7
370
    25
100
AcDbLine
 10
-148.0
 20
-129.5
 30
0.0
 11
-157.0
 21
-129.5
 31
0.0
  0
LINE
  5
67B
330
1F
100
AcDbEntity
  8
0
  6
Continuous
 62
     7
370
    25
100
AcDbLine
 10
-157.0
 20
-135.5
 30
0.0
 11
-148.0
 21
-135.5
 31
0.0
  0
LINE
  5
67C
330
1F
100
AcDbEntity
  8
0
  6
Continuous
 62
     7
370
    25
100
AcDbLine
 10
-173.0
 20
-129.5
 30
0.0
 11
-182.0
 21
-129.5
 31
0.0
  0
LINE
  5
67D
330
1F
100
AcDbEntity
  8
0
  6
Continuous
 62
     7
370
    25
100
AcDbLine
 10
-182.0
 20
-135.5
 30
0.0
 11
-173.0
 21
-135.5
 31
0.0
  0
LINE
  5
67E
330
1F
100
AcDbEntity
  8
0
  6
Continuous
 62
     7
370
    25
100
AcDbLine
 10
-198.0
 20
-129.5
 30
0.0
 11
-207.0
 21
-129.5
 31
0.0
  0
LINE
  5
67F
330
1F
100
AcDbEntity
  8
0
  6
Continuous
 62
     7
370
    25
100
AcDbLine
 10
-207.0
 20
-135.5
 30
0.0
 11
-198.0
 21
-135.5
 31
0.0
  0
LINE
  5
680
330
1F
100
AcDbEntity
  8
0
  6
Continuous
 62
     7
370
    25
100
AcDbLine
 10
-223.0
 20
-129.5
 30
0.0
 11
-232.0
 21
-129.5
 31
0.0
  0
LINE
  5
681
330
1F
100
AcDbEntity
  8
0
  6
Continuous
 62
     7
370
    25
100
AcDbLine
 10
-232.0
 20
-135.5
 30
0.0
 11
-223.0
 21
-135.5
 31
0.0
  0
LINE
  5
682
330
1F
100
AcDbEntity
  8
0
  6
Continuous
 62
     7
370
    25
100
AcDbLine
 10
-490.0
 20
-427.25
 30
0.0
 11
10.0
 21
-427.25
 31
0.0
  0
LINE
  5
683
330
1F
100
AcDbEntity
  8
0
  6
Continuous
 62
     7
370
    25
100
AcDbLine
 10
-490.0
 20
-425.0
 30
0.0
 11
10.0
 21
-425.0
 31
0.0
  0
LINE
  5
684
330
1F
100
AcDbEntity
  8
0
  6
Continuous
 62
     7
370
    25
100
AcDbLine
 10
-490.0
 20
-430.0
 30
0.0
 11
10.0
 21
-430.0
 31
0.0
  0
LINE
  5
685
330
1F
100
AcDbEntity
  8
0
  6
Continuous
 62
     7
370
    25
100
AcDbLine
 10
-490.0
 20
-400.0
 30
0.0
 11
10.0
 21
-400.0
 31
0.0
  0
LINE
  5
686
330
1F
100
AcDbEntity
  8
0
  6
Continuous
 62
     7
370
    25
100
AcDbLine
 10
-490.0
 20
-397.75
 30
0.0
 11
10.0
 21
-397.75
 31
0.0
  0
LINE
  5
687
330
1F
100
AcDbEntity
  8
0
  6
Continuous
 62
     7
370
    25
100
AcDbLine
 10
-490.0
 20
-395.0
 30
0.0
 11
10.0
 21
-395.0
 31
0.0
  0
LINE
  5
688
330
1F
100
AcDbEntity
  8
0
  6
Continuous
 62
     7
370
    25
100
AcDbLine
 10
-490.0
 20
-424.75
 30
0.0
 11
10.0
 21
-424.75
 31
0.0
  0
LINE
  5
689
330
1F
100
AcDbEntity
  8
0
  6
Continuous
 62
     7
370
    25
100
AcDbLine
 10
-490.0
 20
-400.25
 30
0.0
 11
10.0
 21
-400.25
 31
0.0
  0
LINE
  5
68A
330
1F
100
AcDbEntity
  8
0
  6
Continuous
 62
     7
370
    25
100
AcDbLine
 10
-307.0
 20
-415.5
 30
0.0
 11
-298.0
 21
-415.5
 31
0.0
  0
LINE
  5
68B
330
1F
100
AcDbEntity
  8
0
  6
Continuous
 62
     7
370
    25
100
AcDbLine
 10
-298.0
 20
-409.5
 30
0.0
 11
-307.0
 21
-409.5
 31
0.0
  0
LINE
  5
68C
330
1F
100
AcDbEntity
  8
0
  6
Continuous
 62
     7
370
    25
100
AcDbLine
 10
-332.0
 20
-415.5
 30
0.0
 11
-323.0
 21
-415.5
 31
0.0
  0
LINE
  5
68D
330
1F
100
AcDbEntity
  8
0
  6
Continuous
 62
     7
370
    25
100
AcDbLine
 10
-323.0
 20
-409.5
 30
0.0
 11
-332.0
 21
-409.5
 31
0.0
  0
LINE
  5
68E
330
1F
100
AcDbEntity
  8
0
  6
Continuous
 62
     7
370
    25
100
AcDbLine
 10
-357.0
 20
-415.5
 30
0.0
 11
-348.0
 21
-415.5
 31
0.0
  0
LINE
  5
68F
330
1F
100
AcDbEntity
  8
0
  6
Continuous
 62
     7
370
    25
100
AcDbLine
 10
-348.0
 20
-409.5
 30
0.0
 11
-357.0
 21
-409.5
 31
0.0
  0
LINE
  5
690
330
1F
100
AcDbEntity
  8
0
  6
Continuous
 62
     7
370
    25
100
AcDbLine
 10
-382.0
 20
-415.5
 30
0.0
 11
-373.0
 21
-415.5
 31
0.0
  0
LINE
  5
691
330
1F
100
AcDbEntity
  8
0
  6
Continuous
 62
     7
370
    25
100
AcDbLine
 10
-373.0
 20
-409.5
 30
0.0
 11
-382.0
 21
-409.5
 31
0.0
  0
LINE
  5
692
330
1F
100
AcDbEntity
  8
0
  6
Continuous
 62
     7
370
    25
100
AcDbLine
 10
-407.0
 20
-415.5
 30
0.0
 11
-398.0
 21
-415.5
 31
0.0
  0
LINE
  5
693
330
1F
100
AcDbEntity
  8
0
  6
Continuous
 62
     7
370
    25
100
AcDbLine
 10
-398.0
 20
-409.5
 30
0.0
 11
-407.0
 21
-409.5
 31
0.0
  0
LINE
  5
694
330
1F
100
AcDbEntity
  8
0
  6
Continuous
 62
     7
370
    25
100
AcDbLine
 10
-432.0
 20
-415.5
 30
0.0
 11
-423.0
 21
-415.5
 31
0.0
  0
LINE
  5
695
330
1F
100
AcDbEntity
  8
0
  6
Continuous
 62
     7
370
    25
100
AcDbLine
 10
-423.0
 20
-409.5
 30
0.0
 11
-432.0
 21
-409.5
 31
0.0
  0
LINE
  5
696
330
1F
100
AcDbEntity
  8
0
  6
Continuous
 62
     7
370
    25
100
AcDbLine
 10
-457.0
 20
-415.5
 30
0.0
 11
-448.0
 21
-415.5
 31
0.0
  0
LINE
  5
697
330
1F
100
AcDbEntity
  8
0
  6
Continuous
 62
     7
370
    25
100
AcDbLine
 10
-448.0
 20
-409.5
 30
0.0
 11
-457.0
 21
-409.5
 31
0.0
  0
LINE
  5
698
330
1F
100
AcDbEntity
  8
0
  6
Continuous
 62
     7
370
    25
100
AcDbLine
 10
-482.0
 20
-415.5
 30
0.0
 11
-473.0
 21
-415.5
 31
0.0
  0
LINE
  5
699
330
1F
100
AcDbEntity
  8
0
  6
Continuous
 62
     7
370
    25
100
AcDbLine
 10
-473.0
 20
-409.5
 30
0.0
 11
-482.0
 21
-409.5
 31
0.0
  0
LINE
  5
69A
330
1F
100
AcDbEntity
  8
0
  6
Continuous
 62
     7
370
    25
100
AcDbLine
 10
2.0
 20
-409.5
 30
0.0
 11
-7.0
 21
-409.5
 31
0.0
  0
LINE
  5
69B
330
1F
100
AcDbEntity
  8
0
  6
Continuous
 62
     7
370
    25
100
AcDbLine
 10
-7.0
 20
-415.5
 30
0.0
 11
2.0
 21
-415.5
 31
0.0
  0
LINE
  5
69C
330
1F
100
AcDbEntity
  8
0
  6
Continuous
 62
     7
370
    25
100
AcDbLine
 10
-23.0
 20
-409.5
 30
0.0
 11
-32.0
 21
-409.5
 31
0.0
  0
LINE
  5
69D
330
1F
100
AcDbEntity
  8
0
  6
Continuous
 62
     7
370
    25
100
AcDbLine
 10
-32.0
 20
-415.5
 30
0.0
 11
-23.0
 21
-415.5
 31
0.0
  0
LINE
  5
69E
330
1F
100
AcDbEntity
  8
0
  6
Continuous
 62
     7
370
    25
100
AcDbLine
 10
-48.0
 20
-409.5
 30
0.0
 11
-57.0
 21
-409.5
 31
0.0
  0
LINE
  5
69F
330
1F
100
AcDbEntity
  8
0
  6
Continuous
 62
     7
370
    25
100
AcDbLine
 10
-57.0
 20
-415.5
 30
0.0
 11
-48.0
 21
-415.5
 31
0.0
  0
LINE
  5
6A0
330
1F
100
AcDbEntity
  8
0
  6
Continuous
 62
     7
370
    25
100
AcDbLine
 10
-73.0
 20
-409.5
 30
0.0
 11
-82.0
 21
-409.5
 31
0.0
  0
LINE
  5
6A1
330
1F
100
AcDbEntity
  8
0
  6
Continuous
 62
     7
370
    25
100
AcDbLine
 10
-82.0
 20
-415.5
 30
0.0
 11
-73.0
 21
-415.5
 31
0.0
  0
LINE
  5
6A2
330
1F
100
AcDbEntity
  8
0
  6
Continuous
 62
     7
370
    25
100
AcDbLine
 10
-98.0
 20
-409.5
 30
0.0
 11
-107.0
 21
-409.5
 31
0.0
  0
LINE
  5
6A3
330
1F
100
AcDbEntity
  8
0
  6
Continuous
 62
     7
370
    25
100
AcDbLine
 10
-107.0
 20
-415.5
 30
0.0
 11
-98.0
 21
-415.5
 31
0.0
  0
LINE
  5
6A4
330
1F
100
AcDbEntity
  8
0
  6
Continuous
 62
     7
370
    25
100
AcDbLine
 10
-123.0
 20
-409.5
 30
0.0
 11
-132.0
 21
-409.5
 31
0.0
  0
LINE
  5
6A5
330
1F
100
AcDbEntity
  8
0
  6
Continuous
 62
     7
370
    25
100
AcDbLine
 10
-132.0
 20
-415.5
 30
0.0
 11
-123.0
 21
-415.5
 31
0.0
  0
LINE
  5
6A6
330
1F
100
AcDbEntity
  8
0
  6
Continuous
 62
     7
370
    25
100
AcDbLine
 10
-148.0
 20
-409.5
 30
0.0
 11
-157.0
 21
-409.5
 31
0.0
  0
LINE
  5
6A7
330
1F
100
AcDbEntity
  8
0
  6
Continuous
 62
     7
370
    25
100
AcDbLine
 10
-157.0
 20
-415.5
 30
0.0
 11
-148.0
 21
-415.5
 31
0.0
  0
LINE
  5
6A8
330
1F
100
AcDbEntity
  8
0
  6
Continuous
 62
     7
370
    25
100
AcDbLine
 10
-173.0
 20
-409.5
 30
0.0
 11
-182.0
 21
-409.5
 31
0.0
  0
LINE
  5
6A9
330
1F
100
AcDbEntity
  8
0
  6
Continuous
 62
     7
370
    25
100
AcDbLine
 10
-182.0
 20
-415.5
 30
0.0
 11
-173.0
 21
-415.5
 31
0.0
  0
LINE
  5
6AA
330
1F
100
AcDbEntity
  8
0
  6
Continuous
 62
     7
370
    25
100
AcDbLine
 10
-198.0
 20
-409.5
 30
0.0
 11
-207.0
 21
-409.5
 31
0.0
  0
LINE
  5
6AB
330
1F
100
AcDbEntity
  8
0
  6
Continuous
 62
     7
370
    25
100
AcDbLine
 10
-207.0
 20
-415.5
 30
0.0
 11
-198.0
 21
-415.5
 31
0.0
  0
LINE
  5
6AC
330
1F
100
AcDbEntity
  8
0
  6
Continuous
 62
     7
370
    25
100
AcDbLine
 10
-223.0
 20
-409.5
 30
0.0
 11
-232.0
 21
-409.5
 31
0.0
  0
LINE
  5
6AD
330
1F
100
AcDbEntity
  8
0
  6
Continuous
 62
     7
370
    25
100
AcDbLine
 10
-232.0
 20
-415.5
 30
0.0
 11
-223.0
 21
-415.5
 31
0.0
  0
LINE
  5
6AE
330
1F
100
AcDbEntity
  8
0
  6
Continuous
 62
     7
370
    25
100
AcDbLine
 10
-248.0
 20
-409.5
 30
0.0
 11
-257.0
 21
-409.5
 31
0.0
  0
LINE
  5
6AF
330
1F
100
AcDbEntity
  8
0
  6
Continuous
 62
     7
370
    25
100
AcDbLine
 10
-257.0
 20
-415.5
 30
0.0
 11
-248.0
 21
-415.5
 31
0.0
  0
LINE
  5
6B0
330
1F
100
AcDbEntity
  8
0
  6
Continuous
 62
     7
370
    25
100
AcDbLine
 10
-273.0
 20
-409.5
 30
0.0
 11
-282.0
 21
-409.5
 31
0.0
  0
LINE
  5
6B1
330
1F
100
AcDbEntity
  8
0
  6
Continuous
 62
     7
370
    25
100
AcDbLine
 10
-282.0
 20
-415.5
 30
0.0
 11
-273.0
 21
-415.5
 31
0.0
  0
LINE
  5
6B2
330
1F
100
AcDbEntity
  8
0
  6
Continuous
 62
     7
370
    25
100
AcDbLine
 10
-490.0
 20
55.0
 30
0.0
 11
-452.8219742602
 21
55.0
 31
0.0
  0
LINE
  5
6B3
330
1F
100
AcDbEntity
  8
0
  6
Continuous
 62
     7
370
    25
100
AcDbLine
 10
-313.6219742602
 20
55.0
 30
0.0
 11
-243.9401605751
 21
55.0
 31
0.0
  0
LINE
  5
6B4
330
1F
100
AcDbEntity
  8
0
  6
Continuous
 62
     7
370
    25
100
AcDbLine
 10
-35.1401605751
 20
55.0
 30
0.0
 11
10.0
 21
55.0
 31
0.0
  0
LINE
  5
6B5
330
1F
100
AcDbEntity
  8
0
  6
Continuous
 62
     7
370
    25
100
AcDbLine
 10
-490.0
 20
50.0
 30
0.0
 11
-452.8219742602
 21
50.0
 31
0.0
  0
LINE
  5
6B6
330
1F
100
AcDbEntity
  8
0
  6
Continuous
 62
     7
370
    25
100
AcDbLine
 10
-313.6219742602
 20
50.0
 30
0.0
 11
-243.9401605751
 21
50.0
 31
0.0
  0
LINE
  5
6B7
330
1F
100
AcDbEntity
  8
0
  6
Continuous
 62
     7
370
    25
100
AcDbLine
 10
-35.1401605751
 20
50.0
 30
0.0
 11
10.0
 21
50.0
 31
0.0
  0
LINE
  5
6B8
330
1F
100
AcDbEntity
  8
0
  6
Continuous
 62
     7
370
    25
100
AcDbLine
 10
-490.0
 20
80.0
 30
0.0
 11
-452.8219742602
 21
80.0
 31
0.0
  0
LINE
  5
6B9
330
1F
100
AcDbEntity
  8
0
  6
Continuous
 62
     7
370
    25
100
AcDbLine
 10
-313.6219742602
 20
80.0
 30
0.0
 11
-243.9401605751
 21
80.0
 31
0.0
  0
LINE
  5
6BA
330
1F
100
AcDbEntity
  8
0
  6
Continuous
 62
     7
370
    25
100
AcDbLine
 10
-35.1401605751
 20
80.0
 30
0.0
 11
10.0
 21
80.0
 31
0.0
  0
LINE
  5
6BB
330
1F
100
AcDbEntity
  8
0
  6
Continuous
 62
     7
370
    25
100
AcDbLine
 10
-490.0
 20
450.0
 30
0.0
 11
-490.0
 21
-450.0
 31
0.0
  0
LINE
  5
6BC
330
1F
100
AcDbEntity
  8
0
  6
Continuous
 62
     7
370
    25
100
AcDbLine
 10
10.0
 20
450.0
 30
0.0
 11
10.0
 21
-450.0
 31
0.0
  0
LINE
  5
6BD
330
1F
100
AcDbEntity
  8
0
  6
Continuous
 62
     7
370
    25
100
AcDbLine
 10
-490.0
 20
85.0
 30
0.0
 11
-452.8219742602
 21
85.0
 31
0.0
  0
LINE
  5
6BE
330
1F
100
AcDbEntity
  8
0
  6
Continuous
 62
     7
370
    25
100
AcDbLine
 10
-313.6219742602
 20
85.0
 30
0.0
 11
-243.9401605751
 21
85.0
 31
0.0
  0
LINE
  5
6BF
330
1F
100
AcDbEntity
  8
0
  6
Continuous
 62
     7
370
    25
100
AcDbLine
 10
-35.1401605751
 20
85.0
 30
0.0
 11
10.0
 21
85.0
 31
0.0
  0
LINE
  5
6C0
330
1F
100
AcDbEntity
  8
0
  6
Continuous
 62
     7
370
    25
100
AcDbLine
 10
-307.0
 20
64.5
 30
0.0
 11
-298.0
 21
64.5
 31
0.0
  0
LINE
  5
6C1
330
1F
100
AcDbEntity
  8
0
  6
Continuous
 62
     7
370
    25
100
AcDbLine
 10
-298.0
 20
70.5
 30
0.0
 11
-307.0
 21
70.5
 31
0.0
  0
LINE
  5
6C2
330
1F
100
AcDbEntity
  8
0
  6
Continuous
 62
     7
370
    25
100
AcDbLine
 10
-457.0
 20
64.5
 30
0.0
 11
-452.8219742602
 21
64.5
 31
0.0
  0
LINE
  5
6C3
330
1F
100
AcDbEntity
  8
0
  6
Continuous
 62
     7
370
    25
100
AcDbLine
 10
-452.8219742602
 20
70.5
 30
0.0
 11
-457.0
 21
70.5
 31
0.0
  0
LINE
  5
6C4
330
1F
100
AcDbEntity
  8
0
  6
Continuous
 62
     7
370
    25
100
AcDbLine
 10
-482.0
 20
64.5
 30
0.0
 11
-473.0
 21
64.5
 31
0.0
  0
LINE
  5
6C5
330
1F
100
AcDbEntity
  8
0
  6
Continuous
 62
     7
370
    25
100
AcDbLine
 10
-473.0
 20
70.5
 30
0.0
 11
-482.0
 21
70.5
 31
0.0
  0
LINE
  5
6C6
330
1F
100
AcDbEntity
  8
0
  6
Continuous
 62
     7
370
    25
100
AcDbLine
 10
2.0
 20
70.5
 30
0.0
 11
-7.0
 21
70.5
 31
0.0
  0
LINE
  5
6C7
330
1F
100
AcDbEntity
  8
0
  6
Continuous
 62
     7
370
    25
100
AcDbLine
 10
-7.0
 20
64.5
 30
0.0
 11
2.0
 21
64.5
 31
0.0
  0
LINE
  5
6C8
330
1F
100
AcDbEntity
  8
0
  6
Continuous
 62
     7
370
    25
100
AcDbLine
 10
-23.0
 20
70.5
 30
0.0
 11
-32.0
 21
70.5
 31
0.0
  0
LINE
  5
6C9
330
1F
100
AcDbEntity
  8
0
  6
Continuous
 62
     7
370
    25
100
AcDbLine
 10
-32.0
 20
64.5
 30
0.0
 11
-23.0
 21
64.5
 31
0.0
  0
LINE
  5
6CA
330
1F
100
AcDbEntity
  8
0
  6
Continuous
 62
     7
370
    25
100
AcDbLine
 10
-248.0
 20
70.5
 30
0.0
 11
-257.0
 21
70.5
 31
0.0
  0
LINE
  5
6CB
330
1F
100
AcDbEntity
  8
0
  6
Continuous
 62
     7
370
    25
100
AcDbLine
 10
-257.0
 20
64.5
 30
0.0
 11
-248.0
 21
64.5
 31
0.0
  0
LINE
  5
6CC
330
1F
100
AcDbEntity
  8
0
  6
Continuous
 62
     7
370
    25
100
AcDbLine
 10
-273.0
 20
70.5
 30
0.0
 11
-282.0
 21
70.5
 31
0.0
  0
LINE
  5
6CD
330
1F
100
AcDbEntity
  8
0
  6
Continuous
 62
     7
370
    25
100
AcDbLine
 10
-282.0
 20
64.5
 30
0.0
 11
-273.0
 21
64.5
 31
0.0
  0
LINE
  5
6CE
330
1F
100
AcDbEntity
  8
0
  6
Continuous
 62
     7
370
    25
100
AcDbLine
 10
-490.0
 20
-450.0
 30
0.0
 11
-470.0
 21
-450.0
 31
0.0
  0
LINE
  5
6CF
330
1F
100
AcDbEntity
  8
0
  6
Continuous
 62
     7
370
    25
100
AcDbLine
 10
-490.0
 20
450.0
 30
0.0
 11
-470.0
 21
450.0
 31
0.0
  0
LINE
  5
6D0
330
1F
100
AcDbEntity
  8
0
  6
Continuous
 62
     7
370
    25
100
AcDbLine
 10
-470.0
 20
450.0
 30
0.0
 11
-470.0
 21
260.2653862759
 31
0.0
  0
LINE
  5
6D1
330
1F
100
AcDbEntity
  8
0
  6
Continuous
 62
     7
370
    25
100
AcDbLine
 10
-470.0
 20
225.2653862759
 30
0.0
 11
-470.0
 21
85.0
 31
0.0
  0
LINE
  5
6D2
330
1F
100
AcDbEntity
  8
0
  6
Continuous
 62
     7
370
    25
100
AcDbLine
 10
-470.0
 20
50.0
 30
0.0
 11
-470.0
 21
-115.0
 31
0.0
  0
LINE
  5
6D3
330
1F
100
AcDbEntity
  8
0
  6
Continuous
 62
     7
370
    25
100
AcDbLine
 10
-470.0
 20
-150.0
 30
0.0
 11
-470.0
 21
-265.0
 31
0.0
  0
LINE
  5
6D4
330
1F
100
AcDbEntity
  8
0
  6
Continuous
 62
     7
370
    25
100
AcDbLine
 10
-470.0
 20
-300.0
 30
0.0
 11
-470.0
 21
-395.0
 31
0.0
  0
LINE
  5
6D5
330
1F
100
AcDbEntity
  8
0
  6
Continuous
 62
     7
370
    25
100
AcDbLine
 10
-470.0
 20
-430.0
 30
0.0
 11
-470.0
 21
-450.0
 31
0.0
  0
LINE
  5
6D6
330
1F
100
AcDbEntity
  8
0
  6
Continuous
 62
     7
370
    25
100
AcDbLine
 10
-10.0
 20
450.0
 30
0.0
 11
-10.0
 21
260.2653862759
 31
0.0
  0
LINE
  5
6D7
330
1F
100
AcDbEntity
  8
0
  6
Continuous
 62
     7
370
    25
100
AcDbLine
 10
-10.0
 20
225.2653862759
 30
0.0
 11
-10.0
 21
85.0
 31
0.0
  0
LINE
  5
6D8
330
1F
100
AcDbEntity
  8
0
  6
Continuous
 62
     7
370
    25
100
AcDbLine
 10
-10.0
 20
50.0
 30
0.0
 11
-10.0
 21
-115.0
 31
0.0
  0
LINE
  5
6D9
330
1F
100
AcDbEntity
  8
0
  6
Continuous
 62
     7
370
    25
100
AcDbLine
 10
-10.0
 20
-150.0
 30
0.0
 11
-10.0
 21
-265.0
 31
0.0
  0
LINE
  5
6DA
330
1F
100
AcDbEntity
  8
0
  6
Continuous
 62
     7
370
    25
100
AcDbLine
 10
-10.0
 20
-300.0
 30
0.0
 11
-10.0
 21
-395.0
 31
0.0
  0
LINE
  5
6DB
330
1F
100
AcDbEntity
  8
0
  6
Continuous
 62
     7
370
    25
100
AcDbLine
 10
-10.0
 20
-430.0
 30
0.0
 11
-10.0
 21
-450.0
 31
0.0
  0
LINE
  5
6DC
330
1F
100
AcDbEntity
  8
0
  6
Continuous
 62
     7
370
    25
100
AcDbLine
 10
-10.0
 20
450.0
 30
0.0
 11
10.0
 21
450.0
 31
0.0
  0
LINE
  5
6DD
330
1F
100
AcDbEntity
  8
0
  6
Continuous
 62
     7
370
    25
100
AcDbLine
 10
-10.0
 20
-450.0
 30
0.0
 11
10.0
 21
-450.0
 31
0.0
  0
LINE
  5
6DE
330
1F
100
AcDbEntity
  8
0
  6
Continuous
 62
     7
370
    25
100
AcDbLine
 10
-490.0
 20
-297.25
 30
0.0
 11
-446.6343156475
 21
-297.25
 31
0.0
  0
LINE
  5
6DF
330
1F
100
AcDbEntity
  8
0
  6
Continuous
 62
     7
370
    25
100
AcDbLine
 10
-342.2343156475
 20
-297.25
 30
0.0
 11
10.0
 21
-297.25
 31
0.0
  0
LINE
  5
6E0
330
1F
100
AcDbEntity
  8
0
  6
Continuous
 62
     7
370
    25
100
AcDbLine
 10
-490.0
 20
-267.75
 30
0.0
 11
-446.6343156475
 21
-267.75
 31
0.0
  0
LINE
  5
6E1
330
1F
100
AcDbEntity
  8
0
  6
Continuous
 62
     7
370
    25
100
AcDbLine
 10
-342.2343156475
 20
-267.75
 30
0.0
 11
10.0
 21
-267.75
 31
0.0
  0
LINE
  5
6E2
330
1F
100
AcDbEntity
  8
0
  6
Continuous
 62
     7
370
    25
100
AcDbLine
 10
-490.0
 20
-294.75
 30
0.0
 11
-446.6343156475
 21
-294.75
 31
0.0
  0
LINE
  5
6E3
330
1F
100
AcDbEntity
  8
0
  6
Continuous
 62
     7
370
    25
100
AcDbLine
 10
-342.2343156475
 20
-294.75
 30
0.0
 11
10.0
 21
-294.75
 31
0.0
  0
LINE
  5
6E4
330
1F
100
AcDbEntity
  8
0
  6
Continuous
 62
     7
370
    25
100
AcDbLine
 10
-490.0
 20
-270.25
 30
0.0
 11
-446.6343156475
 21
-270.25
 31
0.0
  0
LINE
  5
6E5
330
1F
100
AcDbEntity
  8
0
  6
Continuous
 62
     7
370
    25
100
AcDbLine
 10
-342.2343156475
 20
-270.25
 30
0.0
 11
10.0
 21
-270.25
 31
0.0
  0
LINE
  5
6E6
330
1F
100
AcDbEntity
  8
0
  6
Continuous
 62
     7
370
    25
100
AcDbLine
 10
-490.0
 20
-147.25
 30
0.0
 11
-451.6227758112
 21
-147.25
 31
0.0
  0
LINE
  5
6E7
330
1F
100
AcDbEntity
  8
0
  6
Continuous
 62
     7
370
    25
100
AcDbLine
 10
-242.8227758112
 20
-147.25
 30
0.0
 11
10.0
 21
-147.25
 31
0.0
  0
LINE
  5
6E8
330
1F
100
AcDbEntity
  8
0
  6
Continuous
 62
     7
370
    25
100
AcDbLine
 10
-490.0
 20
-117.75
 30
0.0
 11
-451.6227758112
 21
-117.75
 31
0.0
  0
LINE
  5
6E9
330
1F
100
AcDbEntity
  8
0
  6
Continuous
 62
     7
370
    25
100
AcDbLine
 10
-242.8227758112
 20
-117.75
 30
0.0
 11
10.0
 21
-117.75
 31
0.0
  0
LINE
  5
6EA
330
1F
100
AcDbEntity
  8
0
  6
Continuous
 62
     7
370
    25
100
AcDbLine
 10
-490.0
 20
-144.75
 30
0.0
 11
-451.6227758112
 21
-144.75
 31
0.0
  0
LINE
  5
6EB
330
1F
100
AcDbEntity
  8
0
  6
Continuous
 62
     7
370
    25
100
AcDbLine
 10
-242.8227758112
 20
-144.75
 30
0.0
 11
10.0
 21
-144.75
 31
0.0
  0
LINE
  5
6EC
330
1F
100
AcDbEntity
  8
0
  6
Continuous
 62
     7
370
    25
100
AcDbLine
 10
-490.0
 20
-120.25
 30
0.0
 11
-451.6227758112
 21
-120.25
 31
0.0
  0
LINE
  5
6ED
330
1F
100
AcDbEntity
  8
0
  6
Continuous
 62
     7
370
    25
100
AcDbLine
 10
-242.8227758112
 20
-120.25
 30
0.0
 11
10.0
 21
-120.25
 31
0.0
  0
LINE
  5
6EE
330
1F
100
AcDbEntity
  8
0
  6
Continuous
 62
     7
370
    25
100
AcDbLine
 10
-490.0
 20
52.75
 30
0.0
 11
-452.8219742602
 21
52.75
 31
0.0
  0
LINE
  5
6EF
330
1F
100
AcDbEntity
  8
0
  6
Continuous
 62
     7
370
    25
100
AcDbLine
 10
-313.6219742602
 20
52.75
 30
0.0
 11
-243.9401605751
 21
52.75
 31
0.0
  0
LINE
  5
6F0
330
1F
100
AcDbEntity
  8
0
  6
Continuous
 62
     7
370
    25
100
AcDbLine
 10
-35.1401605751
 20
52.75
 30
0.0
 11
10.0
 21
52.75
 31
0.0
  0
LINE
  5
6F1
330
1F
100
AcDbEntity
  8
0
  6
Continuous
 62
     7
370
    25
100
AcDbLine
 10
-490.0
 20
82.25
 30
0.0
 11
-452.8219742602
 21
82.25
 31
0.0
  0
LINE
  5
6F2
330
1F
100
AcDbEntity
  8
0
  6
Continuous
 62
     7
370
    25
100
AcDbLine
 10
-313.6219742602
 20
82.25
 30
0.0
 11
-243.9401605751
 21
82.25
 31
0.0
  0
LINE
  5
6F3
330
1F
100
AcDbEntity
  8
0
  6
Continuous
 62
     7
370
    25
100
AcDbLine
 10
-35.1401605751
 20
82.25
 30
0.0
 11
10.0
 21
82.25
 31
0.0
  0
LINE
  5
6F4
330
1F
100
AcDbEntity
  8
0
  6
Continuous
 62
     7
370
    25
100
AcDbLine
 10
-490.0
 20
55.25
 30
0.0
 11
-452.8219742602
 21
55.25
 31
0.0
  0
LINE
  5
6F5
330
1F
100
AcDbEntity
  8
0
  6
Continuous
 62
     7
370
    25
100
AcDbLine
 10
-313.6219742602
 20
55.25
 30
0.0
 11
-243.9401605751
 21
55.25
 31
0.0
  0
LINE
  5
6F6
330
1F
100
AcDbEntity
  8
0
  6
Continuous
 62
     7
370
    25
100
AcDbLine
 10
-35.1401605751
 20
55.25
 30
0.0
 11
10.0
 21
55.25
 31
0.0
  0
LINE
  5
6F7
330
1F
100
AcDbEntity
  8
0
  6
Continuous
 62
     7
370
    25
100
AcDbLine
 10
-490.0
 20
79.75
 30
0.0
 11
-452.8219742602
 21
79.75
 31
0.0
  0
LINE
  5
6F8
330
1F
100
AcDbEntity
  8
0
  6
Continuous
 62
     7
370
    25
100
AcDbLine
 10
-313.6219742602
 20
79.75
 30
0.0
 11
-243.9401605751
 21
79.75
 31
0.0
  0
LINE
  5
6F9
330
1F
100
AcDbEntity
  8
0
  6
Continuous
 62
     7
370
    25
100
AcDbLine
 10
-35.1401605751
 20
79.75
 30
0.0
 11
10.0
 21
79.75
 31
0.0
  0
LINE
  5
6FA
330
1F
100
AcDbEntity
  8
0
  6
Continuous
 62
     7
370
    25
100
AcDbLine
 10
-488.0
 20
450.0
 30
0.0
 11
-488.0
 21
260.2653862759
 31
0.0
  0
LINE
  5
6FB
330
1F
100
AcDbEntity
  8
0
  6
Continuous
 62
     7
370
    25
100
AcDbLine
 10
-488.0
 20
225.2653862759
 30
0.0
 11
-488.0
 21
85.0
 31
0.0
  0
LINE
  5
6FC
330
1F
100
AcDbEntity
  8
0
  6
Continuous
 62
     7
370
    25
100
AcDbLine
 10
-488.0
 20
50.0
 30
0.0
 11
-488.0
 21
-115.0
 31
0.0
  0
LINE
  5
6FD
330
1F
100
AcDbEntity
  8
0
  6
Continuous
 62
     7
370
    25
100
AcDbLine
 10
-488.0
 20
-150.0
 30
0.0
 11
-488.0
 21
-265.0
 31
0.0
  0
LINE
  5
6FE
330
1F
100
AcDbEntity
  8
0
  6
Continuous
 62
     7
370
    25
100
AcDbLine
 10
-488.0
 20
-300.0
 30
0.0
 11
-488.0
 21
-395.0
 31
0.0
  0
LINE
  5
6FF
330
1F
100
AcDbEntity
  8
0
  6
Continuous
 62
     7
370
    25
100
AcDbLine
 10
-488.0
 20
-430.0
 30
0.0
 11
-488.0
 21
-450.0
 31
0.0
  0
LINE
  5
700
330
1F
100
AcDbEntity
  8
0
  6
Continuous
 62
     7
370
    25
100
AcDbLine
 10
-472.0
 20
450.0
 30
0.0
 11
-472.0
 21
260.2653862759
 31
0.0
  0
LINE
  5
701
330
1F
100
AcDbEntity
  8
0
  6
Continuous
 62
     7
370
    25
100
AcDbLine
 10
-472.0
 20
245.5938134007
 30
0.0
 11
-472.0
 21
239.9369591512
 31
0.0
  0
LINE
  5
702
330
1F
100
AcDbEntity
  8
0
  6
Continuous
 62
     7
370
    25
100
AcDbLine
 10
-472.0
 20
225.2653862759
 30
0.0
 11
-472.0
 21
85.0
 31
0.0
  0
LINE
  5
703
330
1F
100
AcDbEntity
  8
0
  6
Continuous
 62
     7
370
    25
100
AcDbLine
 10
-472.0
 20
70.3284271247
 30
0.0
 11
-472.0
 21
64.6715728753
 31
0.0
  0
LINE
  5
704
330
1F
100
AcDbEntity
  8
0
  6
Continuous
 62
     7
370
    25
100
AcDbLine
 10
-472.0
 20
50.0
 30
0.0
 11
-472.0
 21
-115.0
 31
0.0
  0
LINE
  5
705
330
1F
100
AcDbEntity
  8
0
  6
Continuous
 62
     7
370
    25
100
AcDbLine
 10
-472.0
 20
-129.6715728753
 30
0.0
 11
-472.0
 21
-135.3284271247
 31
0.0
  0
LINE
  5
706
330
1F
100
AcDbEntity
  8
0
  6
Continuous
 62
     7
370
    25
100
AcDbLine
 10
-472.0
 20
-150.0
 30
0.0
 11
-472.0
 21
-265.0
 31
0.0
  0
LINE
  5
707
330
1F
100
AcDbEntity
  8
0
  6
Continuous
 62
     7
370
    25
100
AcDbLine
 10
-472.0
 20
-279.6715728753
 30
0.0
 11
-472.0
 21
-285.3284271247
 31
0.0
  0
LINE
  5
708
330
1F
100
AcDbEntity
  8
0
  6
Continuous
 62
     7
370
    25
100
AcDbLine
 10
-472.0
 20
-300.0
 30
0.0
 11
-472.0
 21
-395.0
 31
0.0
  0
LINE
  5
709
330
1F
100
AcDbEntity
  8
0
  6
Continuous
 62
     7
370
    25
100
AcDbLine
 10
-472.0
 20
-409.6715728753
 30
0.0
 11
-472.0
 21
-415.3284271247
 31
0.0
  0
LINE
  5
70A
330
1F
100
AcDbEntity
  8
0
  6
Continuous
 62
     7
370
    25
100
AcDbLine
 10
-472.0
 20
-430.0
 30
0.0
 11
-472.0
 21
-450.0
 31
0.0
  0
LINE
  5
70B
330
1F
100
AcDbEntity
  8
0
  6
Continuous
 62
     7
370
    25
100
AcDbLine
 10
-8.0
 20
450.0
 30
0.0
 11
-8.0
 21
260.2653862759
 31
0.0
  0
LINE
  5
70C
330
1F
100
AcDbEntity
  8
0
  6
Continuous
 62
     7
370
    25
100
AcDbLine
 10
-8.0
 20
245.5938134007
 30
0.0
 11
-8.0
 21
239.9369591512
 31
0.0
  0
LINE
  5
70D
330
1F
100
AcDbEntity
  8
0
  6
Continuous
 62
     7
370
    25
100
AcDbLine
 10
-8.0
 20
225.2653862759
 30
0.0
 11
-8.0
 21
85.0
 31
0.0
  0
LINE
  5
70E
330
1F
100
AcDbEntity
  8
0
  6
Continuous
 62
     7
370
    25
100
AcDbLine
 10
-8.0
 20
70.3284271247
 30
0.0
 11
-8.0
 21
64.6715728753
 31
0.0
  0
LINE
  5
70F
330
1F
100
AcDbEntity
  8
0
  6
Continuous
 62
     7
370
    25
100
AcDbLine
 10
-8.0
 20
50.0
 30
0.0
 11
-8.0
 21
-115.0
 31
0.0
  0
LINE
  5
710
330
1F
100
AcDbEntity
  8
0
  6
Continuous
 62
     7
370
    25
100
AcDbLine
 10
-8.0
 20
-129.6715728753
 30
0.0
 11
-8.0
 21
-135.3284271247
 31
0.0
  0
LINE
  5
711
330
1F
100
AcDbEntity
  8
0
  6
Continuous
 62
     7
370
    25
100
AcDbLine
 10
-8.0
 20
-150.0
 30
0.0
 11
-8.0
 21
-265.0
 31
0.0
  0
LINE
  5
712
330
1F
100
AcDbEntity
  8
0
  6
Continuous
 62
     7
370
    25
100
AcDbLine
 10
-8.0
 20
-279.6715728753
 30
0.0
 11
-8.0
 21
-285.3284271247
 31
0.0
  0
LINE
  5
713
330
1F
100
AcDbEntity
  8
0
  6
Continuous
 62
     7
370
    25
100
AcDbLine
 10
-8.0
 20
-300.0
 30
0.0
 11
-8.0
 21
-395.0
 31
0.0
  0
LINE
  5
714
330
1F
100
AcDbEntity
  8
0
  6
Continuous
 62
     7
370
    25
100
AcDbLine
 10
-8.0
 20
-409.6715728753
 30
0.0
 11
-8.0
 21
-415.3284271247
 31
0.0
  0
LINE
  5
715
330
1F
100
AcDbEntity
  8
0
  6
Continuous
 62
     7
370
    25
100
AcDbLine
 10
-8.0
 20
-430.0
 30
0.0
 11
-8.0
 21
-450.0
 31
0.0
  0
LINE
  5
716
330
1F
100
AcDbEntity
  8
0
  6
Continuous
 62
     7
370
    25
100
AcDbLine
 10
8.0
 20
450.0
 30
0.0
 11
8.0
 21
260.2653862759
 31
0.0
  0
LINE
  5
717
330
1F
100
AcDbEntity
  8
0
  6
Continuous
 62
     7
370
    25
100
AcDbLine
 10
8.0
 20
225.2653862759
 30
0.0
 11
8.0
 21
85.0
 31
0.0
  0
LINE
  5
718
330
1F
100
AcDbEntity
  8
0
  6
Continuous
 62
     7
370
    25
100
AcDbLine
 10
8.0
 20
50.0
 30
0.0
 11
8.0
 21
-115.0
 31
0.0
  0
LINE
  5
719
330
1F
100
AcDbEntity
  8
0
  6
Continuous
 62
     7
370
    25
100
AcDbLine
 10
8.0
 20
-150.0
 30
0.0
 11
8.0
 21
-265.0
 31
0.0
  0
LINE
  5
71A
330
1F
100
AcDbEntity
  8
0
  6
Continuous
 62
     7
370
    25
100
AcDbLine
 10
8.0
 20
-300.0
 30
0.0
 11
8.0
 21
-395.0
 31
0.0
  0
LINE
  5
71B
330
1F
100
AcDbEntity
  8
0
  6
Continuous
 62
     7
370
    25
100
AcDbLine
 10
8.0
 20
-430.0
 30
0.0
 11
8.0
 21
-450.0
 31
0.0
  0
ARC
  5
71C
330
1F
100
AcDbEntity
  8
0
  6
Continuous
 62
     7
370
    25
100
AcDbCircle
 10
-298.0
 20
-282.5
 30
0.0
 40
3.000000000000057
100
AcDbArc
 50
270.0
 51
90.0
  0
ARC
  5
71D
330
1F
100
AcDbEntity
  8
0
  6
Continuous
 62
     7
370
    25
100
AcDbCircle
 10
-307.0
 20
-282.5
 30
0.0
 40
3.000000000000057
100
AcDbArc
 50
90.0
 51
270.0
  0
ARC
  5
71E
330
1F
100
AcDbEntity
  8
0
  6
Continuous
 62
     7
370
    25
100
AcDbCircle
 10
-323.0
 20
-282.5
 30
0.0
 40
2.999999999999943
100
AcDbArc
 50
270.0
 51
90.0
  0
ARC
  5
71F
330
1F
100
AcDbEntity
  8
0
  6
Continuous
 62
     7
370
    25
100
AcDbCircle
 10
-332.0
 20
-282.5
 30
0.0
 40
2.999999999999943
100
AcDbArc
 50
90.0
 51
270.0
  0
ARC
  5
720
330
1F
100
AcDbEntity
  8
0
  6
Continuous
 62
     7
370
    25
100
AcDbCircle
 10
-448.0
 20
-282.5
 30
0.0
 40
2.999999999997637
100
AcDbArc
 50
270.0
 51
297.0796126704
  0
ARC
  5
721
330
1F
100
AcDbEntity
  8
0
  6
Continuous
 62
     7
370
    25
100
AcDbCircle
 10
-448.0
 20
-282.5
 30
0.0
 40
3.000000000018872
100
AcDbArc
 50
62.9203873296
 51
89.9999999999
  0
ARC
  5
722
330
1F
100
AcDbEntity
  8
0
  6
Continuous
 62
     7
370
    25
100
AcDbCircle
 10
-457.0
 20
-282.5
 30
0.0
 40
2.999999999998977
100
AcDbArc
 50
90.0
 51
270.0
  0
ARC
  5
723
330
1F
100
AcDbEntity
  8
0
  6
Continuous
 62
     7
370
    25
100
AcDbCircle
 10
-473.0
 20
-282.5
 30
0.0
 40
2.999999999999375
100
AcDbArc
 50
270.0
 51
90.0
  0
ARC
  5
724
330
1F
100
AcDbEntity
  8
0
  6
Continuous
 62
     7
370
    25
100
AcDbCircle
 10
-482.0
 20
-282.5
 30
0.0
 40
2.999999999998806
100
AcDbArc
 50
90.0
 51
270.0
  0
ARC
  5
725
330
1F
100
AcDbEntity
  8
0
  6
Continuous
 62
     7
370
    25
100
AcDbCircle
 10
-7.0
 20
-282.5
 30
0.0
 40
3.000000000000057
100
AcDbArc
 50
90.0
 51
270.0
  0
ARC
  5
726
330
1F
100
AcDbEntity
  8
0
  6
Continuous
 62
     7
370
    25
100
AcDbCircle
 10
2.0
 20
-282.5
 30
0.0
 40
3.000000000000057
100
AcDbArc
 50
270.0
 51
90.0
  0
ARC
  5
727
330
1F
100
AcDbEntity
  8
0
  6
Continuous
 62
     7
370
    25
100
AcDbCircle
 10
-32.0
 20
-282.5
 30
0.0
 40
3.000000000000057
100
AcDbArc
 50
90.0
 51
270.0
  0
ARC
  5
728
330
1F
100
AcDbEntity
  8
0
  6
Continuous
 62
     7
370
    25
100
AcDbCircle
 10
-23.0
 20
-282.5
 30
0.0
 40
3.000000000000057
100
AcDbArc
 50
270.0
 51
90.0
  0
ARC
  5
729
330
1F
100
AcDbEntity
  8
0
  6
Continuous
 62
     7
370
    25
100
AcDbCircle
 10
-57.0
 20
-282.5
 30
0.0
 40
3.000000000000057
100
AcDbArc
 50
90.0
 51
270.0
  0
ARC
  5
72A
330
1F
100
AcDbEntity
  8
0
  6
Continuous
 62
     7
370
    25
100
AcDbCircle
 10
-48.0
 20
-282.5
 30
0.0
 40
3.000000000000057
100
AcDbArc
 50
270.0
 51
90.0
  0
ARC
  5
72B
330
1F
100
AcDbEntity
  8
0
  6
Continuous
 62
     7
370
    25
100
AcDbCircle
 10
-82.0
 20
-282.5
 30
0.0
 40
3.000000000000057
100
AcDbArc
 50
90.0
 51
270.0
  0
ARC
  5
72C
330
1F
100
AcDbEntity
  8
0
  6
Continuous
 62
     7
370
    25
100
AcDbCircle
 10
-73.0
 20
-282.5
 30
0.0
 40
3.000000000000057
100
AcDbArc
 50
270.0
 51
90.0
  0
ARC
  5
72D
330
1F
100
AcDbEntity
  8
0
  6
Continuous
 62
     7
370
    25
100
AcDbCircle
 10
-107.0
 20
-282.5
 30
0.0
 40
3.000000000000057
100
AcDbArc
 50
90.0
 51
270.0
  0
ARC
  5
72E
330
1F
100
AcDbEntity
  8
0
  6
Continuous
 62
     7
370
    25
100
AcDbCircle
 10
-98.0
 20
-282.5
 30
0.0
 40
3.000000000000057
100
AcDbArc
 50
270.0
 51
90.0
  0
ARC
  5
72F
330
1F
100
AcDbEntity
  8
0
  6
Continuous
 62
     7
370
    25
100
AcDbCircle
 10
-132.0
 20
-282.5
 30
0.0
 40
3.000000000000057
100
AcDbArc
 50
90.0
 51
270.0
  0
ARC
  5
730
330
1F
100
AcDbEntity
  8
0
  6
Continuous
 62
     7
370
    25
100
AcDbCircle
 10
-123.0
 20
-282.5
 30
0.0
 40
3.000000000000057
100
AcDbArc
 50
270.0
 51
90.0
  0
ARC
  5
731
330
1F
100
AcDbEntity
  8
0
  6
Continuous
 62
     7
370
    25
100
AcDbCircle
 10
-157.0
 20
-282.5
 30
0.0
 40
3.0
100
AcDbArc
 50
90.0
 51
270.0
  0
ARC
  5
732
330
1F
100
AcDbEntity
  8
0
  6
Continuous
 62
     7
370
    25
100
AcDbCircle
 10
-148.0
 20
-282.5
 30
0.0
 40
3.0
100
AcDbArc
 50
270.0
 51
90.0
  0
ARC
  5
733
330
1F
100
AcDbEntity
  8
0
  6
Continuous
 62
     7
370
    25
100
AcDbCircle
 10
-182.0
 20
-282.5
 30
0.0
 40
3.000000000000057
100
AcDbArc
 50
90.0
 51
270.0
  0
ARC
  5
734
330
1F
100
AcDbEntity
  8
0
  6
Continuous
 62
     7
370
    25
100
AcDbCircle
 10
-173.0
 20
-282.5
 30
0.0
 40
3.000000000000057
100
AcDbArc
 50
270.0
 51
90.0
  0
ARC
  5
735
330
1F
100
AcDbEntity
  8
0
  6
Continuous
 62
     7
370
    25
100
AcDbCircle
 10
-207.0
 20
-282.5
 30
0.0
 40
3.000000000000057
100
AcDbArc
 50
90.0
 51
270.0
  0
ARC
  5
736
330
1F
100
AcDbEntity
  8
0
  6
Continuous
 62
     7
370
    25
100
AcDbCircle
 10
-198.0
 20
-282.5
 30
0.0
 40
3.000000000000057
100
AcDbArc
 50
270.0
 51
90.0
  0
ARC
  5
737
330
1F
100
AcDbEntity
  8
0
  6
Continuous
 62
     7
370
    25
100
AcDbCircle
 10
-232.0
 20
-282.5
 30
0.0
 40
3.000000000000057
100
AcDbArc
 50
90.0
 51
270.0
  0
ARC
  5
738
330
1F
100
AcDbEntity
  8
0
  6
Continuous
 62
     7
370
    25
100
AcDbCircle
 10
-223.0
 20
-282.5
 30
0.0
 40
3.0
100
AcDbArc
 50
270.0
 51
90.0
  0
ARC
  5
739
330
1F
100
AcDbEntity
  8
0
  6
Continuous
 62
     7
370
    25
100
AcDbCircle
 10
-257.0
 20
-282.5
 30
0.0
 40
3.000000000000057
100
AcDbArc
 50
90.0
 51
270.0
  0
ARC
  5
73A
330
1F
100
AcDbEntity
  8
0
  6
Continuous
 62
     7
370
    25
100
AcDbCircle
 10
-248.0
 20
-282.5
 30
0.0
 40
3.000000000000057
100
AcDbArc
 50
270.0
 51
90.0
  0
ARC
  5
73B
330
1F
100
AcDbEntity
  8
0
  6
Continuous
 62
     7
370
    25
100
AcDbCircle
 10
-282.0
 20
-282.5
 30
0.0
 40
3.000000000000057
100
AcDbArc
 50
90.0
 51
270.0
  0
ARC
  5
73C
330
1F
100
AcDbEntity
  8
0
  6
Continuous
 62
     7
370
    25
100
AcDbCircle
 10
-273.0
 20
-282.5
 30
0.0
 40
3.000000000000057
100
AcDbArc
 50
270.0
 51
90.0
  0
ARC
  5
73D
330
1F
100
AcDbEntity
  8
0
  6
Continuous
 62
     7
370
    25
100
AcDbCircle
 10
-298.0
 20
242.7653862759
 30
0.0
 40
3.000000000000028
100
AcDbArc
 50
270.0
 51
90.0
  0
ARC
  5
73E
330
1F
100
AcDbEntity
  8
0
  6
Continuous
 62
     7
370
    25
100
AcDbCircle
 10
-307.0
 20
242.7653862759
 30
0.0
 40
3.0
100
AcDbArc
 50
90.0
 51
270.0
  0
ARC
  5
73F
330
1F
100
AcDbEntity
  8
0
  6
Continuous
 62
     7
370
    25
100
AcDbCircle
 10
-323.0
 20
242.7653862759
 30
0.0
 40
2.999999999999915
100
AcDbArc
 50
270.0
 51
90.0
  0
ARC
  5
740
330
1F
100
AcDbEntity
  8
0
  6
Continuous
 62
     7
370
    25
100
AcDbCircle
 10
-332.0
 20
242.7653862759
 30
0.0
 40
2.999999999999858
100
AcDbArc
 50
90.0
 51
270.0
  0
ARC
  5
741
330
1F
100
AcDbEntity
  8
0
  6
Continuous
 62
     7
370
    25
100
AcDbCircle
 10
-348.0
 20
242.7653862759
 30
0.0
 40
2.999999999999801
100
AcDbArc
 50
270.0
 51
90.0
  0
ARC
  5
742
330
1F
100
AcDbEntity
  8
0
  6
Continuous
 62
     7
370
    25
100
AcDbCircle
 10
-357.0
 20
242.7653862759
 30
0.0
 40
2.999999999999716
100
AcDbArc
 50
90.0
 51
270.0
  0
ARC
  5
743
330
1F
100
AcDbEntity
  8
0
  6
Continuous
 62
     7
370
    25
100
AcDbCircle
 10
-373.0
 20
242.7653862759
 30
0.0
 40
2.999999999999744
100
AcDbArc
 50
270.0
 51
90.0
  0
ARC
  5
744
330
1F
100
AcDbEntity
  8
0
  6
Continuous
 62
     7
370
    25
100
AcDbCircle
 10
-382.0
 20
242.7653862759
 30
0.0
 40
2.999999999999488
100
AcDbArc
 50
90.0
 51
270.0
  0
ARC
  5
745
330
1F
100
AcDbEntity
  8
0
  6
Continuous
 62
     7
370
    25
100
AcDbCircle
 10
-398.0
 20
242.7653862759
 30
0.0
 40
2.999999999999631
100
AcDbArc
 50
270.0
 51
90.0
  0
ARC
  5
746
330
1F
100
AcDbEntity
  8
0
  6
Continuous
 62
     7
370
    25
100
AcDbCircle
 10
-407.0
 20
242.7653862759
 30
0.0
 40
2.999999999999318
100
AcDbArc
 50
90.0
 51
270.0
  0
ARC
  5
747
330
1F
100
AcDbEntity
  8
0
  6
Continuous
 62
     7
370
    25
100
AcDbCircle
 10
-423.0
 20
242.7653862759
 30
0.0
 40
2.999999999999631
100
AcDbArc
 50
270.0
 51
90.0
  0
ARC
  5
748
330
1F
100
AcDbEntity
  8
0
  6
Continuous
 62
     7
370
    25
100
AcDbCircle
 10
-432.0
 20
242.7653862759
 30
0.0
 40
2.999999999999176
100
AcDbArc
 50
90.0
 51
270.0
  0
ARC
  5
749
330
1F
100
AcDbEntity
  8
0
  6
Continuous
 62
     7
370
    25
100
AcDbCircle
 10
-448.0
 20
242.7653862759
 30
0.0
 40
2.999999999999488
100
AcDbArc
 50
270.0
 51
90.0
  0
ARC
  5
74A
330
1F
100
AcDbEntity
  8
0
  6
Continuous
 62
     7
370
    25
100
AcDbCircle
 10
-457.0
 20
242.7653862759
 30
0.0
 40
2.999999999998977
100
AcDbArc
 50
90.0
 51
270.0
  0
ARC
  5
74B
330
1F
100
AcDbEntity
  8
0
  6
Continuous
 62
     7
370
    25
100
AcDbCircle
 10
-473.0
 20
242.7653862759
 30
0.0
 40
2.999999999999403
100
AcDbArc
 50
270.0
 51
90.0
  0
ARC
  5
74C
330
1F
100
AcDbEntity
  8
0
  6
Continuous
 62
     7
370
    25
100
AcDbCircle
 10
-482.0
 20
242.7653862759
 30
0.0
 40
2.999999999998806
100
AcDbArc
 50
90.0
 51
270.0
  0
ARC
  5
74D
330
1F
100
AcDbEntity
  8
0
  6
Continuous
 62
     7
370
    25
100
AcDbCircle
 10
-7.0
 20
242.7653862759
 30
0.0
 40
3.0
100
AcDbArc
 50
90.0
 51
270.0
  0
ARC
  5
74E
330
1F
100
AcDbEntity
  8
0
  6
Continuous
 62
     7
370
    25
100
AcDbCircle
 10
2.0
 20
242.7653862759
 30
0.0
 40
3.000000000000028
100
AcDbArc
 50
270.0
 51
90.0
  0
ARC
  5
74F
330
1F
100
AcDbEntity
  8
0
  6
Continuous
 62
     7
370
    25
100
AcDbCircle
 10
-32.0
 20
242.7653862759
 30
0.0
 40
3.0
100
AcDbArc
 50
90.0
 51
270.0
  0
ARC
  5
750
330
1F
100
AcDbEntity
  8
0
  6
Continuous
 62
     7
370
    25
100
AcDbCircle
 10
-23.0
 20
242.7653862759
 30
0.0
 40
3.000000000000028
100
AcDbArc
 50
270.0
 51
90.0
  0
ARC
  5
751
330
1F
100
AcDbEntity
  8
0
  6
Continuous
 62
     7
370
    25
100
AcDbCircle
 10
-57.0
 20
242.7653862759
 30
0.0
 40
3.0
100
AcDbArc
 50
90.0
 51
270.0
  0
ARC
  5
752
330
1F
100
AcDbEntity
  8
0
  6
Continuous
 62
     7
370
    25
100
AcDbCircle
 10
-48.0
 20
242.7653862759
 30
0.0
 40
3.000000000000028
100
AcDbArc
 50
270.0
 51
90.0
  0
ARC
  5
753
330
1F
100
AcDbEntity
  8
0
  6
Continuous
 62
     7
370
    25
100
AcDbCircle
 10
-82.0
 20
242.7653862759
 30
0.0
 40
3.000000000000028
100
AcDbArc
 50
90.0
 51
270.0
  0
ARC
  5
754
330
1F
100
AcDbEntity
  8
0
  6
Continuous
 62
     7
370
    25
100
AcDbCircle
 10
-73.0
 20
242.7653862759
 30
0.0
 40
3.000000000000028
100
AcDbArc
 50
270.0
 51
90.0
  0
ARC
  5
755
330
1F
100
AcDbEntity
  8
0
  6
Continuous
 62
     7
370
    25
100
AcDbCircle
 10
-107.0
 20
242.7653862759
 30
0.0
 40
2.999999999999972
100
AcDbArc
 50
90.0
 51
270.0
  0
ARC
  5
756
330
1F
100
AcDbEntity
  8
0
  6
Continuous
 62
     7
370
    25
100
AcDbCircle
 10
-98.0
 20
242.7653862759
 30
0.0
 40
2.999999999999972
100
AcDbArc
 50
270.0
 51
90.0
  0
ARC
  5
757
330
1F
100
AcDbEntity
  8
0
  6
Continuous
 62
     7
370
    25
100
AcDbCircle
 10
-132.0
 20
242.7653862759
 30
0.0
 40
3.0
100
AcDbArc
 50
90.0
 51
270.0
  0
ARC
  5
758
330
1F
100
AcDbEntity
  8
0
  6
Continuous
 62
     7
370
    25
100
AcDbCircle
 10
-123.0
 20
242.7653862759
 30
0.0
 40
3.000000000000028
100
AcDbArc
 50
270.0
 51
90.0
  0
ARC
  5
759
330
1F
100
AcDbEntity
  8
0
  6
Continuous
 62
     7
370
    25
100
AcDbCircle
 10
-157.0
 20
242.7653862759
 30
0.0
 40
3.0
100
AcDbArc
 50
90.0
 51
270.0
  0
ARC
  5
75A
330
1F
100
AcDbEntity
  8
0
  6
Continuous
 62
     7
370
    25
100
AcDbCircle
 10
-148.0
 20
242.7653862759
 30
0.0
 40
3.0
100
AcDbArc
 50
270.0
 51
90.0
  0
ARC
  5
75B
330
1F
100
AcDbEntity
  8
0
  6
Continuous
 62
     7
370
    25
100
AcDbCircle
 10
-182.0
 20
242.7653862759
 30
0.0
 40
3.0
100
AcDbArc
 50
90.0
 51
270.0
  0
ARC
  5
75C
330
1F
100
AcDbEntity
  8
0
  6
Continuous
 62
     7
370
    25
100
AcDbCircle
 10
-173.0
 20
242.7653862759
 30
0.0
 40
3.0
100
AcDbArc
 50
270.0
 51
90.0
  0
ARC
  5
75D
330
1F
100
AcDbEntity
  8
0
  6
Continuous
 62
     7
370
    25
100
AcDbCircle
 10
-207.0
 20
242.7653862759
 30
0.0
 40
3.0
100
AcDbArc
 50
90.0
 51
270.0
  0
ARC
  5
75E
330
1F
100
AcDbEntity
  8
0
  6
Continuous
 62
     7
370
    25
100
AcDbCircle
 10
-198.0
 20
242.7653862759
 30
0.0
 40
3.0
100
AcDbArc
 50
270.0
 51
90.0
  0
ARC
  5
75F
330
1F
100
AcDbEntity
  8
0
  6
Continuous
 62
     7
370
    25
100
AcDbCircle
 10
-232.0
 20
242.7653862759
 30
0.0
 40
3.0
100
AcDbArc
 50
90.0
 51
270.0
  0
ARC
  5
760
330
1F
100
AcDbEntity
  8
0
  6
Continuous
 62
     7
370
    25
100
AcDbCircle
 10
-223.0
 20
242.7653862759
 30
0.0
 40
3.0
100
AcDbArc
 50
270.0
 51
90.0
  0
ARC
  5
761
330
1F
100
AcDbEntity
  8
0
  6
Continuous
 62
     7
370
    25
100
AcDbCircle
 10
-257.0
 20
242.7653862759
 30
0.0
 40
3.0
100
AcDbArc
 50
90.0
 51
270.0
  0
ARC
  5
762
330
1F
100
AcDbEntity
  8
0
  6
Continuous
 62
     7
370
    25
100
AcDbCircle
 10
-248.0
 20
242.7653862759
 30
0.0
 40
3.000000000000028
100
AcDbArc
 50
270.0
 51
90.0
  0
ARC
  5
763
330
1F
100
AcDbEntity
  8
0
  6
Continuous
 62
     7
370
    25
100
AcDbCircle
 10
-282.0
 20
242.7653862759
 30
0.0
 40
3.0
100
AcDbArc
 50
90.0
 51
270.0
  0
ARC
  5
764
330
1F
100
AcDbEntity
  8
0
  6
Continuous
 62
     7
370
    25
100
AcDbCircle
 10
-273.0
 20
242.7653862759
 30
0.0
 40
3.0
100
AcDbArc
 50
270.0
 51
90.0
  0
ARC
  5
765
330
1F
100
AcDbEntity
  8
0
  6
Continuous
 62
     7
370
    25
100
AcDbCircle
 10
-457.0
 20
-132.5
 30
0.0
 40
2.999999999998948
100
AcDbArc
 50
90.0
 51
270.0
  0
ARC
  5
766
330
1F
100
AcDbEntity
  8
0
  6
Continuous
 62
     7
370
    25
100
AcDbCircle
 10
-473.0
 20
-132.5
 30
0.0
 40
2.999999999999432
100
AcDbArc
 50
270.0
 51
90.0
  0
ARC
  5
767
330
1F
100
AcDbEntity
  8
0
  6
Continuous
 62
     7
370
    25
100
AcDbCircle
 10
-482.0
 20
-132.5
 30
0.0
 40
2.999999999998778
100
AcDbArc
 50
90.0
 51
270.0
  0
ARC
  5
768
330
1F
100
AcDbEntity
  8
0
  6
Continuous
 62
     7
370
    25
100
AcDbCircle
 10
-7.0
 20
-132.5
 30
0.0
 40
3.000000000000028
100
AcDbArc
 50
90.0
 51
270.0
  0
ARC
  5
769
330
1F
100
AcDbEntity
  8
0
  6
Continuous
 62
     7
370
    25
100
AcDbCircle
 10
2.0
 20
-132.5
 30
0.0
 40
3.000000000000028
100
AcDbArc
 50
270.0
 51
90.0
  0
ARC
  5
76A
330
1F
100
AcDbEntity
  8
0
  6
Continuous
 62
     7
370
    25
100
AcDbCircle
 10
-32.0
 20
-132.5
 30
0.0
 40
3.000000000000028
100
AcDbArc
 50
90.0
 51
270.0
  0
ARC
  5
76B
330
1F
100
AcDbEntity
  8
0
  6
Continuous
 62
     7
370
    25
100
AcDbCircle
 10
-23.0
 20
-132.5
 30
0.0
 40
3.000000000000028
100
AcDbArc
 50
270.0
 51
90.0
  0
ARC
  5
76C
330
1F
100
AcDbEntity
  8
0
  6
Continuous
 62
     7
370
    25
100
AcDbCircle
 10
-57.0
 20
-132.5
 30
0.0
 40
3.000000000000028
100
AcDbArc
 50
90.0
 51
270.0
  0
ARC
  5
76D
330
1F
100
AcDbEntity
  8
0
  6
Continuous
 62
     7
370
    25
100
AcDbCircle
 10
-48.0
 20
-132.5
 30
0.0
 40
3.000000000000028
100
AcDbArc
 50
270.0
 51
90.0
  0
ARC
  5
76E
330
1F
100
AcDbEntity
  8
0
  6
Continuous
 62
     7
370
    25
100
AcDbCircle
 10
-82.0
 20
-132.5
 30
0.0
 40
3.0
100
AcDbArc
 50
90.0
 51
270.0
  0
ARC
  5
76F
330
1F
100
AcDbEntity
  8
0
  6
Continuous
 62
     7
370
    25
100
AcDbCircle
 10
-73.0
 20
-132.5
 30
0.0
 40
3.0
100
AcDbArc
 50
270.0
 51
90.0
  0
ARC
  5
770
330
1F
100
AcDbEntity
  8
0
  6
Continuous
 62
     7
370
    25
100
AcDbCircle
 10
-107.0
 20
-132.5
 30
0.0
 40
2.999999999999972
100
AcDbArc
 50
90.0
 51
270.0
  0
ARC
  5
771
330
1F
100
AcDbEntity
  8
0
  6
Continuous
 62
     7
370
    25
100
AcDbCircle
 10
-98.0
 20
-132.5
 30
0.0
 40
2.999999999999972
100
AcDbArc
 50
270.0
 51
90.0
  0
ARC
  5
772
330
1F
100
AcDbEntity
  8
0
  6
Continuous
 62
     7
370
    25
100
AcDbCircle
 10
-132.0
 20
-132.5
 30
0.0
 40
3.0
100
AcDbArc
 50
90.0
 51
270.0
  0
ARC
  5
773
330
1F
100
AcDbEntity
  8
0
  6
Continuous
 62
     7
370
    25
100
AcDbCircle
 10
-123.0
 20
-132.5
 30
0.0
 40
3.0
100
AcDbArc
 50
270.0
 51
90.0
  0
ARC
  5
774
330
1F
100
AcDbEntity
  8
0
  6
Continuous
 62
     7
370
    25
100
AcDbCircle
 10
-157.0
 20
-132.5
 30
0.0
 40
3.0
100
AcDbArc
 50
90.0
 51
270.0
  0
ARC
  5
775
330
1F
100
AcDbEntity
  8
0
  6
Continuous
 62
     7
370
    25
100
AcDbCircle
 10
-148.0
 20
-132.5
 30
0.0
 40
3.0
100
AcDbArc
 50
270.0
 51
90.0
  0
ARC
  5
776
330
1F
100
AcDbEntity
  8
0
  6
Continuous
 62
     7
370
    25
100
AcDbCircle
 10
-182.0
 20
-132.5
 30
0.0
 40
3.0
100
AcDbArc
 50
90.0
 51
270.0
  0
ARC
  5
777
330
1F
100
AcDbEntity
  8
0
  6
Continuous
 62
     7
370
    25
100
AcDbCircle
 10
-173.0
 20
-132.5
 30
0.0
 40
3.0
100
AcDbArc
 50
270.0
 51
90.0
  0
ARC
  5
778
330
1F
100
AcDbEntity
  8
0
  6
Continuous
 62
     7
370
    25
100
AcDbCircle
 10
-207.0
 20
-132.5
 30
0.0
 40
3.0
100
AcDbArc
 50
90.0
 51
270.0
  0
ARC
  5
779
330
1F
100
AcDbEntity
  8
0
  6
Continuous
 62
     7
370
    25
100
AcDbCircle
 10
-198.0
 20
-132.5
 30
0.0
 40
3.0
100
AcDbArc
 50
270.0
 51
90.0
  0
ARC
  5
77A
330
1F
100
AcDbEntity
  8
0
  6
Continuous
 62
     7
370
    25
100
AcDbCircle
 10
-232.0
 20
-132.5
 30
0.0
 40
3.0
100
AcDbArc
 50
90.0
 51
270.0
  0
ARC
  5
77B
330
1F
100
AcDbEntity
  8
0
  6
Continuous
 62
     7
370
    25
100
AcDbCircle
 10
-223.0
 20
-132.5
 30
0.0
 40
3.0
100
AcDbArc
 50
270.0
 51
90.0
  0
ARC
  5
77C
330
1F
100
AcDbEntity
  8
0
  6
Continuous
 62
     7
370
    25
100
AcDbCircle
 10
-298.0
 20
-412.5
 30
0.0
 40
3.000000000000114
100
AcDbArc
 50
270.0
 51
90.0
  0
ARC
  5
77D
330
1F
100
AcDbEntity
  8
0
  6
Continuous
 62
     7
370
    25
100
AcDbCircle
 10
-307.0
 20
-412.5
 30
0.0
 40
3.000000000000114
100
AcDbArc
 50
90.0
 51
270.0
  0
ARC
  5
77E
330
1F
100
AcDbEntity
  8
0
  6
Continuous
 62
     7
370
    25
100
AcDbCircle
 10
-323.0
 20
-412.5
 30
0.0
 40
3.0
100
AcDbArc
 50
270.0
 51
90.0
  0
ARC
  5
77F
330
1F
100
AcDbEntity
  8
0
  6
Continuous
 62
     7
370
    25
100
AcDbCircle
 10
-332.0
 20
-412.5
 30
0.0
 40
2.999999999999943
100
AcDbArc
 50
90.0
 51
270.0
  0
ARC
  5
780
330
1F
100
AcDbEntity
  8
0
  6
Continuous
 62
     7
370
    25
100
AcDbCircle
 10
-348.0
 20
-412.5
 30
0.0
 40
2.999999999999943
100
AcDbArc
 50
270.0
 51
90.0
  0
ARC
  5
781
330
1F
100
AcDbEntity
  8
0
  6
Continuous
 62
     7
370
    25
100
AcDbCircle
 10
-357.0
 20
-412.5
 30
0.0
 40
2.999999999999773
100
AcDbArc
 50
90.0
 51
270.0
  0
ARC
  5
782
330
1F
100
AcDbEntity
  8
0
  6
Continuous
 62
     7
370
    25
100
AcDbCircle
 10
-373.0
 20
-412.5
 30
0.0
 40
2.999999999999829
100
AcDbArc
 50
270.0
 51
90.0
  0
ARC
  5
783
330
1F
100
AcDbEntity
  8
0
  6
Continuous
 62
     7
370
    25
100
AcDbCircle
 10
-382.0
 20
-412.5
 30
0.0
 40
2.999999999999488
100
AcDbArc
 50
90.0
 51
270.0
  0
ARC
  5
784
330
1F
100
AcDbEntity
  8
0
  6
Continuous
 62
     7
370
    25
100
AcDbCircle
 10
-398.0
 20
-412.5
 30
0.0
 40
2.999999999999716
100
AcDbArc
 50
270.0
 51
90.0
  0
ARC
  5
785
330
1F
100
AcDbEntity
  8
0
  6
Continuous
 62
     7
370
    25
100
AcDbCircle
 10
-407.0
 20
-412.5
 30
0.0
 40
2.999999999999375
100
AcDbArc
 50
90.0
 51
270.0
  0
ARC
  5
786
330
1F
100
AcDbEntity
  8
0
  6
Continuous
 62
     7
370
    25
100
AcDbCircle
 10
-423.0
 20
-412.5
 30
0.0
 40
2.999999999999659
100
AcDbArc
 50
270.0
 51
90.0
  0
ARC
  5
787
330
1F
100
AcDbEntity
  8
0
  6
Continuous
 62
     7
370
    25
100
AcDbCircle
 10
-432.0
 20
-412.5
 30
0.0
 40
2.999999999999204
100
AcDbArc
 50
90.0
 51
270.0
  0
ARC
  5
788
330
1F
100
AcDbEntity
  8
0
  6
Continuous
 62
     7
370
    25
100
AcDbCircle
 10
-448.0
 20
-412.5
 30
0.0
 40
2.999999999999488
100
AcDbArc
 50
270.0
 51
90.0
  0
ARC
  5
789
330
1F
100
AcDbEntity
  8
0
  6
Continuous
 62
     7
370
    25
100
AcDbCircle
 10
-457.0
 20
-412.5
 30
0.0
 40
2.999999999998977
100
AcDbArc
 50
90.0
 51
270.0
  0
ARC
  5
78A
330
1F
100
AcDbEntity
  8
0
  6
Continuous
 62
     7
370
    25
100
AcDbCircle
 10
-473.0
 20
-412.5
 30
0.0
 40
2.999999999999545
100
AcDbArc
 50
270.0
 51
90.0
  0
ARC
  5
78B
330
1F
100
AcDbEntity
  8
0
  6
Continuous
 62
     7
370
    25
100
AcDbCircle
 10
-482.0
 20
-412.5
 30
0.0
 40
2.999999999998806
100
AcDbArc
 50
90.0
 51
270.0
  0
ARC
  5
78C
330
1F
100
AcDbEntity
  8
0
  6
Continuous
 62
     7
370
    25
100
AcDbCircle
 10
-7.0
 20
-412.5
 30
0.0
 40
3.000000000000114
100
AcDbArc
 50
90.0
 51
270.0
  0
ARC
  5
78D
330
1F
100
AcDbEntity
  8
0
  6
Continuous
 62
     7
370
    25
100
AcDbCircle
 10
2.0
 20
-412.5
 30
0.0
 40
3.000000000000114
100
AcDbArc
 50
270.0
 51
90.0
  0
ARC
  5
78E
330
1F
100
AcDbEntity
  8
0
  6
Continuous
 62
     7
370
    25
100
AcDbCircle
 10
-32.0
 20
-412.5
 30
0.0
 40
3.000000000000114
100
AcDbArc
 50
90.0
 51
270.0
  0
ARC
  5
78F
330
1F
100
AcDbEntity
  8
0
  6
Continuous
 62
     7
370
    25
100
AcDbCircle
 10
-23.0
 20
-412.5
 30
0.0
 40
3.000000000000114
100
AcDbArc
 50
270.0
 51
90.0
  0
ARC
  5
790
330
1F
100
AcDbEntity
  8
0
  6
Continuous
 62
     7
370
    25
100
AcDbCircle
 10
-57.0
 20
-412.5
 30
0.0
 40
3.000000000000114
100
AcDbArc
 50
90.0
 51
270.0
  0
ARC
  5
791
330
1F
100
AcDbEntity
  8
0
  6
Continuous
 62
     7
370
    25
100
AcDbCircle
 10
-48.0
 20
-412.5
 30
0.0
 40
3.000000000000114
100
AcDbArc
 50
270.0
 51
90.0
  0
ARC
  5
792
330
1F
100
AcDbEntity
  8
0
  6
Continuous
 62
     7
370
    25
100
AcDbCircle
 10
-82.0
 20
-412.5
 30
0.0
 40
3.000000000000114
100
AcDbArc
 50
90.0
 51
270.0
  0
ARC
  5
793
330
1F
100
AcDbEntity
  8
0
  6
Continuous
 62
     7
370
    25
100
AcDbCircle
 10
-73.0
 20
-412.5
 30
0.0
 40
3.000000000000114
100
AcDbArc
 50
270.0
 51
90.0
  0
ARC
  5
794
330
1F
100
AcDbEntity
  8
0
  6
Continuous
 62
     7
370
    25
100
AcDbCircle
 10
-107.0
 20
-412.5
 30
0.0
 40
3.000000000000114
100
AcDbArc
 50
90.0
 51
270.0
  0
ARC
  5
795
330
1F
100
AcDbEntity
  8
0
  6
Continuous
 62
     7
370
    25
100
AcDbCircle
 10
-98.0
 20
-412.5
 30
0.0
 40
3.000000000000114
100
AcDbArc
 50
270.0
 51
90.0
  0
ARC
  5
796
330
1F
100
AcDbEntity
  8
0
  6
Continuous
 62
     7
370
    25
100
AcDbCircle
 10
-132.0
 20
-412.5
 30
0.0
 40
3.000000000000114
100
AcDbArc
 50
90.0
 51
270.0
  0
ARC
  5
797
330
1F
100
AcDbEntity
  8
0
  6
Continuous
 62
     7
370
    25
100
AcDbCircle
 10
-123.0
 20
-412.5
 30
0.0
 40
3.000000000000114
100
AcDbArc
 50
270.0
 51
90.0
  0
ARC
  5
798
330
1F
100
AcDbEntity
  8
0
  6
Continuous
 62
     7
370
    25
100
AcDbCircle
 10
-157.0
 20
-412.5
 30
0.0
 40
3.000000000000114
100
AcDbArc
 50
90.0
 51
270.0
  0
ARC
  5
799
330
1F
100
AcDbEntity
  8
0
  6
Continuous
 62
     7
370
    25
100
AcDbCircle
 10
-148.0
 20
-412.5
 30
0.0
 40
3.000000000000114
100
AcDbArc
 50
270.0
 51
90.0
  0
ARC
  5
79A
330
1F
100
AcDbEntity
  8
0
  6
Continuous
 62
     7
370
    25
100
AcDbCircle
 10
-182.0
 20
-412.5
 30
0.0
 40
3.000000000000114
100
AcDbArc
 50
90.0
 51
270.0
  0
ARC
  5
79B
330
1F
100
AcDbEntity
  8
0
  6
Continuous
 62
     7
370
    25
100
AcDbCircle
 10
-173.0
 20
-412.5
 30
0.0
 40
3.000000000000114
100
AcDbArc
 50
270.0
 51
90.0
  0
ARC
  5
79C
330
1F
100
AcDbEntity
  8
0
  6
Continuous
 62
     7
370
    25
100
AcDbCircle
 10
-207.0
 20
-412.5
 30
0.0
 40
3.000000000000114
100
AcDbArc
 50
90.0
 51
270.0
  0
ARC
  5
79D
330
1F
100
AcDbEntity
  8
0
  6
Continuous
 62
     7
370
    25
100
AcDbCircle
 10
-198.0
 20
-412.5
 30
0.0
 40
3.000000000000114
100
AcDbArc
 50
270.0
 51
90.0
  0
ARC
  5
79E
330
1F
100
AcDbEntity
  8
0
  6
Continuous
 62
     7
370
    25
100
AcDbCircle
 10
-232.0
 20
-412.5
 30
0.0
 40
3.000000000000114
100
AcDbArc
 50
90.0
 51
270.0
  0
ARC
  5
79F
330
1F
100
AcDbEntity
  8
0
  6
Continuous
 62
     7
370
    25
100
AcDbCircle
 10
-223.0
 20
-412.5
 30
0.0
 40
3.000000000000114
100
AcDbArc
 50
270.0
 51
90.0
  0
ARC
  5
7A0
330
1F
100
AcDbEntity
  8
0
  6
Continuous
 62
     7
370
    25
100
AcDbCircle
 10
-257.0
 20
-412.5
 30
0.0
 40
3.000000000000114
100
AcDbArc
 50
90.0
 51
270.0
  0
ARC
  5
7A1
330
1F
100
AcDbEntity
  8
0
  6
Continuous
 62
     7
370
    25
100
AcDbCircle
 10
-248.0
 20
-412.5
 30
0.0
 40
3.000000000000114
100
AcDbArc
 50
270.0
 51
90.0
  0
ARC
  5
7A2
330
1F
100
AcDbEntity
  8
0
  6
Continuous
 62
     7
370
    25
100
AcDbCircle
 10
-282.0
 20
-412.5
 30
0.0
 40
3.000000000000114
100
AcDbArc
 50
90.0
 51
270.0
  0
ARC
  5
7A3
330
1F
100
AcDbEntity
  8
0
  6
Continuous
 62
     7
370
    25
100
AcDbCircle
 10
-273.0
 20
-412.5
 30
0.0
 40
3.000000000000114
100
AcDbArc
 50
270.0
 51
90.0
  0
ARC
  5
7A4
330
1F
100
AcDbEntity
  8
0
  6
Continuous
 62
     7
370
    25
100
AcDbCircle
 10
-298.0
 20
67.5
 30
0.0
 40
3.000000000000028
100
AcDbArc
 50
270.0
 51
90.0
  0
ARC
  5
7A5
330
1F
100
AcDbEntity
  8
0
  6
Continuous
 62
     7
370
    25
100
AcDbCircle
 10
-307.0
 20
67.5
 30
0.0
 40
3.000000000000028
100
AcDbArc
 50
90.0
 51
270.0
  0
ARC
  5
7A6
330
1F
100
AcDbEntity
  8
0
  6
Continuous
 62
     7
370
    25
100
AcDbCircle
 10
-457.0
 20
67.5
 30
0.0
 40
2.999999999998948
100
AcDbArc
 50
90.0
 51
270.0
  0
ARC
  5
7A7
330
1F
100
AcDbEntity
  8
0
  6
Continuous
 62
     7
370
    25
100
AcDbCircle
 10
-473.0
 20
67.5
 30
0.0
 40
2.999999999999403
100
AcDbArc
 50
270.0
 51
90.0
  0
ARC
  5
7A8
330
1F
100
AcDbEntity
  8
0
  6
Continuous
 62
     7
370
    25
100
AcDbCircle
 10
-482.0
 20
67.5
 30
0.0
 40
2.999999999998792
100
AcDbArc
 50
90.0
 51
270.0
  0
ARC
  5
7A9
330
1F
100
AcDbEntity
  8
0
  6
Continuous
 62
     7
370
    25
100
AcDbCircle
 10
-7.0
 20
67.5
 30
0.0
 40
3.000000000000014
100
AcDbArc
 50
90.0
 51
270.0
  0
ARC
  5
7AA
330
1F
100
AcDbEntity
  8
0
  6
Continuous
 62
     7
370
    25
100
AcDbCircle
 10
2.0
 20
67.5
 30
0.0
 40
3.000000000000014
100
AcDbArc
 50
270.0
 51
90.0
  0
ARC
  5
7AB
330
1F
100
AcDbEntity
  8
0
  6
Continuous
 62
     7
370
    25
100
AcDbCircle
 10
-32.0
 20
67.5
 30
0.0
 40
3.000000000000014
100
AcDbArc
 50
90.0
 51
270.0
  0
ARC
  5
7AC
330
1F
100
AcDbEntity
  8
0
  6
Continuous
 62
     7
370
    25
100
AcDbCircle
 10
-23.0
 20
67.5
 30
0.0
 40
3.000000000000014
100
AcDbArc
 50
270.0
 51
90.0
  0
ARC
  5
7AD
330
1F
100
AcDbEntity
  8
0
  6
Continuous
 62
     7
370
    25
100
AcDbCircle
 10
-257.0
 20
67.5
 30
0.0
 40
3.000000000000028
100
AcDbArc
 50
90.0
 51
270.0
  0
ARC
  5
7AE
330
1F
100
AcDbEntity
  8
0
  6
Continuous
 62
     7
370
    25
100
AcDbCircle
 10
-248.0
 20
67.5
 30
0.0
 40
3.000000000000028
100
AcDbArc
 50
270.0
 51
90.0
  0
ARC
  5
7AF
330
1F
100
AcDbEntity
  8
0
  6
Continuous
 62
     7
370
    25
100
AcDbCircle
 10
-282.0
 20
67.5
 30
0.0
 40
3.000000000000028
100
AcDbArc
 50
90.0
 51
270.0
  0
ARC
  5
7B0
330
1F
100
AcDbEntity
  8
0
  6
Continuous
 62
     7
370
    25
100
AcDbCircle
 10
-273.0
 20
67.5
 30
0.0
 40
3.000000000000028
100
AcDbArc
 50
270.0
 51
90.0
  0
ARC
  5
7B1
330
1F
100
AcDbEntity
  8
0
  6
Continuous
 62
     7
370
    25
100
AcDbCircle
 10
-480.0
 20
241.0
 30
0.0
 40
2.500000000000112
100
AcDbArc
 50
330.4063506049
 51
209.4562697047
  0
ARC
  5
7B2
330
1F
100
AcDbEntity
  8
0
  6
Continuous
 62
     7
370
    25
100
AcDbCircle
 10
-480.0
 20
85.0
 30
0.0
 40
2.500000000000114
100
AcDbArc
 50
0.0
 51
180.0
  0
ARC
  5
7B3
330
1F
100
AcDbEntity
  8
0
  6
Continuous
 62
     7
370
    25
100
AcDbCircle
 10
-480.0
 20
49.0
 30
0.0
 40
2.500000000000053
100
AcDbArc
 50
156.4218215218
 51
23.5781784782
  0
ARC
  5
7B4
330
1F
100
AcDbEntity
  8
0
  6
Continuous
 62
     7
370
    25
100
AcDbCircle
 10
-480.0
 20
-131.0
 30
0.0
 40
2.500000000000045
100
AcDbArc
 50
143.1301023542
 51
36.8698976458
  0
ARC
  5
7B5
330
1F
100
AcDbEntity
  8
0
  6
Continuous
 62
     7
370
    25
100
AcDbCircle
 10
-480.0
 20
-263.0
 30
0.0
 40
2.500000000000114
100
AcDbArc
 50
306.8698976459
 51
233.1301023541
  0
ARC
  5
7B6
330
1F
100
AcDbEntity
  8
0
  6
Continuous
 62
     7
370
    25
100
AcDbCircle
 10
-480.0
 20
-287.0
 30
0.0
 40
2.500000000000716
100
AcDbArc
 50
36.8698976459
 51
143.1301023541
  0
ARC
  5
7B7
330
1F
100
AcDbEntity
  8
0
  6
Continuous
 62
     7
370
    25
100
AcDbCircle
 10
-480.0
 20
-299.0
 30
0.0
 40
2.500000000000163
100
AcDbArc
 50
203.5781784782
 51
336.4218215218
  0
ARC
  5
7B8
330
1F
100
AcDbEntity
  8
0
  6
Continuous
 62
     7
370
    25
100
AcDbCircle
 10
-480.0
 20
-395.0
 30
0.0
 40
2.500000000000398
100
AcDbArc
 50
0.0
 51
180.0
  0
ARC
  5
7B9
330
1F
100
AcDbEntity
  8
0
  6
Continuous
 62
     7
370
    25
100
AcDbCircle
 10
-480.0
 20
-431.0
 30
0.0
 40
2.499999999999952
100
AcDbArc
 50
156.4218215218
 51
23.5781784782
  0
ARC
  5
7BA
330
1F
100
AcDbEntity
  8
0
  6
Continuous
 62
     7
370
    25
100
AcDbCircle
 10
0.0
 20
241.0
 30
0.0
 40
2.500000000000067
100
AcDbArc
 50
330.543730805
 51
209.5936493951
  0
ARC
  5
7BB
330
1F
100
AcDbEntity
  8
0
  6
Continuous
 62
     7
370
    25
100
AcDbCircle
 10
0.0
 20
85.0
 30
0.0
 40
2.500000000000085
100
AcDbArc
 50
0.0
 51
180.0
  0
ARC
  5
7BC
330
1F
100
AcDbEntity
  8
0
  6
Continuous
 62
     7
370
    25
100
AcDbCircle
 10
0.0
 20
49.0
 30
0.0
 40
2.500000000000021
100
AcDbArc
 50
156.4218215218
 51
23.5781784782
  0
ARC
  5
7BD
330
1F
100
AcDbEntity
  8
0
  6
Continuous
 62
     7
370
    25
100
AcDbCircle
 10
0.0
 20
-131.0
 30
0.0
 40
2.500000000000024
100
AcDbArc
 50
143.1301023542
 51
36.8698976458
  0
ARC
  5
7BE
330
1F
100
AcDbEntity
  8
0
  6
Continuous
 62
     7
370
    25
100
AcDbCircle
 10
0.0
 20
-263.0
 30
0.0
 40
2.500000000000042
100
AcDbArc
 50
306.8698976458
 51
233.1301023542
  0
ARC
  5
7BF
330
1F
100
AcDbEntity
  8
0
  6
Continuous
 62
     7
370
    25
100
AcDbCircle
 10
0.0
 20
-287.0
 30
0.0
 40
2.500000000000152
100
AcDbArc
 50
36.8698976458
 51
143.1301023542
  0
ARC
  5
7C0
330
1F
100
AcDbEntity
  8
0
  6
Continuous
 62
     7
370
    25
100
AcDbCircle
 10
0.0
 20
-299.0
 30
0.0
 40
2.500000000000062
100
AcDbArc
 50
203.5781784782
 51
336.4218215218
  0
ARC
  5
7C1
330
1F
100
AcDbEntity
  8
0
  6
Continuous
 62
     7
370
    25
100
AcDbCircle
 10
0.0
 20
-395.0
 30
0.0
 40
2.500000000000171
100
AcDbArc
 50
0.0
 51
180.0
  0
ARC
  5
7C2
330
1F
100
AcDbEntity
  8
0
  6
Continuous
 62
     7
370
    25
100
AcDbCircle
 10
0.0
 20
-431.0
 30
0.0
 40
2.500000000000007
100
AcDbArc
 50
156.4218215218
 51
23.5781784782
  0
MTEXT
  5
7C4
330
1F
100
AcDbEntity
  8
0
  6
Continuous
 62
     7
100
AcDbMText
 10
-490.0
 20
-451.0195663917
 30
0.0
 40
4.83362
 41
0.0
 71
     1
 72
     1
  1
SOLIDWORKS Educational Product.
  7
SLDTEXTSTYLE0
 73
     1
 44
1.0
  0
MTEXT
  5
7C5
330
1F
100
AcDbEntity
  8
0
  6
Continuous
 62
     7
100
AcDbMText
 10
-490.0
 20
-458.2699963917
 30
0.0
 40
4.83362
 41
0.0
 71
     1
 72
     1
  1
For Instructional Use Only.
  7
SLDTEXTSTYLE0
 73
     1
 44
1.0
  0
ENDSEC
  0
SECTION
  2
OBJECTS
  0
DICTIONARY
  5
C
330
0
100
AcDbDictionary
281
     1
  3
ACAD_GROUP
350
D
  3
ACAD_LAYOUT
350
1A
  3
ACAD_MLINESTYLE
350
17
  3
ACAD_PLOTSETTINGS
350
19
  3
ACAD_PLOTSTYLENAME
350
E
  3
ACAD_SCALELIST
350
47
  3
DWGPROPS
350
7C6
  0
DICTIONARY
  5
D
102
{ACAD_REACTORS
330
C
102
}
330
C
100
AcDbDictionary
281
     1
  0
DICTIONARY
  5
1A
102
{ACAD_REACTORS
330
C
102
}
330
C
100
AcDbDictionary
281
     1
  3
Layout1
350
1E
  3
Layout2
350
26
  3
Model
350
22
  0
DICTIONARY
  5
17
102
{ACAD_REACTORS
330
C
102
}
330
C
100
AcDbDictionary
281
     1
  3
Standard
350
18
  0
DICTIONARY
  5
19
102
{ACAD_REACTORS
330
C
102
}
330
C
100
AcDbDictionary
281
     1
  0
ACDBDICTIONARYWDFLT
  5
E
102
{ACAD_REACTORS
330
C
102
}
330
C
100
AcDbDictionary
281
     1
  3
Normal
350
F
100
AcDbDictionaryWithDefault
340
F
  0
DICTIONARY
  5
47
102
{ACAD_REACTORS
330
C
102
}
330
C
100
AcDbDictionary
281
     1
  3
A0
350
48
  3
A1
350
49
  3
A2
350
4A
  3
A3
350
4B
  3
A4
350
4C
  3
A5
350
4D
  3
A6
350
4E
  3
A7
350
4F
  3
A8
350
50
  3
A9
350
51
  3
B0
350
52
  3
B1
350
53
  3
B2
350
54
  3
B3
350
55
  3
B4
350
56
  3
B5
350
57
  3
B6
350
58
  0
XRECORD
  5
7C6
102
{ACAD_REACTORS
330
C
102
}
330
C
100
AcDbXrecord
280
     1
  1
DWGPROPS COOKIE
  2

  3

  4

  6

  7

  8
Janne
  9

300
=
301
=
302
=
303
=
304
=
305
=
306
=
307
=
308
=
309
=
 40
0.0
 41
2461139.311944167
 42
2461139.311974306
  1

 90
        0
  0
LAYOUT
  5
1E
102
{ACAD_REACTORS
330
1A
102
}
330
1A
100
AcDbPlotSettings
  1

  2
none_device
  4

  6

 40
0.0
 41
0.0
 42
0.0
 43
0.0
 44
0.0
 45
0.0
 46
0.0
 47
0.0
 48
0.0
 49
0.0
140
0.0
141
0.0
142
1.0
143
1.0
 70
   688
 72
     1
 73
     0
 74
     5
  7

 75
    16
147
1.0
148
0.0
149
0.0
100
AcDbLayout
  1
Layout1
 70
     1
 71
     1
 10
0.0
 20
0.0
 11
420.0
 21
297.0
 12
0.0
 22
0.0
 32
0.0
 14
1.0000000000E+20
 24
1.0000000000E+20
 34
1.0000000000E+20
 15
-1.0000000000E+20
 25
-1.0000000000E+20
 35
-1.0000000000E+20
146
0.0
 13
0.0
 23
0.0
 33
0.0
 16
1.0
 26
0.0
 36
0.0
 17
0.0
 27
1.0
 37
0.0
 76
     0
330
1B
  0
LAYOUT
  5
26
102
{ACAD_REACTORS
330
1A
102
}
330
1A
100
AcDbPlotSettings
  1

  2
none_device
  4

  6

 40
0.0
 41
0.0
 42
0.0
 43
0.0
 44
0.0
 45
0.0
 46
0.0
 47
0.0
 48
0.0
 49
0.0
140
0.0
141
0.0
142
1.0
143
1.0
 70
   688
 72
     1
 73
     0
 74
     5
  7

 75
    16
147
1.0
148
0.0
149
0.0
100
AcDbLayout
  1
Layout2
 70
     1
 71
     2
 10
0.0
 20
0.0
 11
0.0
 21
0.0
 12
0.0
 22
0.0
 32
0.0
 14
0.0
 24
0.0
 34
0.0
 15
0.0
 25
0.0
 35
0.0
146
0.0
 13
0.0
 23
0.0
 33
0.0
 16
1.0
 26
0.0
 36
0.0
 17
0.0
 27
1.0
 37
0.0
 76
     0
330
23
  0
LAYOUT
  5
22
102
{ACAD_REACTORS
330
1A
102
}
330
1A
100
AcDbPlotSettings
  1

  2
none_device
  4
ANSI_A_(11.00_x_8.50_Inches)
  6

 40
6.35
 41
19.05
 42
6.35000508
 43
19.05000254
 44
279.4
 45
215.9
 46
190.34759746
 47
88.89999873
 48
0.0
 49
0.0
140
0.0
141
0.0
142
0.00935
143
1.0
 70
  1696
 72
     0
 73
     0
 74
     0
  7

 75
     0
147
0.0179189148
148
-1300.4909072572
149
0.0
100
AcDbLayout
  1
Model
 70
     1
 71
     0
 10
0.0
 20
0.0
 11
420.0
 21
297.0
 12
0.0
 22
0.0
 32
0.0
 14
-490.0
 24
-450.0
 34
0.0
 15
10.0
 25
450.0
 35
0.0
146
0.0
 13
0.0
 23
0.0
 33
0.0
 16
1.0
 26
0.0
 36
0.0
 17
0.0
 27
1.0
 37
0.0
 76
     0
330
1F
331
29
  0
MLINESTYLE
  5
18
102
{ACAD_REACTORS
330
17
102
}
330
17
100
AcDbMlineStyle
  2
Standard
 70
     0
  3

 62
   256
 51
90.0
 52
90.0
 71
     2
 49
0.5
 62
   256
  6
BYLAYER
 49
-0.5
 62
   256
  6
BYLAYER
  0
ACDBPLACEHOLDER
  5
F
102
{ACAD_REACTORS
330
E
102
}
330
E
  0
SCALE
  5
48
102
{ACAD_REACTORS
330
47
102
}
330
47
100
AcDbScale
 70
     0
300
1:1
140
1.0
141
1.0
290
     1
  0
SCALE
  5
49
102
{ACAD_REACTORS
330
47
102
}
330
47
100
AcDbScale
 70
     0
300
1:2
140
1.0
141
2.0
290
     0
  0
SCALE
  5
4A
102
{ACAD_REACTORS
330
47
102
}
330
47
100
AcDbScale
 70
     0
300
1:4
140
1.0
141
4.0
290
     0
  0
SCALE
  5
4B
102
{ACAD_REACTORS
330
47
102
}
330
47
100
AcDbScale
 70
     0
300
1:5
140
1.0
141
5.0
290
     0
  0
SCALE
  5
4C
102
{ACAD_REACTORS
330
47
102
}
330
47
100
AcDbScale
 70
     0
300
1:8
140
1.0
141
8.0
290
     0
  0
SCALE
  5
4D
102
{ACAD_REACTORS
330
47
102
}
330
47
100
AcDbScale
 70
     0
300
1:10
140
1.0
141
10.0
290
     0
  0
SCALE
  5
4E
102
{ACAD_REACTORS
330
47
102
}
330
47
100
AcDbScale
 70
     0
300
1:16
140
1.0
141
16.0
290
     0
  0
SCALE
  5
4F
102
{ACAD_REACTORS
330
47
102
}
330
47
100
AcDbScale
 70
     0
300
1:20
140
1.0
141
20.0
290
     0
  0
SCALE
  5
50
102
{ACAD_REACTORS
330
47
102
}
330
47
100
AcDbScale
 70
     0
300
1:30
140
1.0
141
30.0
290
     0
  0
SCALE
  5
51
102
{ACAD_REACTORS
330
47
102
}
330
47
100
AcDbScale
 70
     0
300
1:40
140
1.0
141
40.0
290
     0
  0
SCALE
  5
52
102
{ACAD_REACTORS
330
47
102
}
330
47
100
AcDbScale
 70
     0
300
1:50
140
1.0
141
50.0
290
     0
  0
SCALE
  5
53
102
{ACAD_REACTORS
330
47
102
}
330
47
100
AcDbScale
 70
     0
300
1:100
140
1.0
141
100.0
290
     0
  0
SCALE
  5
54
102
{ACAD_REACTORS
330
47
102
}
330
47
100
AcDbScale
 70
     0
300
2:1
140
2.0
141
1.0
290
     0
  0
SCALE
  5
55
102
{ACAD_REACTORS
330
47
102
}
330
47
100
AcDbScale
 70
     0
300
4:1
140
4.0
141
1.0
290
     0
  0
SCALE
  5
56
102
{ACAD_REACTORS
330
47
102
}
330
47
100
AcDbScale
 70
     0
300
8:1
140
8.0
141
1.0
290
     0
  0
SCALE
  5
57
102
{ACAD_REACTORS
330
47
102
}
330
47
100
AcDbScale
 70
     0
300
10:1
140
10.0
141
1.0
290
     0
  0
SCALE
  5
58
102
{ACAD_REACTORS
330
47
102
}
330
47
100
AcDbScale
 70
     0
300
100:1
140
100.0
141
1.0
290
     0
  0
ENDSEC
  0
EOF
