  0
SECTION
  2
HEADER
  9
$ACADVER
  1
AC1009
  9
$INSBASE
 10
0.0
 20
0.0
 30
0.0
  9
$EXTMIN
 10
0.0
 20
0.0
 30
0.0
  9
$EXTMAX
 10
285.000000
 20
200.000000
 30
0.0
  9
$LIMMIN
 10
0.0
 20
0.0
  9
$LIMMAX
 10
285.000000
 20
200.000000
  0
ENDSEC
  0
SECTION
  2
TABLES
  0
TABLE
  2
LTYPE
 70
12
  0
LTYPE
  2
L000000020000C40000
 70
64
  3
Solid line
 72
65
 73
0
 40
0.000000
  0
LTYPE
  2
CONTINUOUS
 70
64
  3
Solid line
 72
65
 73
0
 40
0.000000
  0
LTYPE
  2
L000000000000000000
 70
64
  3
Solid line
 72
65
 73
0
 40
0.000000
  0
LTYPE
  2
L000000010000C40000
 70
64
  3
Solid line
 72
65
 73
0
 40
0.000000
  0
LTYPE
  2
L0000000100000000C4
 70
64
  3
Solid line
 72
65
 73
0
 40
0.000000
  0
LTYPE
  2
L000000020000C4C400
 70
64
  3
Solid line
 72
65
 73
0
 40
0.000000
  0
LTYPE
  2
L014100020032000000
 70
64
  3
- - - - - - - -
 72
65
 73
2
 40
0.500000
 49
0.300000
 49
-0.200000
  0
LTYPE
  2
L000000020000008000
 70
64
  3
Solid line
 72
65
 73
0
 40
0.000000
  0
LTYPE
  2
L000000000000FFFFFF
 70
64
  3
Solid line
 72
65
 73
0
 40
0.000000
  0
LTYPE
  2
L00000002000000C400
 70
64
  3
Solid line
 72
65
 73
0
 40
0.000000
  0
LTYPE
  2
L000000010000FF00FF
 70
64
  3
Solid line
 72
65
 73
0
 40
0.000000
  0
LTYPE
  2
L0000000200000000C4
 70
64
  3
Solid line
 72
65
 73
0
 40
0.000000
  0
ENDTAB
  0
TABLE
  2
LAYER
 70
8
  0
LAYER
  2
0
 70
64
 62
7
  6
CONTINUOUS
  0
LAYER
  2
1
 70
64
 62
7
  6
CONTINUOUS
  0
LAYER
  2
2
 70
64
 62
7
  6
CONTINUOUS
  0
LAYER
  2
3
 70
64
 62
-7
  6
CONTINUOUS
  0
LAYER
  2
4
 70
64
 62
7
  6
CONTINUOUS
  0
LAYER
  2
5
 70
64
 62
7
  6
CONTINUOUS
  0
LAYER
  2
6
 70
64
 62
7
  6
CONTINUOUS
  0
LAYER
  2
7
 70
64
 62
-7
  6
CONTINUOUS
  0
LAYER
  2
8
 70
64
 62
7
  6
CONTINUOUS
  0
LAYER
  2
9
 70
64
 62
7
  6
CONTINUOUS
  0
LAYER
  2
10
 70
64
 62
-7
  6
CONTINUOUS
  0
LAYER
  2
11
 70
64
 62
-7
  6
CONTINUOUS
  0
LAYER
  2
12
 70
64
 62
7
  6
CONTINUOUS
  0
LAYER
  2
13
 70
64
 62
7
  6
CONTINUOUS
  0
LAYER
  2
14
 70
64
 62
7
  6
CONTINUOUS
  0
LAYER
  2
15
 70
64
 62
-7
  6
CONTINUOUS
  0
LAYER
  2
16
 70
64
 62
7
  6
CONTINUOUS
  0
LAYER
  2
17
 70
64
 62
7
  6
CONTINUOUS
  0
LAYER
  2
18
 70
64
 62
7
  6
CONTINUOUS
  0
LAYER
  2
19
 70
64
 62
7
  6
CONTINUOUS
  0
LAYER
  2
20
 70
64
 62
-7
  6
CONTINUOUS
  0
LAYER
  2
21
 70
64
 62
-7
  6
CONTINUOUS
  0
LAYER
  2
22
 70
64
 62
-7
  6
CONTINUOUS
  0
LAYER
  2
23
 70
64
 62
-7
  6
CONTINUOUS
  0
LAYER
  2
24
 70
64
 62
7
  6
CONTINUOUS
  0
LAYER
  2
25
 70
64
 62
7
  6
CONTINUOUS
  0
LAYER
  2
26
 70
64
 62
7
  6
CONTINUOUS
  0
LAYER
  2
27
 70
64
 62
7
  6
CONTINUOUS
  0
LAYER
  2
28
 70
64
 62
7
  6
CONTINUOUS
  0
LAYER
  2
29
 70
64
 62
-7
  6
CONTINUOUS
  0
LAYER
  2
30
 70
64
 62
-7
  6
CONTINUOUS
  0
LAYER
  2
31
 70
64
 62
7
  6
CONTINUOUS
  0
LAYER
  2
32
 70
64
 62
7
  6
CONTINUOUS
  0
LAYER
  2
33
 70
64
 62
7
  6
CONTINUOUS
  0
LAYER
  2
34
 70
64
 62
7
  6
CONTINUOUS
  0
LAYER
  2
35
 70
64
 62
7
  6
CONTINUOUS
  0
LAYER
  2
36
 70
64
 62
7
  6
CONTINUOUS
  0
LAYER
  2
37
 70
64
 62
7
  6
CONTINUOUS
  0
LAYER
  2
38
 70
64
 62
-7
  6
CONTINUOUS
  0
LAYER
  2
39
 70
64
 62
-7
  6
CONTINUOUS
  0
LAYER
  2
40
 70
64
 62
7
  6
CONTINUOUS
  0
LAYER
  2
41
 70
64
 62
7
  6
CONTINUOUS
  0
LAYER
  2
42
 70
64
 62
7
  6
CONTINUOUS
  0
LAYER
  2
43
 70
64
 62
-7
  6
CONTINUOUS
  0
LAYER
  2
44
 70
64
 62
7
  6
CONTINUOUS
  0
LAYER
  2
45
 70
64
 62
7
  6
CONTINUOUS
  0
LAYER
  2
46
 70
64
 62
7
  6
CONTINUOUS
  0
LAYER
  2
47
 70
64
 62
-7
  6
CONTINUOUS
  0
LAYER
  2
48
 70
64
 62
-7
  6
CONTINUOUS
  0
LAYER
  2
49
 70
64
 62
-7
  6
CONTINUOUS
  0
LAYER
  2
50
 70
64
 62
-7
  6
CONTINUOUS
  0
LAYER
  2
51
 70
64
 62
-7
  6
CONTINUOUS
  0
LAYER
  2
52
 70
64
 62
-7
  6
CONTINUOUS
  0
LAYER
  2
53
 70
64
 62
-7
  6
CONTINUOUS
  0
LAYER
  2
54
 70
64
 62
-7
  6
CONTINUOUS
  0
LAYER
  2
55
 70
64
 62
-7
  6
CONTINUOUS
  0
LAYER
  2
56
 70
64
 62
7
  6
CONTINUOUS
  0
LAYER
  2
57
 70
64
 62
-7
  6
CONTINUOUS
  0
LAYER
  2
58
 70
64
 62
7
  6
CONTINUOUS
  0
LAYER
  2
59
 70
64
 62
-7
  6
CONTINUOUS
  0
LAYER
  2
60
 70
64
 62
-7
  6
CONTINUOUS
  0
LAYER
  2
61
 70
64
 62
7
  6
CONTINUOUS
  0
LAYER
  2
62
 70
64
 62
7
  6
CONTINUOUS
  0
LAYER
  2
63
 70
64
 62
-7
  6
CONTINUOUS
  0
LAYER
  2
64
 70
64
 62
-7
  6
CONTINUOUS
  0
LAYER
  2
65
 70
64
 62
7
  6
CONTINUOUS
  0
LAYER
  2
66
 70
64
 62
7
  6
CONTINUOUS
  0
LAYER
  2
67
 70
64
 62
7
  6
CONTINUOUS
  0
LAYER
  2
68
 70
64
 62
7
  6
CONTINUOUS
  0
LAYER
  2
69
 70
64
 62
7
  6
CONTINUOUS
  0
LAYER
  2
70
 70
64
 62
7
  6
CONTINUOUS
  0
LAYER
  2
71
 70
64
 62
7
  6
CONTINUOUS
  0
LAYER
  2
72
 70
64
 62
7
  6
CONTINUOUS
  0
LAYER
  2
73
 70
64
 62
7
  6
CONTINUOUS
  0
LAYER
  2
74
 70
64
 62
7
  6
CONTINUOUS
  0
LAYER
  2
75
 70
64
 62
7
  6
CONTINUOUS
  0
LAYER
  2
76
 70
64
 62
7
  6
CONTINUOUS
  0
LAYER
  2
77
 70
64
 62
7
  6
CONTINUOUS
  0
LAYER
  2
78
 70
64
 62
7
  6
CONTINUOUS
  0
LAYER
  2
79
 70
64
 62
7
  6
CONTINUOUS
  0
LAYER
  2
80
 70
64
 62
7
  6
CONTINUOUS
  0
LAYER
  2
81
 70
64
 62
7
  6
CONTINUOUS
  0
LAYER
  2
82
 70
64
 62
7
  6
CONTINUOUS
  0
LAYER
  2
83
 70
64
 62
-7
  6
CONTINUOUS
  0
LAYER
  2
84
 70
64
 62
-7
  6
CONTINUOUS
  0
LAYER
  2
85
 70
64
 62
-7
  6
CONTINUOUS
  0
LAYER
  2
86
 70
64
 62
-7
  6
CONTINUOUS
  0
LAYER
  2
87
 70
64
 62
-7
  6
CONTINUOUS
  0
LAYER
  2
88
 70
64
 62
-7
  6
CONTINUOUS
  0
LAYER
  2
89
 70
64
 62
-7
  6
CONTINUOUS
  0
LAYER
  2
90
 70
64
 62
-7
  6
CONTINUOUS
  0
LAYER
  2
91
 70
64
 62
-7
  6
CONTINUOUS
  0
LAYER
  2
92
 70
64
 62
7
  6
CONTINUOUS
  0
LAYER
  2
93
 70
64
 62
-7
  6
CONTINUOUS
  0
LAYER
  2
94
 70
64
 62
-7
  6
CONTINUOUS
  0
LAYER
  2
95
 70
64
 62
7
  6
CONTINUOUS
  0
LAYER
  2
96
 70
64
 62
7
  6
CONTINUOUS
  0
LAYER
  2
97
 70
64
 62
7
  6
CONTINUOUS
  0
LAYER
  2
98
 70
64
 62
7
  6
CONTINUOUS
  0
LAYER
  2
99
 70
64
 62
7
  6
CONTINUOUS
  0
LAYER
  2
100
 70
64
 62
7
  6
CONTINUOUS
  0
LAYER
  2
101
 70
64
 62
7
  6
CONTINUOUS
  0
LAYER
  2
102
 70
64
 62
7
  6
CONTINUOUS
  0
LAYER
  2
103
 70
64
 62
7
  6
CONTINUOUS
  0
LAYER
  2
104
 70
64
 62
7
  6
CONTINUOUS
  0
LAYER
  2
105
 70
64
 62
7
  6
CONTINUOUS
  0
LAYER
  2
106
 70
64
 62
7
  6
CONTINUOUS
  0
LAYER
  2
107
 70
64
 62
7
  6
CONTINUOUS
  0
LAYER
  2
108
 70
64
 62
7
  6
CONTINUOUS
  0
LAYER
  2
109
 70
64
 62
7
  6
CONTINUOUS
  0
LAYER
  2
110
 70
64
 62
-7
  6
CONTINUOUS
  0
LAYER
  2
111
 70
64
 62
-7
  6
CONTINUOUS
  0
LAYER
  2
112
 70
64
 62
-7
  6
CONTINUOUS
  0
LAYER
  2
113
 70
64
 62
-7
  6
CONTINUOUS
  0
LAYER
  2
114
 70
64
 62
-7
  6
CONTINUOUS
  0
LAYER
  2
115
 70
64
 62
-7
  6
CONTINUOUS
  0
LAYER
  2
116
 70
64
 62
-7
  6
CONTINUOUS
  0
LAYER
  2
117
 70
64
 62
-7
  6
CONTINUOUS
  0
LAYER
  2
118
 70
64
 62
-7
  6
CONTINUOUS
  0
LAYER
  2
119
 70
64
 62
-7
  6
CONTINUOUS
  0
LAYER
  2
120
 70
64
 62
-7
  6
CONTINUOUS
  0
LAYER
  2
121
 70
64
 62
-7
  6
CONTINUOUS
  0
LAYER
  2
122
 70
64
 62
-7
  6
CONTINUOUS
  0
LAYER
  2
123
 70
64
 62
-7
  6
CONTINUOUS
  0
LAYER
  2
124
 70
64
 62
-7
  6
CONTINUOUS
  0
LAYER
  2
125
 70
64
 62
-7
  6
CONTINUOUS
  0
LAYER
  2
126
 70
64
 62
-7
  6
CONTINUOUS
  0
LAYER
  2
127
 70
64
 62
-7
  6
CONTINUOUS
  0
LAYER
  2
128
 70
64
 62
7
  6
CONTINUOUS
  0
LAYER
  2
129
 70
64
 62
7
  6
CONTINUOUS
  0
LAYER
  2
130
 70
64
 62
7
  6
CONTINUOUS
  0
LAYER
  2
131
 70
64
 62
7
  6
CONTINUOUS
  0
LAYER
  2
132
 70
64
 62
7
  6
CONTINUOUS
  0
LAYER
  2
133
 70
64
 62
7
  6
CONTINUOUS
  0
LAYER
  2
134
 70
64
 62
7
  6
CONTINUOUS
  0
LAYER
  2
135
 70
64
 62
7
  6
CONTINUOUS
  0
LAYER
  2
136
 70
64
 62
7
  6
CONTINUOUS
  0
LAYER
  2
137
 70
64
 62
7
  6
CONTINUOUS
  0
LAYER
  2
138
 70
64
 62
7
  6
CONTINUOUS
  0
LAYER
  2
139
 70
64
 62
7
  6
CONTINUOUS
  0
LAYER
  2
140
 70
64
 62
7
  6
CONTINUOUS
  0
LAYER
  2
141
 70
64
 62
7
  6
CONTINUOUS
  0
LAYER
  2
142
 70
64
 62
7
  6
CONTINUOUS
  0
LAYER
  2
143
 70
64
 62
7
  6
CONTINUOUS
  0
LAYER
  2
144
 70
64
 62
7
  6
CONTINUOUS
  0
LAYER
  2
145
 70
64
 62
7
  6
CONTINUOUS
  0
LAYER
  2
146
 70
64
 62
7
  6
CONTINUOUS
  0
LAYER
  2
147
 70
64
 62
7
  6
CONTINUOUS
  0
LAYER
  2
148
 70
64
 62
7
  6
CONTINUOUS
  0
LAYER
  2
149
 70
64
 62
7
  6
CONTINUOUS
  0
LAYER
  2
150
 70
64
 62
7
  6
CONTINUOUS
  0
LAYER
  2
151
 70
64
 62
7
  6
CONTINUOUS
  0
LAYER
  2
152
 70
64
 62
7
  6
CONTINUOUS
  0
LAYER
  2
153
 70
64
 62
7
  6
CONTINUOUS
  0
LAYER
  2
154
 70
64
 62
7
  6
CONTINUOUS
  0
LAYER
  2
155
 70
64
 62
-7
  6
CONTINUOUS
  0
LAYER
  2
156
 70
64
 62
-7
  6
CONTINUOUS
  0
LAYER
  2
157
 70
64
 62
-7
  6
CONTINUOUS
  0
LAYER
  2
158
 70
64
 62
-7
  6
CONTINUOUS
  0
LAYER
  2
159
 70
64
 62
-7
  6
CONTINUOUS
  0
LAYER
  2
160
 70
64
 62
-7
  6
CONTINUOUS
  0
LAYER
  2
161
 70
64
 62
-7
  6
CONTINUOUS
  0
LAYER
  2
162
 70
64
 62
-7
  6
CONTINUOUS
  0
LAYER
  2
163
 70
64
 62
-7
  6
CONTINUOUS
  0
LAYER
  2
164
 70
64
 62
7
  6
CONTINUOUS
  0
LAYER
  2
165
 70
64
 62
7
  6
CONTINUOUS
  0
LAYER
  2
166
 70
64
 62
7
  6
CONTINUOUS
  0
LAYER
  2
167
 70
64
 62
7
  6
CONTINUOUS
  0
LAYER
  2
168
 70
64
 62
7
  6
CONTINUOUS
  0
LAYER
  2
169
 70
64
 62
7
  6
CONTINUOUS
  0
LAYER
  2
170
 70
64
 62
7
  6
CONTINUOUS
  0
LAYER
  2
171
 70
64
 62
7
  6
CONTINUOUS
  0
LAYER
  2
172
 70
64
 62
7
  6
CONTINUOUS
  0
LAYER
  2
173
 70
64
 62
7
  6
CONTINUOUS
  0
LAYER
  2
174
 70
64
 62
7
  6
CONTINUOUS
  0
LAYER
  2
175
 70
64
 62
7
  6
CONTINUOUS
  0
LAYER
  2
176
 70
64
 62
7
  6
CONTINUOUS
  0
LAYER
  2
177
 70
64
 62
7
  6
CONTINUOUS
  0
LAYER
  2
178
 70
64
 62
7
  6
CONTINUOUS
  0
LAYER
  2
179
 70
64
 62
7
  6
CONTINUOUS
  0
LAYER
  2
180
 70
64
 62
7
  6
CONTINUOUS
  0
LAYER
  2
181
 70
64
 62
7
  6
CONTINUOUS
  0
LAYER
  2
182
 70
64
 62
7
  6
CONTINUOUS
  0
LAYER
  2
183
 70
64
 62
7
  6
CONTINUOUS
  0
LAYER
  2
184
 70
64
 62
7
  6
CONTINUOUS
  0
LAYER
  2
185
 70
64
 62
7
  6
CONTINUOUS
  0
LAYER
  2
186
 70
64
 62
7
  6
CONTINUOUS
  0
LAYER
  2
187
 70
64
 62
7
  6
CONTINUOUS
  0
LAYER
  2
188
 70
64
 62
7
  6
CONTINUOUS
  0
LAYER
  2
189
 70
64
 62
7
  6
CONTINUOUS
  0
LAYER
  2
190
 70
64
 62
7
  6
CONTINUOUS
  0
LAYER
  2
191
 70
64
 62
7
  6
CONTINUOUS
  0
LAYER
  2
192
 70
64
 62
7
  6
CONTINUOUS
  0
LAYER
  2
193
 70
64
 62
7
  6
CONTINUOUS
  0
LAYER
  2
194
 70
64
 62
7
  6
CONTINUOUS
  0
LAYER
  2
195
 70
64
 62
7
  6
CONTINUOUS
  0
LAYER
  2
196
 70
64
 62
7
  6
CONTINUOUS
  0
LAYER
  2
197
 70
64
 62
7
  6
CONTINUOUS
  0
LAYER
  2
198
 70
64
 62
7
  6
CONTINUOUS
  0
LAYER
  2
199
 70
64
 62
7
  6
CONTINUOUS
  0
ENDTAB
  0
ENDSEC
  0
SECTION
  2
BLOCKS
  0
BLOCK
  8
0
  2
abba4_hh
 70
 0
 10
0.0
 20
0.0
 30
0.0
  0
TEXT
  8
0
 62
7
  6
CONTINUOUS
 10
262.000000
 20
14.166667
 40
2.500000
  1
F
 50
0.000000
 51
0.000000
 72
1
 73
0
 11
262.000000
 21
14.166667
  0
TEXT
  8
0
 62
7
  6
CONTINUOUS
 10
262.000000
 20
44.166667
 40
2.500000
  1
E
 50
0.000000
 51
0.000000
 72
1
 73
0
 11
262.000000
 21
44.166667
  0
TEXT
  8
0
 62
7
  6
CONTINUOUS
 10
262.000000
 20
74.166667
 40
2.500000
  1
D
 50
0.000000
 51
0.000000
 72
1
 73
0
 11
262.000000
 21
74.166667
  0
TEXT
  8
0
 62
7
  6
CONTINUOUS
 10
262.000000
 20
104.166667
 40
2.500000
  1
C
 50
0.000000
 51
0.000000
 72
1
 73
0
 11
262.000000
 21
104.166667
  0
TEXT
  8
0
 62
7
  6
CONTINUOUS
 10
262.000000
 20
134.166667
 40
2.500000
  1
B
 50
0.000000
 51
0.000000
 72
1
 73
0
 11
262.000000
 21
134.166667
  0
TEXT
  8
0
 62
7
  6
CONTINUOUS
 10
262.000000
 20
164.166667
 40
2.500000
  1
A
 50
0.000000
 51
0.000000
 72
1
 73
0
 11
262.000000
 21
164.166667
  0
TEXT
  8
0
 62
7
  6
CONTINUOUS
 10
-2.000000
 20
14.166667
 40
2.500000
  1
F
 50
0.000000
 51
0.000000
 72
1
 73
0
 11
-2.000000
 21
14.166667
  0
TEXT
  8
0
 62
7
  6
CONTINUOUS
 10
-2.000000
 20
44.166667
 40
2.500000
  1
E
 50
0.000000
 51
0.000000
 72
1
 73
0
 11
-2.000000
 21
44.166667
  0
TEXT
  8
0
 62
7
  6
CONTINUOUS
 10
-2.000000
 20
74.166667
 40
2.500000
  1
D
 50
0.000000
 51
0.000000
 72
1
 73
0
 11
-2.000000
 21
74.166667
  0
TEXT
  8
0
 62
7
  6
CONTINUOUS
 10
-2.000000
 20
104.166667
 40
2.500000
  1
C
 50
0.000000
 51
0.000000
 72
1
 73
0
 11
-2.000000
 21
104.166667
  0
TEXT
  8
0
 62
7
  6
CONTINUOUS
 10
-2.000000
 20
134.166667
 40
2.500000
  1
B
 50
0.000000
 51
0.000000
 72
1
 73
0
 11
-2.000000
 21
134.166667
  0
TEXT
  8
0
 62
7
  6
CONTINUOUS
 10
-2.000000
 20
164.166667
 40
2.500000
  1
A
 50
0.000000
 51
0.000000
 72
1
 73
0
 11
-2.000000
 21
164.166667
  0
TEXT
  8
0
 62
7
  6
CONTINUOUS
 10
243.500000
 20
-3.233333
 40
2.500000
  1
8
 50
0.000000
 51
0.000000
 72
1
 73
0
 11
243.500000
 21
-3.233333
  0
TEXT
  8
0
 62
7
  6
CONTINUOUS
 10
210.300000
 20
-3.533333
 40
2.500000
  1
7
 50
0.000000
 51
0.000000
 72
1
 73
0
 11
210.300000
 21
-3.533333
  0
TEXT
  8
0
 62
7
  6
CONTINUOUS
 10
178.200000
 20
-3.333333
 40
2.500000
  1
6
 50
0.000000
 51
0.000000
 72
1
 73
0
 11
178.200000
 21
-3.333333
  0
TEXT
  8
0
 62
7
  6
CONTINUOUS
 10
146.800000
 20
-3.233333
 40
2.500000
  1
5
 50
0.000000
 51
0.000000
 72
1
 73
0
 11
146.800000
 21
-3.233333
  0
TEXT
  8
0
 62
7
  6
CONTINUOUS
 10
112.800000
 20
-3.333333
 40
2.500000
  1
4
 50
0.000000
 51
0.000000
 72
1
 73
0
 11
112.800000
 21
-3.333333
  0
TEXT
  8
0
 62
7
  6
CONTINUOUS
 10
82.600000
 20
-3.333333
 40
2.500000
  1
3
 50
0.000000
 51
0.000000
 72
1
 73
0
 11
82.600000
 21
-3.333333
  0
TEXT
  8
0
 62
7
  6
CONTINUOUS
 10
50.100000
 20
-3.333333
 40
2.500000
  1
2
 50
0.000000
 51
0.000000
 72
1
 73
0
 11
50.100000
 21
-3.333333
  0
TEXT
  8
0
 62
7
  6
CONTINUOUS
 10
17.300000
 20
-3.233333
 40
2.500000
  1
1
 50
0.000000
 51
0.000000
 72
1
 73
0
 11
17.300000
 21
-3.233333
  0
TEXT
  8
0
 62
7
  6
CONTINUOUS
 10
242.500000
 20
181.466667
 40
2.500000
  1
8
 50
0.000000
 51
0.000000
 72
1
 73
0
 11
242.500000
 21
181.466667
  0
TEXT
  8
0
 62
7
  6
CONTINUOUS
 10
211.000000
 20
181.466667
 40
2.500000
  1
7
 50
0.000000
 51
0.000000
 72
1
 73
0
 11
211.000000
 21
181.466667
  0
TEXT
  8
0
 62
7
  6
CONTINUOUS
 10
178.500000
 20
181.466667
 40
2.500000
  1
6
 50
0.000000
 51
0.000000
 72
1
 73
0
 11
178.500000
 21
181.466667
  0
TEXT
  8
0
 62
7
  6
CONTINUOUS
 10
147.200000
 20
181.566667
 40
2.500000
  1
5
 50
0.000000
 51
0.000000
 72
1
 73
0
 11
147.200000
 21
181.566667
  0
TEXT
  8
0
 62
7
  6
CONTINUOUS
 10
113.900000
 20
181.466667
 40
2.500000
  1
4
 50
0.000000
 51
0.000000
 72
1
 73
0
 11
113.900000
 21
181.466667
  0
TEXT
  8
0
 62
7
  6
CONTINUOUS
 10
82.500000
 20
181.466667
 40
2.500000
  1
3
 50
0.000000
 51
0.000000
 72
1
 73
0
 11
82.500000
 21
181.466667
  0
TEXT
  8
0
 62
7
  6
CONTINUOUS
 10
50.000000
 20
181.566667
 40
2.500000
  1
2
 50
0.000000
 51
0.000000
 72
1
 73
0
 11
50.000000
 21
181.566667
  0
TEXT
  8
0
 62
7
  6
CONTINUOUS
 10
17.500000
 20
181.466667
 40
2.500000
  1
1
 50
0.000000
 51
0.000000
 72
1
 73
0
 11
17.500000
 21
181.466667
  0
POLYLINE
  8
0
 62
7
  6
CONTINUOUS
 70
0
 66
1
  0
VERTEX
 10
226.000000
 20
0.000000
  8
0
 62
7
  6
CONTINUOUS
  0
VERTEX
 10
226.000000
 20
-5.000000
  8
0
 62
7
  6
CONTINUOUS
  0
SEQEND
  0
POLYLINE
  8
0
 62
7
  6
CONTINUOUS
 70
0
 66
1
  0
VERTEX
 10
194.000000
 20
0.000000
  8
0
 62
7
  6
CONTINUOUS
  0
VERTEX
 10
194.000000
 20
-5.000000
  8
0
 62
7
  6
CONTINUOUS
  0
SEQEND
  0
POLYLINE
  8
0
 62
7
  6
CONTINUOUS
 70
0
 66
1
  0
VERTEX
 10
162.000000
 20
0.000000
  8
0
 62
7
  6
CONTINUOUS
  0
VERTEX
 10
162.000000
 20
-5.000000
  8
0
 62
7
  6
CONTINUOUS
  0
SEQEND
  0
POLYLINE
  8
0
 62
7
  6
CONTINUOUS
 70
0
 66
1
  0
VERTEX
 10
98.000000
 20
0.000000
  8
0
 62
7
  6
CONTINUOUS
  0
VERTEX
 10
98.000000
 20
-5.000000
  8
0
 62
7
  6
CONTINUOUS
  0
SEQEND
  0
POLYLINE
  8
0
 62
7
  6
CONTINUOUS
 70
0
 66
1
  0
VERTEX
 10
66.000000
 20
0.000000
  8
0
 62
7
  6
CONTINUOUS
  0
VERTEX
 10
66.000000
 20
-5.000000
  8
0
 62
7
  6
CONTINUOUS
  0
SEQEND
  0
POLYLINE
  8
0
 62
7
  6
CONTINUOUS
 70
0
 66
1
  0
VERTEX
 10
34.000000
 20
0.000000
  8
0
 62
7
  6
CONTINUOUS
  0
VERTEX
 10
34.000000
 20
-5.000000
  8
0
 62
7
  6
CONTINUOUS
  0
SEQEND
  0
POLYLINE
  8
0
 62
7
  6
CONTINUOUS
 70
0
 66
1
  0
VERTEX
 10
34.000000
 20
180.000000
  8
0
 62
7
  6
CONTINUOUS
  0
VERTEX
 10
34.000000
 20
185.000000
  8
0
 62
7
  6
CONTINUOUS
  0
SEQEND
  0
POLYLINE
  8
0
 62
7
  6
CONTINUOUS
 70
0
 66
1
  0
VERTEX
 10
66.000000
 20
180.000000
  8
0
 62
7
  6
CONTINUOUS
  0
VERTEX
 10
66.000000
 20
185.000000
  8
0
 62
7
  6
CONTINUOUS
  0
SEQEND
  0
POLYLINE
  8
0
 62
7
  6
CONTINUOUS
 70
0
 66
1
  0
VERTEX
 10
98.000000
 20
180.000000
  8
0
 62
7
  6
CONTINUOUS
  0
VERTEX
 10
98.000000
 20
185.000000
  8
0
 62
7
  6
CONTINUOUS
  0
SEQEND
  0
POLYLINE
  8
0
 62
7
  6
CONTINUOUS
 70
0
 66
1
  0
VERTEX
 10
226.000000
 20
180.000000
  8
0
 62
7
  6
CONTINUOUS
  0
VERTEX
 10
226.000000
 20
185.000000
  8
0
 62
7
  6
CONTINUOUS
  0
SEQEND
  0
POLYLINE
  8
0
 62
7
  6
CONTINUOUS
 70
0
 66
1
  0
VERTEX
 10
194.000000
 20
180.000000
  8
0
 62
7
  6
CONTINUOUS
  0
VERTEX
 10
194.000000
 20
185.000000
  8
0
 62
7
  6
CONTINUOUS
  0
SEQEND
  0
POLYLINE
  8
0
 62
7
  6
CONTINUOUS
 70
0
 66
1
  0
VERTEX
 10
162.000000
 20
180.000000
  8
0
 62
7
  6
CONTINUOUS
  0
VERTEX
 10
162.000000
 20
185.000000
  8
0
 62
7
  6
CONTINUOUS
  0
SEQEND
  0
POLYLINE
  8
0
 62
7
  6
CONTINUOUS
 70
0
 66
1
  0
VERTEX
 10
130.000000
 20
0.000000
  8
0
 62
7
  6
CONTINUOUS
  0
VERTEX
 10
130.000000
 20
-5.000000
  8
0
 62
7
  6
CONTINUOUS
  0
SEQEND
  0
POLYLINE
  8
0
 62
7
  6
CONTINUOUS
 70
0
 66
1
  0
VERTEX
 10
130.000000
 20
180.000000
  8
0
 62
7
  6
CONTINUOUS
  0
VERTEX
 10
130.000000
 20
185.000000
  8
0
 62
7
  6
CONTINUOUS
  0
SEQEND
  0
POLYLINE
  8
0
 62
7
  6
CONTINUOUS
 70
0
 66
1
  0
VERTEX
 10
0.000000
 20
150.000000
  8
0
 62
7
  6
CONTINUOUS
  0
VERTEX
 10
-5.000000
 20
150.000000
  8
0
 62
7
  6
CONTINUOUS
  0
SEQEND
  0
POLYLINE
  8
0
 62
7
  6
CONTINUOUS
 70
0
 66
1
  0
VERTEX
 10
0.000000
 20
120.000000
  8
0
 62
7
  6
CONTINUOUS
  0
VERTEX
 10
-5.000000
 20
120.000000
  8
0
 62
7
  6
CONTINUOUS
  0
SEQEND
  0
POLYLINE
  8
0
 62
7
  6
CONTINUOUS
 70
0
 66
1
  0
VERTEX
 10
0.000000
 20
90.000000
  8
0
 62
7
  6
CONTINUOUS
  0
VERTEX
 10
-5.000000
 20
90.000000
  8
0
 62
7
  6
CONTINUOUS
  0
SEQEND
  0
POLYLINE
  8
0
 62
7
  6
CONTINUOUS
 70
0
 66
1
  0
VERTEX
 10
0.000000
 20
60.000000
  8
0
 62
7
  6
CONTINUOUS
  0
VERTEX
 10
-5.000000
 20
60.000000
  8
0
 62
7
  6
CONTINUOUS
  0
SEQEND
  0
POLYLINE
  8
0
 62
7
  6
CONTINUOUS
 70
0
 66
1
  0
VERTEX
 10
0.000000
 20
30.000000
  8
0
 62
7
  6
CONTINUOUS
  0
VERTEX
 10
-5.000000
 20
30.000000
  8
0
 62
7
  6
CONTINUOUS
  0
SEQEND
  0
POLYLINE
  8
0
 62
7
  6
CONTINUOUS
 70
0
 66
1
  0
VERTEX
 10
260.000000
 20
30.000000
  8
0
 62
7
  6
CONTINUOUS
  0
VERTEX
 10
265.000000
 20
30.000000
  8
0
 62
7
  6
CONTINUOUS
  0
SEQEND
  0
POLYLINE
  8
0
 62
7
  6
CONTINUOUS
 70
0
 66
1
  0
VERTEX
 10
260.000000
 20
60.000000
  8
0
 62
7
  6
CONTINUOUS
  0
VERTEX
 10
265.000000
 20
60.000000
  8
0
 62
7
  6
CONTINUOUS
  0
SEQEND
  0
POLYLINE
  8
0
 62
7
  6
CONTINUOUS
 70
0
 66
1
  0
VERTEX
 10
260.000000
 20
150.000000
  8
0
 62
7
  6
CONTINUOUS
  0
VERTEX
 10
265.000000
 20
150.000000
  8
0
 62
7
  6
CONTINUOUS
  0
SEQEND
  0
POLYLINE
  8
0
 62
7
  6
CONTINUOUS
 70
0
 66
1
  0
VERTEX
 10
260.000000
 20
120.000000
  8
0
 62
7
  6
CONTINUOUS
  0
VERTEX
 10
265.000000
 20
120.000000
  8
0
 62
7
  6
CONTINUOUS
  0
SEQEND
  0
POLYLINE
  8
0
 62
7
  6
CONTINUOUS
 70
0
 66
1
  0
VERTEX
 10
260.000000
 20
90.000000
  8
0
 62
7
  6
CONTINUOUS
  0
VERTEX
 10
265.000000
 20
90.000000
  8
0
 62
7
  6
CONTINUOUS
  0
SEQEND
  0
POLYLINE
  8
0
 62
7
  6
CONTINUOUS
 70
0
 66
1
  0
VERTEX
 10
0.000000
 20
180.000000
  8
0
 62
7
  6
CONTINUOUS
  0
VERTEX
 10
260.000000
 20
180.000000
  8
0
 62
7
  6
CONTINUOUS
  0
SEQEND
  0
POLYLINE
  8
0
 62
7
  6
CONTINUOUS
 70
0
 66
1
  0
VERTEX
 10
260.000000
 20
180.000000
  8
0
 62
7
  6
CONTINUOUS
  0
VERTEX
 10
260.000000
 20
0.000000
  8
0
 62
7
  6
CONTINUOUS
  0
SEQEND
  0
POLYLINE
  8
0
 62
7
  6
CONTINUOUS
 70
0
 66
1
  0
VERTEX
 10
260.000000
 20
0.000000
  8
0
 62
7
  6
CONTINUOUS
  0
VERTEX
 10
0.000000
 20
0.000000
  8
0
 62
7
  6
CONTINUOUS
  0
SEQEND
  0
POLYLINE
  8
0
 62
7
  6
CONTINUOUS
 70
0
 66
1
  0
VERTEX
 10
0.000000
 20
0.000000
  8
0
 62
7
  6
CONTINUOUS
  0
VERTEX
 10
0.000000
 20
180.000000
  8
0
 62
7
  6
CONTINUOUS
  0
SEQEND
  0
TEXT
  8
0
 62
7
  6
CONTINUOUS
 10
33.500000
 20
1.500000
 40
1.500000
  1
Datum
 50
0.000000
 51
0.000000
 72
0
 73
0
  0
TEXT
  8
0
 62
7
  6
CONTINUOUS
 10
48.500000
 20
13.633333
 40
1.700000
  1
Opdrachtgever :
 50
0.000000
 51
0.000000
 72
0
 73
0
  0
TEXT
  8
0
 62
7
  6
CONTINUOUS
 10
230.000000
 20
4.100000
 40
1.200000
  1
Blad no.
 50
0.000000
 51
0.000000
 72
0
 73
0
  0
TEXT
  8
0
 62
7
  6
CONTINUOUS
 10
221.000000
 20
8.033333
 40
1.700000
  1
Verdeelkast       :
 50
0.000000
 51
0.000000
 72
0
 73
0
  0
TEXT
  8
0
 62
7
  6
CONTINUOUS
 10
221.000000
 20
12.933333
 40
1.700000
  1
Offerte nummer :
 50
0.000000
 51
0.000000
 72
0
 73
0
  0
TEXT
  8
0
 62
7
  6
CONTINUOUS
 10
174.000000
 20
13.033333
 40
1.700000
  1
Datum    :
 50
0.000000
 51
0.000000
 72
0
 73
0
  0
POLYLINE
  8
0
 62
7
  6
CONTINUOUS
 70
0
 66
1
  0
VERTEX
 10
246.000000
 20
6.000000
  8
0
 62
7
  6
CONTINUOUS
  0
VERTEX
 10
246.000000
 20
0.000000
  8
0
 62
7
  6
CONTINUOUS
  0
SEQEND
  0
POLYLINE
  8
0
 62
7
  6
CONTINUOUS
 70
0
 66
1
  0
VERTEX
 10
229.000000
 20
3.000000
  8
0
 62
7
  6
CONTINUOUS
  0
VERTEX
 10
260.000000
 20
3.000000
  8
0
 62
7
  6
CONTINUOUS
  0
SEQEND
  0
TEXT
  8
0
 62
7
  6
CONTINUOUS
 10
174.000000
 20
2.433333
 40
1.700000
  1
Project    :
 50
0.000000
 51
0.000000
 72
0
 73
0
  0
POLYLINE
  8
0
 62
7
  6
CONTINUOUS
 70
0
 66
1
  0
VERTEX
 10
229.000000
 20
6.000000
  8
0
 62
7
  6
CONTINUOUS
  0
VERTEX
 10
229.000000
 20
0.000000
  8
0
 62
7
  6
CONTINUOUS
  0
SEQEND
  0
TEXT
  8
0
 62
7
  6
CONTINUOUS
 10
174.000000
 20
8.033333
 40
1.700000
  1
Systeem :
 50
0.000000
 51
0.000000
 72
0
 73
0
  0
TEXT
  8
0
 62
7
  6
CONTINUOUS
 10
230.000000
 20
1.100000
 40
1.200000
  1
Aantal bladen
 50
0.000000
 51
0.000000
 72
0
 73
0
  0
POLYLINE
  8
0
 62
7
  6
CONTINUOUS
 70
0
 66
1
  0
VERTEX
 10
260.000000
 20
11.000000
  8
0
 62
7
  6
CONTINUOUS
  0
VERTEX
 10
173.000000
 20
11.000000
  8
0
 62
7
  6
CONTINUOUS
  0
SEQEND
  0
POLYLINE
  8
0
 62
7
  6
CONTINUOUS
 70
0
 66
1
  0
VERTEX
 10
173.000000
 20
6.000000
  8
0
 62
7
  6
CONTINUOUS
  0
VERTEX
 10
260.000000
 20
6.000000
  8
0
 62
7
  6
CONTINUOUS
  0
SEQEND
  0
TEXT
  8
0
 62
7
  6
CONTINUOUS
 10
1.500000
 20
1.500000
 40
1.500000
  1
Wijziging
 50
0.000000
 51
0.000000
 72
0
 73
0
  0
TEXT
  8
0
 62
7
  6
CONTINUOUS
 10
221.000000
 20
2.000000
 40
3.000000
  1
A4
 50
0.000000
 51
0.000000
 72
0
 73
0
  0
POLYLINE
  8
0
 62
7
  6
CONTINUOUS
 70
0
 66
1
  0
VERTEX
 10
0.000000
 20
16.000000
  8
0
 62
7
  6
CONTINUOUS
  0
VERTEX
 10
260.000000
 20
16.000000
  8
0
 62
7
  6
CONTINUOUS
  0
SEQEND
  0
POLYLINE
  8
0
 62
7
  6
CONTINUOUS
 70
0
 66
1
  0
VERTEX
 10
0.000000
 20
12.000000
  8
0
 62
7
  6
CONTINUOUS
  0
VERTEX
 10
110.000000
 20
12.000000
  8
0
 62
7
  6
CONTINUOUS
  0
SEQEND
  0
POLYLINE
  8
0
 62
7
  6
CONTINUOUS
 70
0
 66
1
  0
VERTEX
 10
0.000000
 20
8.000000
  8
0
 62
7
  6
CONTINUOUS
  0
VERTEX
 10
47.000000
 20
8.000000
  8
0
 62
7
  6
CONTINUOUS
  0
SEQEND
  0
POLYLINE
  8
0
 62
7
  6
CONTINUOUS
 70
0
 66
1
  0
VERTEX
 10
0.000000
 20
4.000000
  8
0
 62
7
  6
CONTINUOUS
  0
VERTEX
 10
47.000000
 20
4.000000
  8
0
 62
7
  6
CONTINUOUS
  0
SEQEND
  0
POLYLINE
  8
0
 62
7
  6
CONTINUOUS
 70
0
 66
1
  0
VERTEX
 10
32.000000
 20
16.000000
  8
0
 62
7
  6
CONTINUOUS
  0
VERTEX
 10
32.000000
 20
0.000000
  8
0
 62
7
  6
CONTINUOUS
  0
SEQEND
  0
POLYLINE
  8
0
 62
7
  6
CONTINUOUS
 70
0
 66
1
  0
VERTEX
 10
47.000000
 20
16.000000
  8
0
 62
7
  6
CONTINUOUS
  0
VERTEX
 10
47.000000
 20
0.000000
  8
0
 62
7
  6
CONTINUOUS
  0
SEQEND
  0
POLYLINE
  8
0
 62
7
  6
CONTINUOUS
 70
0
 66
1
  0
VERTEX
 10
68.000000
 20
12.000000
  8
0
 62
7
  6
CONTINUOUS
  0
VERTEX
 10
68.000000
 20
0.000000
  8
0
 62
7
  6
CONTINUOUS
  0
SEQEND
  0
POLYLINE
  8
0
 62
7
  6
CONTINUOUS
 70
0
 66
1
  0
VERTEX
 10
110.000000
 20
16.000000
  8
0
 62
7
  6
CONTINUOUS
  0
VERTEX
 10
110.000000
 20
0.000000
  8
0
 62
7
  6
CONTINUOUS
  0
SEQEND
  0
POLYLINE
  8
0
 62
7
  6
CONTINUOUS
 70
0
 66
1
  0
VERTEX
 10
173.000000
 20
16.000000
  8
0
 62
7
  6
CONTINUOUS
  0
VERTEX
 10
173.000000
 20
0.000000
  8
0
 62
7
  6
CONTINUOUS
  0
SEQEND
  0
POLYLINE
  8
0
 62
7
  6
CONTINUOUS
 70
0
 66
1
  0
VERTEX
 10
220.000000
 20
16.000000
  8
0
 62
7
  6
CONTINUOUS
  0
VERTEX
 10
220.000000
 20
0.000000
  8
0
 62
7
  6
CONTINUOUS
  0
SEQEND
  0
TEXT
  8
0
 62
7
  6
CONTINUOUS
 10
69.800000
 20
2.633333
 40
1.700000
  1
Electrification Products
 50
0.000000
 51
0.000000
 72
0
 73
0
  0
TEXT
  8
0
 62
7
  6
CONTINUOUS
 10
69.800000
 20
4.933333
 40
1.700000
  1
Building Products
 50
0.000000
 51
0.000000
 72
0
 73
0
  0
TEXT
  8
0
 62
7
  6
CONTINUOUS
 10
69.800000
 20
6.933333
 40
1.700000
  1
PDC-NL 
 50
0.000000
 51
0.000000
 72
0
 73
0
  0
TEXT
  8
0
 62
7
  6
CONTINUOUS
 10
69.800000
 20
8.933333
 40
1.700000
  1
ABB b.v.
 50
0.000000
 51
0.000000
 72
0
 73
0
  0
TEXT
  8
0
 62
7
  6
CONTINUOUS
 10
112.000000
 20
0.633333
 40
1.700000
  1
Tel.:
 50
0.000000
 51
0.000000
 72
0
 73
0
  0
TEXT
  8
0
 62
7
  6
CONTINUOUS
 10
140.000000
 20
0.633333
 40
1.700000
  1
Fax.:
 50
0.000000
 51
0.000000
 72
0
 73
0
  0
TEXT
  8
1
 62
7
  6
CONTINUOUS
 10
239.000000
 20
7.933333
 40
1.700000
  1
125 Amp
 50
0.000000
 51
0.000000
 72
0
 73
0
  0
TEXT
  8
1
 62
7
  6
CONTINUOUS
 10
112.000000
 20
12.333333
 40
2.000000
  1
PDC NL 2026-Q1
 50
0.000000
 51
0.000000
 72
0
 73
0
  0
TEXT
  8
1
 62
7
  6
CONTINUOUS
 10
112.000000
 20
9.433333
 40
1.700000
  1
Aqualectra B.V.
 50
0.000000
 51
0.000000
 72
0
 73
0
  0
TEXT
  8
1
 62
7
  6
CONTINUOUS
 10
112.000000
 20
6.433333
 40
1.700000
  1
Maxwellstraat 23-25
 50
0.000000
 51
0.000000
 72
0
 73
0
  0
TEXT
  8
1
 62
7
  6
CONTINUOUS
 10
112.000000
 20
3.433333
 40
1.700000
  1
1704 SG
 50
0.000000
 51
0.000000
 72
0
 73
0
  0
TEXT
  8
1
 62
7
  6
CONTINUOUS
 10
185.000000
 20
2.433333
 40
1.700000
  1
InHolland
 50
0.000000
 51
0.000000
 72
0
 73
0
  0
TEXT
  8
1
 62
7
  6
CONTINUOUS
 10
239.000000
 20
12.933333
 40
1.700000
  1
InHolland CB
 50
0.000000
 51
0.000000
 72
0
 73
0
  0
TEXT
  8
1
 62
7
  6
CONTINUOUS
 10
122.000000
 20
3.433333
 40
1.700000
  1
Heerhugowaard
 50
0.000000
 51
0.000000
 72
0
 73
0
  0
TEXT
  8
1
 62
7
  6
CONTINUOUS
 10
117.000000
 20
0.533333
 40
1.700000
  1
088-5454800
 50
0.000000
 51
0.000000
 72
0
 73
0
  0
TEXT
  8
1
 62
7
  6
CONTINUOUS
 10
185.000000
 20
12.933333
 40
1.700000
  1
12-2-2026
 50
0.000000
 51
0.000000
 72
0
 73
0
  0
TEXT
  8
1
 62
7
  6
CONTINUOUS
 10
238.000000
 20
4.100000
 40
1.200000
  1
1
 50
0.000000
 51
0.000000
 72
0
 73
0
  0
TEXT
  8
1
 62
7
  6
CONTINUOUS
 10
242.000000
 20
1.100000
 40
1.200000
  1
1
 50
0.000000
 51
0.000000
 72
0
 73
0
  0
TEXT
  8
1
 62
7
  6
CONTINUOUS
 10
247.000000
 20
1.100000
 40
1.200000
  1
4.5.0.0098
 50
0.000000
 51
0.000000
 72
0
 73
0
  0
ENDBLK
  0
BLOCK
  8
0
  2
tg206g
 70
 0
 10
0.0
 20
0.0
 30
0.0
  0
POLYLINE
  8
0
 62
7
  6
CONTINUOUS
 70
1
 66
1
  0
VERTEX
 10
52.500000
 20
92.500000
 30
0.000000
  8
0
 62
7
  6
CONTINUOUS
  0
VERTEX
 10
52.500000
 20
-2.500000
 30
0.000000
  8
0
 62
7
  6
CONTINUOUS
  0
VERTEX
 10
-2.500000
 20
-2.500000
 30
0.000000
  8
0
 62
7
  6
CONTINUOUS
  0
VERTEX
 10
-2.500000
 20
92.500000
 30
0.000000
  8
0
 62
7
  6
CONTINUOUS
  0
SEQEND
  0
POLYLINE
  8
0
 62
7
  6
CONTINUOUS
 70
1
 66
1
  0
VERTEX
 10
50.500000
 20
90.500000
 30
0.000000
  8
0
 62
7
  6
CONTINUOUS
  0
VERTEX
 10
50.500000
 20
-0.500000
 30
0.000000
  8
0
 62
7
  6
CONTINUOUS
  0
VERTEX
 10
-0.500000
 20
-0.500000
 30
0.000000
  8
0
 62
7
  6
CONTINUOUS
  0
VERTEX
 10
-0.500000
 20
90.500000
 30
0.000000
  8
0
 62
7
  6
CONTINUOUS
  0
SEQEND
  0
ENDBLK
  0
BLOCK
  8
1
  2
mbg423
 70
 0
 10
0.0
 20
0.0
 30
0.0
  0
POLYLINE
  8
1
 62
7
  6
CONTINUOUS
 70
1
 66
1
  0
VERTEX
 10
49.800000
 20
44.800000
 30
0.000000
  8
1
 62
7
  6
CONTINUOUS
  0
VERTEX
 10
49.800000
 20
0.200000
 30
0.000000
  8
1
 62
7
  6
CONTINUOUS
  0
VERTEX
 10
0.200000
 20
0.200000
 30
0.000000
  8
1
 62
7
  6
CONTINUOUS
  0
VERTEX
 10
0.200000
 20
44.800000
 30
0.000000
  8
1
 62
7
  6
CONTINUOUS
  0
SEQEND
  0
LINE
  8
1
 62
7
  6
CONTINUOUS
 10
1.000000
 20
42.900000
 11
1.000000
 21
42.400000
  0
LINE
  8
1
 62
7
  6
CONTINUOUS
 10
1.000000
 20
39.500000
 11
1.000000
 21
40.000000
  0
LINE
  8
1
 62
7
  6
CONTINUOUS
 10
1.400000
 20
41.200000
 11
0.500000
 21
41.200000
  0
CIRCLE
  8
1
 62
7
  6
CONTINUOUS
 10
1.000000
 20
41.200000
 30
0.0
 40
0.700000
  0
LINE
  8
1
 62
7
  6
CONTINUOUS
 10
49.000000
 20
42.900000
 11
49.000000
 21
42.400000
  0
LINE
  8
1
 62
7
  6
CONTINUOUS
 10
49.000000
 20
39.500000
 11
49.000000
 21
40.000000
  0
LINE
  8
1
 62
7
  6
CONTINUOUS
 10
48.600000
 20
41.200000
 11
49.500000
 21
41.200000
  0
CIRCLE
  8
1
 62
7
  6
CONTINUOUS
 10
49.000000
 20
41.200000
 30
0.0
 40
0.700000
  0
LINE
  8
1
 62
7
  6
CONTINUOUS
 10
49.000000
 20
2.100000
 11
49.000000
 21
2.600000
  0
LINE
  8
1
 62
7
  6
CONTINUOUS
 10
49.000000
 20
5.500000
 11
49.000000
 21
5.000000
  0
LINE
  8
1
 62
7
  6
CONTINUOUS
 10
48.600000
 20
3.800000
 11
49.500000
 21
3.800000
  0
CIRCLE
  8
1
 62
7
  6
CONTINUOUS
 10
49.000000
 20
3.800000
 30
0.0
 40
0.700000
  0
LINE
  8
1
 62
7
  6
CONTINUOUS
 10
1.000000
 20
2.100000
 11
1.000000
 21
2.600000
  0
LINE
  8
1
 62
7
  6
CONTINUOUS
 10
1.000000
 20
5.500000
 11
1.000000
 21
5.000000
  0
LINE
  8
1
 62
7
  6
CONTINUOUS
 10
1.400000
 20
3.800000
 11
0.500000
 21
3.800000
  0
CIRCLE
  8
1
 62
7
  6
CONTINUOUS
 10
1.000000
 20
3.800000
 30
0.0
 40
0.700000
  0
POLYLINE
  8
1
 62
7
  6
CONTINUOUS
 70
1
 66
1
  0
VERTEX
 10
24.200000
 20
9.800000
 30
0.000000
  8
1
 62
7
  6
CONTINUOUS
  0
VERTEX
 10
24.200000
 20
5.200000
 30
0.000000
  8
1
 62
7
  6
CONTINUOUS
  0
VERTEX
 10
2.600000
 20
5.200000
 30
0.000000
  8
1
 62
7
  6
CONTINUOUS
  0
VERTEX
 10
2.600000
 20
9.800000
 30
0.000000
  8
1
 62
7
  6
CONTINUOUS
  0
SEQEND
  0
POLYLINE
  8
1
 62
7
  6
CONTINUOUS
 70
1
 66
1
  0
VERTEX
 10
47.400000
 20
9.800000
 30
0.000000
  8
1
 62
7
  6
CONTINUOUS
  0
VERTEX
 10
47.400000
 20
5.200000
 30
0.000000
  8
1
 62
7
  6
CONTINUOUS
  0
VERTEX
 10
25.800000
 20
5.200000
 30
0.000000
  8
1
 62
7
  6
CONTINUOUS
  0
VERTEX
 10
25.800000
 20
9.800000
 30
0.000000
  8
1
 62
7
  6
CONTINUOUS
  0
SEQEND
  0
POLYLINE
  8
1
 62
7
  6
CONTINUOUS
 70
1
 66
1
  0
VERTEX
 10
24.200000
 20
39.800000
 30
0.000000
  8
1
 62
7
  6
CONTINUOUS
  0
VERTEX
 10
24.200000
 20
35.200000
 30
0.000000
  8
1
 62
7
  6
CONTINUOUS
  0
VERTEX
 10
2.600000
 20
35.200000
 30
0.000000
  8
1
 62
7
  6
CONTINUOUS
  0
VERTEX
 10
2.600000
 20
39.800000
 30
0.000000
  8
1
 62
7
  6
CONTINUOUS
  0
SEQEND
  0
POLYLINE
  8
1
 62
7
  6
CONTINUOUS
 70
0
 66
1
  0
VERTEX
 10
4.400000
 20
5.200000
  8
1
 62
7
  6
CONTINUOUS
  0
VERTEX
 10
4.400000
 20
6.300000
  8
1
 62
7
  6
CONTINUOUS
  0
SEQEND
  0
POLYLINE
  8
1
 62
7
  6
CONTINUOUS
 70
0
 66
1
  0
VERTEX
 10
6.200000
 20
5.200000
  8
1
 62
7
  6
CONTINUOUS
  0
VERTEX
 10
6.200000
 20
6.300000
  8
1
 62
7
  6
CONTINUOUS
  0
VERTEX
 10
6.200000
 20
6.300000
  8
1
 62
7
  6
CONTINUOUS
  0
SEQEND
  0
POLYLINE
  8
1
 62
7
  6
CONTINUOUS
 70
0
 66
1
  0
VERTEX
 10
8.000000
 20
5.200000
  8
1
 62
7
  6
CONTINUOUS
  0
VERTEX
 10
8.000000
 20
6.300000
  8
1
 62
7
  6
CONTINUOUS
  0
SEQEND
  0
POLYLINE
  8
1
 62
7
  6
CONTINUOUS
 70
0
 66
1
  0
VERTEX
 10
9.800000
 20
5.200000
  8
1
 62
7
  6
CONTINUOUS
  0
VERTEX
 10
9.800000
 20
6.300000
  8
1
 62
7
  6
CONTINUOUS
  0
SEQEND
  0
POLYLINE
  8
1
 62
7
  6
CONTINUOUS
 70
0
 66
1
  0
VERTEX
 10
11.600000
 20
5.200000
  8
1
 62
7
  6
CONTINUOUS
  0
VERTEX
 10
11.600000
 20
6.300000
  8
1
 62
7
  6
CONTINUOUS
  0
SEQEND
  0
POLYLINE
  8
1
 62
7
  6
CONTINUOUS
 70
0
 66
1
  0
VERTEX
 10
13.400000
 20
5.200000
  8
1
 62
7
  6
CONTINUOUS
  0
VERTEX
 10
13.400000
 20
6.300000
  8
1
 62
7
  6
CONTINUOUS
  0
SEQEND
  0
POLYLINE
  8
1
 62
7
  6
CONTINUOUS
 70
0
 66
1
  0
VERTEX
 10
15.200000
 20
5.200000
  8
1
 62
7
  6
CONTINUOUS
  0
VERTEX
 10
15.200000
 20
6.300000
  8
1
 62
7
  6
CONTINUOUS
  0
SEQEND
  0
POLYLINE
  8
1
 62
7
  6
CONTINUOUS
 70
0
 66
1
  0
VERTEX
 10
17.000000
 20
5.200000
  8
1
 62
7
  6
CONTINUOUS
  0
VERTEX
 10
17.000000
 20
6.300000
  8
1
 62
7
  6
CONTINUOUS
  0
SEQEND
  0
POLYLINE
  8
1
 62
7
  6
CONTINUOUS
 70
0
 66
1
  0
VERTEX
 10
18.800000
 20
5.200000
  8
1
 62
7
  6
CONTINUOUS
  0
VERTEX
 10
18.800000
 20
6.300000
  8
1
 62
7
  6
CONTINUOUS
  0
SEQEND
  0
POLYLINE
  8
1
 62
7
  6
CONTINUOUS
 70
0
 66
1
  0
VERTEX
 10
20.600000
 20
5.200000
  8
1
 62
7
  6
CONTINUOUS
  0
VERTEX
 10
20.600000
 20
6.300000
  8
1
 62
7
  6
CONTINUOUS
  0
SEQEND
  0
POLYLINE
  8
1
 62
7
  6
CONTINUOUS
 70
0
 66
1
  0
VERTEX
 10
22.400000
 20
5.200000
  8
1
 62
7
  6
CONTINUOUS
  0
VERTEX
 10
22.400000
 20
6.300000
  8
1
 62
7
  6
CONTINUOUS
  0
SEQEND
  0
POLYLINE
  8
1
 62
7
  6
CONTINUOUS
 70
1
 66
1
  0
VERTEX
 10
24.200000
 20
24.800000
 30
0.000000
  8
1
 62
7
  6
CONTINUOUS
  0
VERTEX
 10
24.200000
 20
20.200000
 30
0.000000
  8
1
 62
7
  6
CONTINUOUS
  0
VERTEX
 10
2.600000
 20
20.200000
 30
0.000000
  8
1
 62
7
  6
CONTINUOUS
  0
VERTEX
 10
2.600000
 20
24.800000
 30
0.000000
  8
1
 62
7
  6
CONTINUOUS
  0
SEQEND
  0
POLYLINE
  8
1
 62
7
  6
CONTINUOUS
 70
0
 66
1
  0
VERTEX
 10
4.400000
 20
20.200000
  8
1
 62
7
  6
CONTINUOUS
  0
VERTEX
 10
4.400000
 20
21.300000
  8
1
 62
7
  6
CONTINUOUS
  0
SEQEND
  0
POLYLINE
  8
1
 62
7
  6
CONTINUOUS
 70
0
 66
1
  0
VERTEX
 10
6.200000
 20
20.200000
  8
1
 62
7
  6
CONTINUOUS
  0
VERTEX
 10
6.200000
 20
21.300000
  8
1
 62
7
  6
CONTINUOUS
  0
VERTEX
 10
6.200000
 20
21.300000
  8
1
 62
7
  6
CONTINUOUS
  0
SEQEND
  0
POLYLINE
  8
1
 62
7
  6
CONTINUOUS
 70
0
 66
1
  0
VERTEX
 10
8.000000
 20
20.200000
  8
1
 62
7
  6
CONTINUOUS
  0
VERTEX
 10
8.000000
 20
21.300000
  8
1
 62
7
  6
CONTINUOUS
  0
SEQEND
  0
POLYLINE
  8
1
 62
7
  6
CONTINUOUS
 70
0
 66
1
  0
VERTEX
 10
9.800000
 20
20.200000
  8
1
 62
7
  6
CONTINUOUS
  0
VERTEX
 10
9.800000
 20
21.300000
  8
1
 62
7
  6
CONTINUOUS
  0
SEQEND
  0
POLYLINE
  8
1
 62
7
  6
CONTINUOUS
 70
0
 66
1
  0
VERTEX
 10
11.600000
 20
20.200000
  8
1
 62
7
  6
CONTINUOUS
  0
VERTEX
 10
11.600000
 20
21.300000
  8
1
 62
7
  6
CONTINUOUS
  0
SEQEND
  0
POLYLINE
  8
1
 62
7
  6
CONTINUOUS
 70
0
 66
1
  0
VERTEX
 10
13.400000
 20
20.200000
  8
1
 62
7
  6
CONTINUOUS
  0
VERTEX
 10
13.400000
 20
21.300000
  8
1
 62
7
  6
CONTINUOUS
  0
SEQEND
  0
POLYLINE
  8
1
 62
7
  6
CONTINUOUS
 70
0
 66
1
  0
VERTEX
 10
15.200000
 20
20.200000
  8
1
 62
7
  6
CONTINUOUS
  0
VERTEX
 10
15.200000
 20
21.300000
  8
1
 62
7
  6
CONTINUOUS
  0
SEQEND
  0
POLYLINE
  8
1
 62
7
  6
CONTINUOUS
 70
0
 66
1
  0
VERTEX
 10
17.000000
 20
20.200000
  8
1
 62
7
  6
CONTINUOUS
  0
VERTEX
 10
17.000000
 20
21.300000
  8
1
 62
7
  6
CONTINUOUS
  0
SEQEND
  0
POLYLINE
  8
1
 62
7
  6
CONTINUOUS
 70
0
 66
1
  0
VERTEX
 10
18.800000
 20
20.200000
  8
1
 62
7
  6
CONTINUOUS
  0
VERTEX
 10
18.800000
 20
21.300000
  8
1
 62
7
  6
CONTINUOUS
  0
SEQEND
  0
POLYLINE
  8
1
 62
7
  6
CONTINUOUS
 70
0
 66
1
  0
VERTEX
 10
20.600000
 20
20.200000
  8
1
 62
7
  6
CONTINUOUS
  0
VERTEX
 10
20.600000
 20
21.300000
  8
1
 62
7
  6
CONTINUOUS
  0
SEQEND
  0
POLYLINE
  8
1
 62
7
  6
CONTINUOUS
 70
0
 66
1
  0
VERTEX
 10
22.400000
 20
20.200000
  8
1
 62
7
  6
CONTINUOUS
  0
VERTEX
 10
22.400000
 20
21.300000
  8
1
 62
7
  6
CONTINUOUS
  0
SEQEND
  0
POLYLINE
  8
1
 62
7
  6
CONTINUOUS
 70
0
 66
1
  0
VERTEX
 10
4.400000
 20
35.300000
  8
1
 62
7
  6
CONTINUOUS
  0
VERTEX
 10
4.400000
 20
36.400000
  8
1
 62
7
  6
CONTINUOUS
  0
SEQEND
  0
POLYLINE
  8
1
 62
7
  6
CONTINUOUS
 70
0
 66
1
  0
VERTEX
 10
6.200000
 20
35.300000
  8
1
 62
7
  6
CONTINUOUS
  0
VERTEX
 10
6.200000
 20
36.400000
  8
1
 62
7
  6
CONTINUOUS
  0
VERTEX
 10
6.200000
 20
36.400000
  8
1
 62
7
  6
CONTINUOUS
  0
SEQEND
  0
POLYLINE
  8
1
 62
7
  6
CONTINUOUS
 70
0
 66
1
  0
VERTEX
 10
8.000000
 20
35.300000
  8
1
 62
7
  6
CONTINUOUS
  0
VERTEX
 10
8.000000
 20
36.400000
  8
1
 62
7
  6
CONTINUOUS
  0
SEQEND
  0
POLYLINE
  8
1
 62
7
  6
CONTINUOUS
 70
0
 66
1
  0
VERTEX
 10
9.800000
 20
35.300000
  8
1
 62
7
  6
CONTINUOUS
  0
VERTEX
 10
9.800000
 20
36.400000
  8
1
 62
7
  6
CONTINUOUS
  0
SEQEND
  0
POLYLINE
  8
1
 62
7
  6
CONTINUOUS
 70
0
 66
1
  0
VERTEX
 10
11.600000
 20
35.300000
  8
1
 62
7
  6
CONTINUOUS
  0
VERTEX
 10
11.600000
 20
36.400000
  8
1
 62
7
  6
CONTINUOUS
  0
SEQEND
  0
POLYLINE
  8
1
 62
7
  6
CONTINUOUS
 70
0
 66
1
  0
VERTEX
 10
13.400000
 20
35.300000
  8
1
 62
7
  6
CONTINUOUS
  0
VERTEX
 10
13.400000
 20
36.400000
  8
1
 62
7
  6
CONTINUOUS
  0
SEQEND
  0
POLYLINE
  8
1
 62
7
  6
CONTINUOUS
 70
0
 66
1
  0
VERTEX
 10
15.200000
 20
35.300000
  8
1
 62
7
  6
CONTINUOUS
  0
VERTEX
 10
15.200000
 20
36.400000
  8
1
 62
7
  6
CONTINUOUS
  0
SEQEND
  0
POLYLINE
  8
1
 62
7
  6
CONTINUOUS
 70
0
 66
1
  0
VERTEX
 10
17.000000
 20
35.300000
  8
1
 62
7
  6
CONTINUOUS
  0
VERTEX
 10
17.000000
 20
36.400000
  8
1
 62
7
  6
CONTINUOUS
  0
SEQEND
  0
POLYLINE
  8
1
 62
7
  6
CONTINUOUS
 70
0
 66
1
  0
VERTEX
 10
18.800000
 20
35.300000
  8
1
 62
7
  6
CONTINUOUS
  0
VERTEX
 10
18.800000
 20
36.400000
  8
1
 62
7
  6
CONTINUOUS
  0
SEQEND
  0
POLYLINE
  8
1
 62
7
  6
CONTINUOUS
 70
0
 66
1
  0
VERTEX
 10
20.600000
 20
35.300000
  8
1
 62
7
  6
CONTINUOUS
  0
VERTEX
 10
20.600000
 20
36.400000
  8
1
 62
7
  6
CONTINUOUS
  0
SEQEND
  0
POLYLINE
  8
1
 62
7
  6
CONTINUOUS
 70
0
 66
1
  0
VERTEX
 10
22.400000
 20
35.300000
  8
1
 62
7
  6
CONTINUOUS
  0
VERTEX
 10
22.400000
 20
36.400000
  8
1
 62
7
  6
CONTINUOUS
  0
SEQEND
  0
POLYLINE
  8
1
 62
7
  6
CONTINUOUS
 70
0
 66
1
  0
VERTEX
 10
4.400000
 20
35.200000
  8
1
 62
7
  6
CONTINUOUS
  0
VERTEX
 10
4.400000
 20
36.300000
  8
1
 62
7
  6
CONTINUOUS
  0
SEQEND
  0
POLYLINE
  8
1
 62
7
  6
CONTINUOUS
 70
0
 66
1
  0
VERTEX
 10
6.200000
 20
35.200000
  8
1
 62
7
  6
CONTINUOUS
  0
VERTEX
 10
6.200000
 20
36.300000
  8
1
 62
7
  6
CONTINUOUS
  0
VERTEX
 10
6.200000
 20
36.300000
  8
1
 62
7
  6
CONTINUOUS
  0
SEQEND
  0
POLYLINE
  8
1
 62
7
  6
CONTINUOUS
 70
0
 66
1
  0
VERTEX
 10
8.000000
 20
35.200000
  8
1
 62
7
  6
CONTINUOUS
  0
VERTEX
 10
8.000000
 20
36.300000
  8
1
 62
7
  6
CONTINUOUS
  0
SEQEND
  0
POLYLINE
  8
1
 62
7
  6
CONTINUOUS
 70
0
 66
1
  0
VERTEX
 10
9.800000
 20
35.200000
  8
1
 62
7
  6
CONTINUOUS
  0
VERTEX
 10
9.800000
 20
36.300000
  8
1
 62
7
  6
CONTINUOUS
  0
SEQEND
  0
POLYLINE
  8
1
 62
7
  6
CONTINUOUS
 70
0
 66
1
  0
VERTEX
 10
11.600000
 20
35.200000
  8
1
 62
7
  6
CONTINUOUS
  0
VERTEX
 10
11.600000
 20
36.300000
  8
1
 62
7
  6
CONTINUOUS
  0
SEQEND
  0
POLYLINE
  8
1
 62
7
  6
CONTINUOUS
 70
0
 66
1
  0
VERTEX
 10
13.400000
 20
35.200000
  8
1
 62
7
  6
CONTINUOUS
  0
VERTEX
 10
13.400000
 20
36.300000
  8
1
 62
7
  6
CONTINUOUS
  0
SEQEND
  0
POLYLINE
  8
1
 62
7
  6
CONTINUOUS
 70
0
 66
1
  0
VERTEX
 10
15.200000
 20
35.200000
  8
1
 62
7
  6
CONTINUOUS
  0
VERTEX
 10
15.200000
 20
36.300000
  8
1
 62
7
  6
CONTINUOUS
  0
SEQEND
  0
POLYLINE
  8
1
 62
7
  6
CONTINUOUS
 70
0
 66
1
  0
VERTEX
 10
17.000000
 20
35.200000
  8
1
 62
7
  6
CONTINUOUS
  0
VERTEX
 10
17.000000
 20
36.300000
  8
1
 62
7
  6
CONTINUOUS
  0
SEQEND
  0
POLYLINE
  8
1
 62
7
  6
CONTINUOUS
 70
0
 66
1
  0
VERTEX
 10
18.800000
 20
35.200000
  8
1
 62
7
  6
CONTINUOUS
  0
VERTEX
 10
18.800000
 20
36.300000
  8
1
 62
7
  6
CONTINUOUS
  0
SEQEND
  0
POLYLINE
  8
1
 62
7
  6
CONTINUOUS
 70
0
 66
1
  0
VERTEX
 10
20.600000
 20
35.200000
  8
1
 62
7
  6
CONTINUOUS
  0
VERTEX
 10
20.600000
 20
36.300000
  8
1
 62
7
  6
CONTINUOUS
  0
SEQEND
  0
POLYLINE
  8
1
 62
7
  6
CONTINUOUS
 70
0
 66
1
  0
VERTEX
 10
22.400000
 20
35.200000
  8
1
 62
7
  6
CONTINUOUS
  0
VERTEX
 10
22.400000
 20
36.300000
  8
1
 62
7
  6
CONTINUOUS
  0
SEQEND
  0
POLYLINE
  8
1
 62
7
  6
CONTINUOUS
 70
0
 66
1
  0
VERTEX
 10
4.400000
 20
35.300000
  8
1
 62
7
  6
CONTINUOUS
  0
VERTEX
 10
4.400000
 20
36.400000
  8
1
 62
7
  6
CONTINUOUS
  0
SEQEND
  0
POLYLINE
  8
1
 62
7
  6
CONTINUOUS
 70
0
 66
1
  0
VERTEX
 10
6.200000
 20
35.300000
  8
1
 62
7
  6
CONTINUOUS
  0
VERTEX
 10
6.200000
 20
36.400000
  8
1
 62
7
  6
CONTINUOUS
  0
VERTEX
 10
6.200000
 20
36.400000
  8
1
 62
7
  6
CONTINUOUS
  0
SEQEND
  0
POLYLINE
  8
1
 62
7
  6
CONTINUOUS
 70
0
 66
1
  0
VERTEX
 10
8.000000
 20
35.300000
  8
1
 62
7
  6
CONTINUOUS
  0
VERTEX
 10
8.000000
 20
36.400000
  8
1
 62
7
  6
CONTINUOUS
  0
SEQEND
  0
POLYLINE
  8
1
 62
7
  6
CONTINUOUS
 70
0
 66
1
  0
VERTEX
 10
9.800000
 20
35.300000
  8
1
 62
7
  6
CONTINUOUS
  0
VERTEX
 10
9.800000
 20
36.400000
  8
1
 62
7
  6
CONTINUOUS
  0
SEQEND
  0
POLYLINE
  8
1
 62
7
  6
CONTINUOUS
 70
0
 66
1
  0
VERTEX
 10
11.600000
 20
35.300000
  8
1
 62
7
  6
CONTINUOUS
  0
VERTEX
 10
11.600000
 20
36.400000
  8
1
 62
7
  6
CONTINUOUS
  0
SEQEND
  0
POLYLINE
  8
1
 62
7
  6
CONTINUOUS
 70
0
 66
1
  0
VERTEX
 10
13.400000
 20
35.300000
  8
1
 62
7
  6
CONTINUOUS
  0
VERTEX
 10
13.400000
 20
36.400000
  8
1
 62
7
  6
CONTINUOUS
  0
SEQEND
  0
POLYLINE
  8
1
 62
7
  6
CONTINUOUS
 70
0
 66
1
  0
VERTEX
 10
15.200000
 20
35.300000
  8
1
 62
7
  6
CONTINUOUS
  0
VERTEX
 10
15.200000
 20
36.400000
  8
1
 62
7
  6
CONTINUOUS
  0
SEQEND
  0
POLYLINE
  8
1
 62
7
  6
CONTINUOUS
 70
0
 66
1
  0
VERTEX
 10
17.000000
 20
35.300000
  8
1
 62
7
  6
CONTINUOUS
  0
VERTEX
 10
17.000000
 20
36.400000
  8
1
 62
7
  6
CONTINUOUS
  0
SEQEND
  0
POLYLINE
  8
1
 62
7
  6
CONTINUOUS
 70
0
 66
1
  0
VERTEX
 10
18.800000
 20
35.300000
  8
1
 62
7
  6
CONTINUOUS
  0
VERTEX
 10
18.800000
 20
36.400000
  8
1
 62
7
  6
CONTINUOUS
  0
SEQEND
  0
POLYLINE
  8
1
 62
7
  6
CONTINUOUS
 70
0
 66
1
  0
VERTEX
 10
20.600000
 20
35.300000
  8
1
 62
7
  6
CONTINUOUS
  0
VERTEX
 10
20.600000
 20
36.400000
  8
1
 62
7
  6
CONTINUOUS
  0
SEQEND
  0
POLYLINE
  8
1
 62
7
  6
CONTINUOUS
 70
0
 66
1
  0
VERTEX
 10
22.400000
 20
35.300000
  8
1
 62
7
  6
CONTINUOUS
  0
VERTEX
 10
22.400000
 20
36.400000
  8
1
 62
7
  6
CONTINUOUS
  0
SEQEND
  0
POLYLINE
  8
1
 62
7
  6
CONTINUOUS
 70
1
 66
1
  0
VERTEX
 10
47.400000
 20
39.800000
 30
0.000000
  8
1
 62
7
  6
CONTINUOUS
  0
VERTEX
 10
47.400000
 20
35.200000
 30
0.000000
  8
1
 62
7
  6
CONTINUOUS
  0
VERTEX
 10
25.800000
 20
35.200000
 30
0.000000
  8
1
 62
7
  6
CONTINUOUS
  0
VERTEX
 10
25.800000
 20
39.800000
 30
0.000000
  8
1
 62
7
  6
CONTINUOUS
  0
SEQEND
  0
POLYLINE
  8
1
 62
7
  6
CONTINUOUS
 70
0
 66
1
  0
VERTEX
 10
27.600000
 20
5.200000
  8
1
 62
7
  6
CONTINUOUS
  0
VERTEX
 10
27.600000
 20
6.300000
  8
1
 62
7
  6
CONTINUOUS
  0
SEQEND
  0
POLYLINE
  8
1
 62
7
  6
CONTINUOUS
 70
0
 66
1
  0
VERTEX
 10
29.400000
 20
5.200000
  8
1
 62
7
  6
CONTINUOUS
  0
VERTEX
 10
29.400000
 20
6.300000
  8
1
 62
7
  6
CONTINUOUS
  0
VERTEX
 10
29.400000
 20
6.300000
  8
1
 62
7
  6
CONTINUOUS
  0
SEQEND
  0
POLYLINE
  8
1
 62
7
  6
CONTINUOUS
 70
0
 66
1
  0
VERTEX
 10
31.200000
 20
5.200000
  8
1
 62
7
  6
CONTINUOUS
  0
VERTEX
 10
31.200000
 20
6.300000
  8
1
 62
7
  6
CONTINUOUS
  0
SEQEND
  0
POLYLINE
  8
1
 62
7
  6
CONTINUOUS
 70
0
 66
1
  0
VERTEX
 10
33.000000
 20
5.200000
  8
1
 62
7
  6
CONTINUOUS
  0
VERTEX
 10
33.000000
 20
6.300000
  8
1
 62
7
  6
CONTINUOUS
  0
SEQEND
  0
POLYLINE
  8
1
 62
7
  6
CONTINUOUS
 70
0
 66
1
  0
VERTEX
 10
34.800000
 20
5.200000
  8
1
 62
7
  6
CONTINUOUS
  0
VERTEX
 10
34.800000
 20
6.300000
  8
1
 62
7
  6
CONTINUOUS
  0
SEQEND
  0
POLYLINE
  8
1
 62
7
  6
CONTINUOUS
 70
0
 66
1
  0
VERTEX
 10
36.600000
 20
5.200000
  8
1
 62
7
  6
CONTINUOUS
  0
VERTEX
 10
36.600000
 20
6.300000
  8
1
 62
7
  6
CONTINUOUS
  0
SEQEND
  0
POLYLINE
  8
1
 62
7
  6
CONTINUOUS
 70
0
 66
1
  0
VERTEX
 10
38.400000
 20
5.200000
  8
1
 62
7
  6
CONTINUOUS
  0
VERTEX
 10
38.400000
 20
6.300000
  8
1
 62
7
  6
CONTINUOUS
  0
SEQEND
  0
POLYLINE
  8
1
 62
7
  6
CONTINUOUS
 70
0
 66
1
  0
VERTEX
 10
40.200000
 20
5.200000
  8
1
 62
7
  6
CONTINUOUS
  0
VERTEX
 10
40.200000
 20
6.300000
  8
1
 62
7
  6
CONTINUOUS
  0
SEQEND
  0
POLYLINE
  8
1
 62
7
  6
CONTINUOUS
 70
0
 66
1
  0
VERTEX
 10
42.000000
 20
5.200000
  8
1
 62
7
  6
CONTINUOUS
  0
VERTEX
 10
42.000000
 20
6.300000
  8
1
 62
7
  6
CONTINUOUS
  0
SEQEND
  0
POLYLINE
  8
1
 62
7
  6
CONTINUOUS
 70
0
 66
1
  0
VERTEX
 10
43.800000
 20
5.200000
  8
1
 62
7
  6
CONTINUOUS
  0
VERTEX
 10
43.800000
 20
6.300000
  8
1
 62
7
  6
CONTINUOUS
  0
SEQEND
  0
POLYLINE
  8
1
 62
7
  6
CONTINUOUS
 70
0
 66
1
  0
VERTEX
 10
45.600000
 20
5.200000
  8
1
 62
7
  6
CONTINUOUS
  0
VERTEX
 10
45.600000
 20
6.300000
  8
1
 62
7
  6
CONTINUOUS
  0
SEQEND
  0
POLYLINE
  8
1
 62
7
  6
CONTINUOUS
 70
1
 66
1
  0
VERTEX
 10
47.400000
 20
24.800000
 30
0.000000
  8
1
 62
7
  6
CONTINUOUS
  0
VERTEX
 10
47.400000
 20
20.200000
 30
0.000000
  8
1
 62
7
  6
CONTINUOUS
  0
VERTEX
 10
25.800000
 20
20.200000
 30
0.000000
  8
1
 62
7
  6
CONTINUOUS
  0
VERTEX
 10
25.800000
 20
24.800000
 30
0.000000
  8
1
 62
7
  6
CONTINUOUS
  0
SEQEND
  0
POLYLINE
  8
1
 62
7
  6
CONTINUOUS
 70
0
 66
1
  0
VERTEX
 10
27.600000
 20
20.200000
  8
1
 62
7
  6
CONTINUOUS
  0
VERTEX
 10
27.600000
 20
21.300000
  8
1
 62
7
  6
CONTINUOUS
  0
SEQEND
  0
POLYLINE
  8
1
 62
7
  6
CONTINUOUS
 70
0
 66
1
  0
VERTEX
 10
29.400000
 20
20.200000
  8
1
 62
7
  6
CONTINUOUS
  0
VERTEX
 10
29.400000
 20
21.300000
  8
1
 62
7
  6
CONTINUOUS
  0
VERTEX
 10
29.400000
 20
21.300000
  8
1
 62
7
  6
CONTINUOUS
  0
SEQEND
  0
POLYLINE
  8
1
 62
7
  6
CONTINUOUS
 70
0
 66
1
  0
VERTEX
 10
31.200000
 20
20.200000
  8
1
 62
7
  6
CONTINUOUS
  0
VERTEX
 10
31.200000
 20
21.300000
  8
1
 62
7
  6
CONTINUOUS
  0
SEQEND
  0
POLYLINE
  8
1
 62
7
  6
CONTINUOUS
 70
0
 66
1
  0
VERTEX
 10
33.000000
 20
20.200000
  8
1
 62
7
  6
CONTINUOUS
  0
VERTEX
 10
33.000000
 20
21.300000
  8
1
 62
7
  6
CONTINUOUS
  0
SEQEND
  0
POLYLINE
  8
1
 62
7
  6
CONTINUOUS
 70
0
 66
1
  0
VERTEX
 10
34.800000
 20
20.200000
  8
1
 62
7
  6
CONTINUOUS
  0
VERTEX
 10
34.800000
 20
21.300000
  8
1
 62
7
  6
CONTINUOUS
  0
SEQEND
  0
POLYLINE
  8
1
 62
7
  6
CONTINUOUS
 70
0
 66
1
  0
VERTEX
 10
36.600000
 20
20.200000
  8
1
 62
7
  6
CONTINUOUS
  0
VERTEX
 10
36.600000
 20
21.300000
  8
1
 62
7
  6
CONTINUOUS
  0
SEQEND
  0
POLYLINE
  8
1
 62
7
  6
CONTINUOUS
 70
0
 66
1
  0
VERTEX
 10
38.400000
 20
20.200000
  8
1
 62
7
  6
CONTINUOUS
  0
VERTEX
 10
38.400000
 20
21.300000
  8
1
 62
7
  6
CONTINUOUS
  0
SEQEND
  0
POLYLINE
  8
1
 62
7
  6
CONTINUOUS
 70
0
 66
1
  0
VERTEX
 10
40.200000
 20
20.200000
  8
1
 62
7
  6
CONTINUOUS
  0
VERTEX
 10
40.200000
 20
21.300000
  8
1
 62
7
  6
CONTINUOUS
  0
SEQEND
  0
POLYLINE
  8
1
 62
7
  6
CONTINUOUS
 70
0
 66
1
  0
VERTEX
 10
42.000000
 20
20.200000
  8
1
 62
7
  6
CONTINUOUS
  0
VERTEX
 10
42.000000
 20
21.300000
  8
1
 62
7
  6
CONTINUOUS
  0
SEQEND
  0
POLYLINE
  8
1
 62
7
  6
CONTINUOUS
 70
0
 66
1
  0
VERTEX
 10
43.800000
 20
20.200000
  8
1
 62
7
  6
CONTINUOUS
  0
VERTEX
 10
43.800000
 20
21.300000
  8
1
 62
7
  6
CONTINUOUS
  0
SEQEND
  0
POLYLINE
  8
1
 62
7
  6
CONTINUOUS
 70
0
 66
1
  0
VERTEX
 10
45.600000
 20
20.200000
  8
1
 62
7
  6
CONTINUOUS
  0
VERTEX
 10
45.600000
 20
21.300000
  8
1
 62
7
  6
CONTINUOUS
  0
SEQEND
  0
POLYLINE
  8
1
 62
7
  6
CONTINUOUS
 70
0
 66
1
  0
VERTEX
 10
27.600000
 20
35.300000
  8
1
 62
7
  6
CONTINUOUS
  0
VERTEX
 10
27.600000
 20
36.400000
  8
1
 62
7
  6
CONTINUOUS
  0
SEQEND
  0
POLYLINE
  8
1
 62
7
  6
CONTINUOUS
 70
0
 66
1
  0
VERTEX
 10
29.400000
 20
35.300000
  8
1
 62
7
  6
CONTINUOUS
  0
VERTEX
 10
29.400000
 20
36.400000
  8
1
 62
7
  6
CONTINUOUS
  0
VERTEX
 10
29.400000
 20
36.400000
  8
1
 62
7
  6
CONTINUOUS
  0
SEQEND
  0
POLYLINE
  8
1
 62
7
  6
CONTINUOUS
 70
0
 66
1
  0
VERTEX
 10
31.200000
 20
35.300000
  8
1
 62
7
  6
CONTINUOUS
  0
VERTEX
 10
31.200000
 20
36.400000
  8
1
 62
7
  6
CONTINUOUS
  0
SEQEND
  0
POLYLINE
  8
1
 62
7
  6
CONTINUOUS
 70
0
 66
1
  0
VERTEX
 10
33.000000
 20
35.300000
  8
1
 62
7
  6
CONTINUOUS
  0
VERTEX
 10
33.000000
 20
36.400000
  8
1
 62
7
  6
CONTINUOUS
  0
SEQEND
  0
POLYLINE
  8
1
 62
7
  6
CONTINUOUS
 70
0
 66
1
  0
VERTEX
 10
34.800000
 20
35.300000
  8
1
 62
7
  6
CONTINUOUS
  0
VERTEX
 10
34.800000
 20
36.400000
  8
1
 62
7
  6
CONTINUOUS
  0
SEQEND
  0
POLYLINE
  8
1
 62
7
  6
CONTINUOUS
 70
0
 66
1
  0
VERTEX
 10
36.600000
 20
35.300000
  8
1
 62
7
  6
CONTINUOUS
  0
VERTEX
 10
36.600000
 20
36.400000
  8
1
 62
7
  6
CONTINUOUS
  0
SEQEND
  0
POLYLINE
  8
1
 62
7
  6
CONTINUOUS
 70
0
 66
1
  0
VERTEX
 10
38.400000
 20
35.300000
  8
1
 62
7
  6
CONTINUOUS
  0
VERTEX
 10
38.400000
 20
36.400000
  8
1
 62
7
  6
CONTINUOUS
  0
SEQEND
  0
POLYLINE
  8
1
 62
7
  6
CONTINUOUS
 70
0
 66
1
  0
VERTEX
 10
40.200000
 20
35.300000
  8
1
 62
7
  6
CONTINUOUS
  0
VERTEX
 10
40.200000
 20
36.400000
  8
1
 62
7
  6
CONTINUOUS
  0
SEQEND
  0
POLYLINE
  8
1
 62
7
  6
CONTINUOUS
 70
0
 66
1
  0
VERTEX
 10
42.000000
 20
35.300000
  8
1
 62
7
  6
CONTINUOUS
  0
VERTEX
 10
42.000000
 20
36.400000
  8
1
 62
7
  6
CONTINUOUS
  0
SEQEND
  0
POLYLINE
  8
1
 62
7
  6
CONTINUOUS
 70
0
 66
1
  0
VERTEX
 10
43.800000
 20
35.300000
  8
1
 62
7
  6
CONTINUOUS
  0
VERTEX
 10
43.800000
 20
36.400000
  8
1
 62
7
  6
CONTINUOUS
  0
SEQEND
  0
POLYLINE
  8
1
 62
7
  6
CONTINUOUS
 70
0
 66
1
  0
VERTEX
 10
45.600000
 20
35.300000
  8
1
 62
7
  6
CONTINUOUS
  0
VERTEX
 10
45.600000
 20
36.400000
  8
1
 62
7
  6
CONTINUOUS
  0
SEQEND
  0
POLYLINE
  8
1
 62
7
  6
CONTINUOUS
 70
0
 66
1
  0
VERTEX
 10
27.600000
 20
35.200000
  8
1
 62
7
  6
CONTINUOUS
  0
VERTEX
 10
27.600000
 20
36.300000
  8
1
 62
7
  6
CONTINUOUS
  0
SEQEND
  0
POLYLINE
  8
1
 62
7
  6
CONTINUOUS
 70
0
 66
1
  0
VERTEX
 10
29.400000
 20
35.200000
  8
1
 62
7
  6
CONTINUOUS
  0
VERTEX
 10
29.400000
 20
36.300000
  8
1
 62
7
  6
CONTINUOUS
  0
VERTEX
 10
29.400000
 20
36.300000
  8
1
 62
7
  6
CONTINUOUS
  0
SEQEND
  0
POLYLINE
  8
1
 62
7
  6
CONTINUOUS
 70
0
 66
1
  0
VERTEX
 10
31.200000
 20
35.200000
  8
1
 62
7
  6
CONTINUOUS
  0
VERTEX
 10
31.200000
 20
36.300000
  8
1
 62
7
  6
CONTINUOUS
  0
SEQEND
  0
POLYLINE
  8
1
 62
7
  6
CONTINUOUS
 70
0
 66
1
  0
VERTEX
 10
33.000000
 20
35.200000
  8
1
 62
7
  6
CONTINUOUS
  0
VERTEX
 10
33.000000
 20
36.300000
  8
1
 62
7
  6
CONTINUOUS
  0
SEQEND
  0
POLYLINE
  8
1
 62
7
  6
CONTINUOUS
 70
0
 66
1
  0
VERTEX
 10
34.800000
 20
35.200000
  8
1
 62
7
  6
CONTINUOUS
  0
VERTEX
 10
34.800000
 20
36.300000
  8
1
 62
7
  6
CONTINUOUS
  0
SEQEND
  0
POLYLINE
  8
1
 62
7
  6
CONTINUOUS
 70
0
 66
1
  0
VERTEX
 10
36.600000
 20
35.200000
  8
1
 62
7
  6
CONTINUOUS
  0
VERTEX
 10
36.600000
 20
36.300000
  8
1
 62
7
  6
CONTINUOUS
  0
SEQEND
  0
POLYLINE
  8
1
 62
7
  6
CONTINUOUS
 70
0
 66
1
  0
VERTEX
 10
38.400000
 20
35.200000
  8
1
 62
7
  6
CONTINUOUS
  0
VERTEX
 10
38.400000
 20
36.300000
  8
1
 62
7
  6
CONTINUOUS
  0
SEQEND
  0
POLYLINE
  8
1
 62
7
  6
CONTINUOUS
 70
0
 66
1
  0
VERTEX
 10
40.200000
 20
35.200000
  8
1
 62
7
  6
CONTINUOUS
  0
VERTEX
 10
40.200000
 20
36.300000
  8
1
 62
7
  6
CONTINUOUS
  0
SEQEND
  0
POLYLINE
  8
1
 62
7
  6
CONTINUOUS
 70
0
 66
1
  0
VERTEX
 10
42.000000
 20
35.200000
  8
1
 62
7
  6
CONTINUOUS
  0
VERTEX
 10
42.000000
 20
36.300000
  8
1
 62
7
  6
CONTINUOUS
  0
SEQEND
  0
POLYLINE
  8
1
 62
7
  6
CONTINUOUS
 70
0
 66
1
  0
VERTEX
 10
43.800000
 20
35.200000
  8
1
 62
7
  6
CONTINUOUS
  0
VERTEX
 10
43.800000
 20
36.300000
  8
1
 62
7
  6
CONTINUOUS
  0
SEQEND
  0
POLYLINE
  8
1
 62
7
  6
CONTINUOUS
 70
0
 66
1
  0
VERTEX
 10
45.600000
 20
35.200000
  8
1
 62
7
  6
CONTINUOUS
  0
VERTEX
 10
45.600000
 20
36.300000
  8
1
 62
7
  6
CONTINUOUS
  0
SEQEND
  0
POLYLINE
  8
1
 62
7
  6
CONTINUOUS
 70
0
 66
1
  0
VERTEX
 10
27.600000
 20
35.300000
  8
1
 62
7
  6
CONTINUOUS
  0
VERTEX
 10
27.600000
 20
36.400000
  8
1
 62
7
  6
CONTINUOUS
  0
SEQEND
  0
POLYLINE
  8
1
 62
7
  6
CONTINUOUS
 70
0
 66
1
  0
VERTEX
 10
29.400000
 20
35.300000
  8
1
 62
7
  6
CONTINUOUS
  0
VERTEX
 10
29.400000
 20
36.400000
  8
1
 62
7
  6
CONTINUOUS
  0
VERTEX
 10
29.400000
 20
36.400000
  8
1
 62
7
  6
CONTINUOUS
  0
SEQEND
  0
POLYLINE
  8
1
 62
7
  6
CONTINUOUS
 70
0
 66
1
  0
VERTEX
 10
31.200000
 20
35.300000
  8
1
 62
7
  6
CONTINUOUS
  0
VERTEX
 10
31.200000
 20
36.400000
  8
1
 62
7
  6
CONTINUOUS
  0
SEQEND
  0
POLYLINE
  8
1
 62
7
  6
CONTINUOUS
 70
0
 66
1
  0
VERTEX
 10
33.000000
 20
35.300000
  8
1
 62
7
  6
CONTINUOUS
  0
VERTEX
 10
33.000000
 20
36.400000
  8
1
 62
7
  6
CONTINUOUS
  0
SEQEND
  0
POLYLINE
  8
1
 62
7
  6
CONTINUOUS
 70
0
 66
1
  0
VERTEX
 10
34.800000
 20
35.300000
  8
1
 62
7
  6
CONTINUOUS
  0
VERTEX
 10
34.800000
 20
36.400000
  8
1
 62
7
  6
CONTINUOUS
  0
SEQEND
  0
POLYLINE
  8
1
 62
7
  6
CONTINUOUS
 70
0
 66
1
  0
VERTEX
 10
36.600000
 20
35.300000
  8
1
 62
7
  6
CONTINUOUS
  0
VERTEX
 10
36.600000
 20
36.400000
  8
1
 62
7
  6
CONTINUOUS
  0
SEQEND
  0
POLYLINE
  8
1
 62
7
  6
CONTINUOUS
 70
0
 66
1
  0
VERTEX
 10
38.400000
 20
35.300000
  8
1
 62
7
  6
CONTINUOUS
  0
VERTEX
 10
38.400000
 20
36.400000
  8
1
 62
7
  6
CONTINUOUS
  0
SEQEND
  0
POLYLINE
  8
1
 62
7
  6
CONTINUOUS
 70
0
 66
1
  0
VERTEX
 10
40.200000
 20
35.300000
  8
1
 62
7
  6
CONTINUOUS
  0
VERTEX
 10
40.200000
 20
36.400000
  8
1
 62
7
  6
CONTINUOUS
  0
SEQEND
  0
POLYLINE
  8
1
 62
7
  6
CONTINUOUS
 70
0
 66
1
  0
VERTEX
 10
42.000000
 20
35.300000
  8
1
 62
7
  6
CONTINUOUS
  0
VERTEX
 10
42.000000
 20
36.400000
  8
1
 62
7
  6
CONTINUOUS
  0
SEQEND
  0
POLYLINE
  8
1
 62
7
  6
CONTINUOUS
 70
0
 66
1
  0
VERTEX
 10
43.800000
 20
35.300000
  8
1
 62
7
  6
CONTINUOUS
  0
VERTEX
 10
43.800000
 20
36.400000
  8
1
 62
7
  6
CONTINUOUS
  0
SEQEND
  0
POLYLINE
  8
1
 62
7
  6
CONTINUOUS
 70
0
 66
1
  0
VERTEX
 10
45.600000
 20
35.300000
  8
1
 62
7
  6
CONTINUOUS
  0
VERTEX
 10
45.600000
 20
36.400000
  8
1
 62
7
  6
CONTINUOUS
  0
SEQEND
  0
ENDBLK
  0
BLOCK
  8
1
  2
mbg422
 70
 0
 10
0.0
 20
0.0
 30
0.0
  0
POLYLINE
  8
1
 62
7
  6
CONTINUOUS
 70
1
 66
1
  0
VERTEX
 10
49.800000
 20
29.800000
 30
0.000000
  8
1
 62
7
  6
CONTINUOUS
  0
VERTEX
 10
49.800000
 20
0.200000
 30
0.000000
  8
1
 62
7
  6
CONTINUOUS
  0
VERTEX
 10
0.200000
 20
0.200000
 30
0.000000
  8
1
 62
7
  6
CONTINUOUS
  0
VERTEX
 10
0.200000
 20
29.800000
 30
0.000000
  8
1
 62
7
  6
CONTINUOUS
  0
SEQEND
  0
LINE
  8
1
 62
7
  6
CONTINUOUS
 10
1.000000
 20
27.900000
 11
1.000000
 21
27.400000
  0
LINE
  8
1
 62
7
  6
CONTINUOUS
 10
1.000000
 20
24.500000
 11
1.000000
 21
25.000000
  0
LINE
  8
1
 62
7
  6
CONTINUOUS
 10
1.400000
 20
26.200000
 11
0.500000
 21
26.200000
  0
CIRCLE
  8
1
 62
7
  6
CONTINUOUS
 10
1.000000
 20
26.200000
 30
0.0
 40
0.700000
  0
LINE
  8
1
 62
7
  6
CONTINUOUS
 10
49.000000
 20
27.900000
 11
49.000000
 21
27.400000
  0
LINE
  8
1
 62
7
  6
CONTINUOUS
 10
49.000000
 20
24.500000
 11
49.000000
 21
25.000000
  0
LINE
  8
1
 62
7
  6
CONTINUOUS
 10
48.600000
 20
26.200000
 11
49.500000
 21
26.200000
  0
CIRCLE
  8
1
 62
7
  6
CONTINUOUS
 10
49.000000
 20
26.200000
 30
0.0
 40
0.700000
  0
LINE
  8
1
 62
7
  6
CONTINUOUS
 10
49.000000
 20
2.100000
 11
49.000000
 21
2.600000
  0
LINE
  8
1
 62
7
  6
CONTINUOUS
 10
49.000000
 20
5.500000
 11
49.000000
 21
5.000000
  0
LINE
  8
1
 62
7
  6
CONTINUOUS
 10
48.600000
 20
3.800000
 11
49.500000
 21
3.800000
  0
CIRCLE
  8
1
 62
7
  6
CONTINUOUS
 10
49.000000
 20
3.800000
 30
0.0
 40
0.700000
  0
LINE
  8
1
 62
7
  6
CONTINUOUS
 10
1.000000
 20
2.100000
 11
1.000000
 21
2.600000
  0
LINE
  8
1
 62
7
  6
CONTINUOUS
 10
1.000000
 20
5.500000
 11
1.000000
 21
5.000000
  0
LINE
  8
1
 62
7
  6
CONTINUOUS
 10
1.400000
 20
3.800000
 11
0.500000
 21
3.800000
  0
CIRCLE
  8
1
 62
7
  6
CONTINUOUS
 10
1.000000
 20
3.800000
 30
0.0
 40
0.700000
  0
POLYLINE
  8
1
 62
7
  6
CONTINUOUS
 70
1
 66
1
  0
VERTEX
 10
24.200000
 20
9.800000
 30
0.000000
  8
1
 62
7
  6
CONTINUOUS
  0
VERTEX
 10
24.200000
 20
5.200000
 30
0.000000
  8
1
 62
7
  6
CONTINUOUS
  0
VERTEX
 10
2.600000
 20
5.200000
 30
0.000000
  8
1
 62
7
  6
CONTINUOUS
  0
VERTEX
 10
2.600000
 20
9.800000
 30
0.000000
  8
1
 62
7
  6
CONTINUOUS
  0
SEQEND
  0
POLYLINE
  8
1
 62
7
  6
CONTINUOUS
 70
1
 66
1
  0
VERTEX
 10
47.400000
 20
9.800000
 30
0.000000
  8
1
 62
7
  6
CONTINUOUS
  0
VERTEX
 10
47.400000
 20
5.200000
 30
0.000000
  8
1
 62
7
  6
CONTINUOUS
  0
VERTEX
 10
25.800000
 20
5.200000
 30
0.000000
  8
1
 62
7
  6
CONTINUOUS
  0
VERTEX
 10
25.800000
 20
9.800000
 30
0.000000
  8
1
 62
7
  6
CONTINUOUS
  0
SEQEND
  0
POLYLINE
  8
1
 62
7
  6
CONTINUOUS
 70
0
 66
1
  0
VERTEX
 10
4.400000
 20
5.200000
  8
1
 62
7
  6
CONTINUOUS
  0
VERTEX
 10
4.400000
 20
6.300000
  8
1
 62
7
  6
CONTINUOUS
  0
SEQEND
  0
POLYLINE
  8
1
 62
7
  6
CONTINUOUS
 70
0
 66
1
  0
VERTEX
 10
6.200000
 20
5.200000
  8
1
 62
7
  6
CONTINUOUS
  0
VERTEX
 10
6.200000
 20
6.300000
  8
1
 62
7
  6
CONTINUOUS
  0
VERTEX
 10
6.200000
 20
6.300000
  8
1
 62
7
  6
CONTINUOUS
  0
SEQEND
  0
POLYLINE
  8
1
 62
7
  6
CONTINUOUS
 70
0
 66
1
  0
VERTEX
 10
8.000000
 20
5.200000
  8
1
 62
7
  6
CONTINUOUS
  0
VERTEX
 10
8.000000
 20
6.300000
  8
1
 62
7
  6
CONTINUOUS
  0
SEQEND
  0
POLYLINE
  8
1
 62
7
  6
CONTINUOUS
 70
0
 66
1
  0
VERTEX
 10
9.800000
 20
5.200000
  8
1
 62
7
  6
CONTINUOUS
  0
VERTEX
 10
9.800000
 20
6.300000
  8
1
 62
7
  6
CONTINUOUS
  0
SEQEND
  0
POLYLINE
  8
1
 62
7
  6
CONTINUOUS
 70
0
 66
1
  0
VERTEX
 10
11.600000
 20
5.200000
  8
1
 62
7
  6
CONTINUOUS
  0
VERTEX
 10
11.600000
 20
6.300000
  8
1
 62
7
  6
CONTINUOUS
  0
SEQEND
  0
POLYLINE
  8
1
 62
7
  6
CONTINUOUS
 70
0
 66
1
  0
VERTEX
 10
13.400000
 20
5.200000
  8
1
 62
7
  6
CONTINUOUS
  0
VERTEX
 10
13.400000
 20
6.300000
  8
1
 62
7
  6
CONTINUOUS
  0
SEQEND
  0
POLYLINE
  8
1
 62
7
  6
CONTINUOUS
 70
0
 66
1
  0
VERTEX
 10
15.200000
 20
5.200000
  8
1
 62
7
  6
CONTINUOUS
  0
VERTEX
 10
15.200000
 20
6.300000
  8
1
 62
7
  6
CONTINUOUS
  0
SEQEND
  0
POLYLINE
  8
1
 62
7
  6
CONTINUOUS
 70
0
 66
1
  0
VERTEX
 10
17.000000
 20
5.200000
  8
1
 62
7
  6
CONTINUOUS
  0
VERTEX
 10
17.000000
 20
6.300000
  8
1
 62
7
  6
CONTINUOUS
  0
SEQEND
  0
POLYLINE
  8
1
 62
7
  6
CONTINUOUS
 70
0
 66
1
  0
VERTEX
 10
18.800000
 20
5.200000
  8
1
 62
7
  6
CONTINUOUS
  0
VERTEX
 10
18.800000
 20
6.300000
  8
1
 62
7
  6
CONTINUOUS
  0
SEQEND
  0
POLYLINE
  8
1
 62
7
  6
CONTINUOUS
 70
0
 66
1
  0
VERTEX
 10
20.600000
 20
5.200000
  8
1
 62
7
  6
CONTINUOUS
  0
VERTEX
 10
20.600000
 20
6.300000
  8
1
 62
7
  6
CONTINUOUS
  0
SEQEND
  0
POLYLINE
  8
1
 62
7
  6
CONTINUOUS
 70
0
 66
1
  0
VERTEX
 10
22.400000
 20
5.200000
  8
1
 62
7
  6
CONTINUOUS
  0
VERTEX
 10
22.400000
 20
6.300000
  8
1
 62
7
  6
CONTINUOUS
  0
SEQEND
  0
POLYLINE
  8
1
 62
7
  6
CONTINUOUS
 70
1
 66
1
  0
VERTEX
 10
24.200000
 20
24.800000
 30
0.000000
  8
1
 62
7
  6
CONTINUOUS
  0
VERTEX
 10
24.200000
 20
20.200000
 30
0.000000
  8
1
 62
7
  6
CONTINUOUS
  0
VERTEX
 10
2.600000
 20
20.200000
 30
0.000000
  8
1
 62
7
  6
CONTINUOUS
  0
VERTEX
 10
2.600000
 20
24.800000
 30
0.000000
  8
1
 62
7
  6
CONTINUOUS
  0
SEQEND
  0
POLYLINE
  8
1
 62
7
  6
CONTINUOUS
 70
0
 66
1
  0
VERTEX
 10
4.400000
 20
20.200000
  8
1
 62
7
  6
CONTINUOUS
  0
VERTEX
 10
4.400000
 20
21.300000
  8
1
 62
7
  6
CONTINUOUS
  0
SEQEND
  0
POLYLINE
  8
1
 62
7
  6
CONTINUOUS
 70
0
 66
1
  0
VERTEX
 10
6.200000
 20
20.200000
  8
1
 62
7
  6
CONTINUOUS
  0
VERTEX
 10
6.200000
 20
21.300000
  8
1
 62
7
  6
CONTINUOUS
  0
VERTEX
 10
6.200000
 20
21.300000
  8
1
 62
7
  6
CONTINUOUS
  0
SEQEND
  0
POLYLINE
  8
1
 62
7
  6
CONTINUOUS
 70
0
 66
1
  0
VERTEX
 10
8.000000
 20
20.200000
  8
1
 62
7
  6
CONTINUOUS
  0
VERTEX
 10
8.000000
 20
21.300000
  8
1
 62
7
  6
CONTINUOUS
  0
SEQEND
  0
POLYLINE
  8
1
 62
7
  6
CONTINUOUS
 70
0
 66
1
  0
VERTEX
 10
9.800000
 20
20.200000
  8
1
 62
7
  6
CONTINUOUS
  0
VERTEX
 10
9.800000
 20
21.300000
  8
1
 62
7
  6
CONTINUOUS
  0
SEQEND
  0
POLYLINE
  8
1
 62
7
  6
CONTINUOUS
 70
0
 66
1
  0
VERTEX
 10
11.600000
 20
20.200000
  8
1
 62
7
  6
CONTINUOUS
  0
VERTEX
 10
11.600000
 20
21.300000
  8
1
 62
7
  6
CONTINUOUS
  0
SEQEND
  0
POLYLINE
  8
1
 62
7
  6
CONTINUOUS
 70
0
 66
1
  0
VERTEX
 10
13.400000
 20
20.200000
  8
1
 62
7
  6
CONTINUOUS
  0
VERTEX
 10
13.400000
 20
21.300000
  8
1
 62
7
  6
CONTINUOUS
  0
SEQEND
  0
POLYLINE
  8
1
 62
7
  6
CONTINUOUS
 70
0
 66
1
  0
VERTEX
 10
15.200000
 20
20.200000
  8
1
 62
7
  6
CONTINUOUS
  0
VERTEX
 10
15.200000
 20
21.300000
  8
1
 62
7
  6
CONTINUOUS
  0
SEQEND
  0
POLYLINE
  8
1
 62
7
  6
CONTINUOUS
 70
0
 66
1
  0
VERTEX
 10
17.000000
 20
20.200000
  8
1
 62
7
  6
CONTINUOUS
  0
VERTEX
 10
17.000000
 20
21.300000
  8
1
 62
7
  6
CONTINUOUS
  0
SEQEND
  0
POLYLINE
  8
1
 62
7
  6
CONTINUOUS
 70
0
 66
1
  0
VERTEX
 10
18.800000
 20
20.200000
  8
1
 62
7
  6
CONTINUOUS
  0
VERTEX
 10
18.800000
 20
21.300000
  8
1
 62
7
  6
CONTINUOUS
  0
SEQEND
  0
POLYLINE
  8
1
 62
7
  6
CONTINUOUS
 70
0
 66
1
  0
VERTEX
 10
20.600000
 20
20.200000
  8
1
 62
7
  6
CONTINUOUS
  0
VERTEX
 10
20.600000
 20
21.300000
  8
1
 62
7
  6
CONTINUOUS
  0
SEQEND
  0
POLYLINE
  8
1
 62
7
  6
CONTINUOUS
 70
0
 66
1
  0
VERTEX
 10
22.400000
 20
20.200000
  8
1
 62
7
  6
CONTINUOUS
  0
VERTEX
 10
22.400000
 20
21.300000
  8
1
 62
7
  6
CONTINUOUS
  0
SEQEND
  0
POLYLINE
  8
1
 62
7
  6
CONTINUOUS
 70
0
 66
1
  0
VERTEX
 10
27.600000
 20
5.200000
  8
1
 62
7
  6
CONTINUOUS
  0
VERTEX
 10
27.600000
 20
6.300000
  8
1
 62
7
  6
CONTINUOUS
  0
SEQEND
  0
POLYLINE
  8
1
 62
7
  6
CONTINUOUS
 70
0
 66
1
  0
VERTEX
 10
29.400000
 20
5.200000
  8
1
 62
7
  6
CONTINUOUS
  0
VERTEX
 10
29.400000
 20
6.300000
  8
1
 62
7
  6
CONTINUOUS
  0
VERTEX
 10
29.400000
 20
6.300000
  8
1
 62
7
  6
CONTINUOUS
  0
SEQEND
  0
POLYLINE
  8
1
 62
7
  6
CONTINUOUS
 70
0
 66
1
  0
VERTEX
 10
31.200000
 20
5.200000
  8
1
 62
7
  6
CONTINUOUS
  0
VERTEX
 10
31.200000
 20
6.300000
  8
1
 62
7
  6
CONTINUOUS
  0
SEQEND
  0
POLYLINE
  8
1
 62
7
  6
CONTINUOUS
 70
0
 66
1
  0
VERTEX
 10
33.000000
 20
5.200000
  8
1
 62
7
  6
CONTINUOUS
  0
VERTEX
 10
33.000000
 20
6.300000
  8
1
 62
7
  6
CONTINUOUS
  0
SEQEND
  0
POLYLINE
  8
1
 62
7
  6
CONTINUOUS
 70
0
 66
1
  0
VERTEX
 10
34.800000
 20
5.200000
  8
1
 62
7
  6
CONTINUOUS
  0
VERTEX
 10
34.800000
 20
6.300000
  8
1
 62
7
  6
CONTINUOUS
  0
SEQEND
  0
POLYLINE
  8
1
 62
7
  6
CONTINUOUS
 70
0
 66
1
  0
VERTEX
 10
36.600000
 20
5.200000
  8
1
 62
7
  6
CONTINUOUS
  0
VERTEX
 10
36.600000
 20
6.300000
  8
1
 62
7
  6
CONTINUOUS
  0
SEQEND
  0
POLYLINE
  8
1
 62
7
  6
CONTINUOUS
 70
0
 66
1
  0
VERTEX
 10
38.400000
 20
5.200000
  8
1
 62
7
  6
CONTINUOUS
  0
VERTEX
 10
38.400000
 20
6.300000
  8
1
 62
7
  6
CONTINUOUS
  0
SEQEND
  0
POLYLINE
  8
1
 62
7
  6
CONTINUOUS
 70
0
 66
1
  0
VERTEX
 10
40.200000
 20
5.200000
  8
1
 62
7
  6
CONTINUOUS
  0
VERTEX
 10
40.200000
 20
6.300000
  8
1
 62
7
  6
CONTINUOUS
  0
SEQEND
  0
POLYLINE
  8
1
 62
7
  6
CONTINUOUS
 70
0
 66
1
  0
VERTEX
 10
42.000000
 20
5.200000
  8
1
 62
7
  6
CONTINUOUS
  0
VERTEX
 10
42.000000
 20
6.300000
  8
1
 62
7
  6
CONTINUOUS
  0
SEQEND
  0
POLYLINE
  8
1
 62
7
  6
CONTINUOUS
 70
0
 66
1
  0
VERTEX
 10
43.800000
 20
5.200000
  8
1
 62
7
  6
CONTINUOUS
  0
VERTEX
 10
43.800000
 20
6.300000
  8
1
 62
7
  6
CONTINUOUS
  0
SEQEND
  0
POLYLINE
  8
1
 62
7
  6
CONTINUOUS
 70
0
 66
1
  0
VERTEX
 10
45.600000
 20
5.200000
  8
1
 62
7
  6
CONTINUOUS
  0
VERTEX
 10
45.600000
 20
6.300000
  8
1
 62
7
  6
CONTINUOUS
  0
SEQEND
  0
POLYLINE
  8
1
 62
7
  6
CONTINUOUS
 70
1
 66
1
  0
VERTEX
 10
47.400000
 20
24.800000
 30
0.000000
  8
1
 62
7
  6
CONTINUOUS
  0
VERTEX
 10
47.400000
 20
20.200000
 30
0.000000
  8
1
 62
7
  6
CONTINUOUS
  0
VERTEX
 10
25.800000
 20
20.200000
 30
0.000000
  8
1
 62
7
  6
CONTINUOUS
  0
VERTEX
 10
25.800000
 20
24.800000
 30
0.000000
  8
1
 62
7
  6
CONTINUOUS
  0
SEQEND
  0
POLYLINE
  8
1
 62
7
  6
CONTINUOUS
 70
0
 66
1
  0
VERTEX
 10
27.600000
 20
20.200000
  8
1
 62
7
  6
CONTINUOUS
  0
VERTEX
 10
27.600000
 20
21.300000
  8
1
 62
7
  6
CONTINUOUS
  0
SEQEND
  0
POLYLINE
  8
1
 62
7
  6
CONTINUOUS
 70
0
 66
1
  0
VERTEX
 10
29.400000
 20
20.200000
  8
1
 62
7
  6
CONTINUOUS
  0
VERTEX
 10
29.400000
 20
21.300000
  8
1
 62
7
  6
CONTINUOUS
  0
VERTEX
 10
29.400000
 20
21.300000
  8
1
 62
7
  6
CONTINUOUS
  0
SEQEND
  0
POLYLINE
  8
1
 62
7
  6
CONTINUOUS
 70
0
 66
1
  0
VERTEX
 10
31.200000
 20
20.200000
  8
1
 62
7
  6
CONTINUOUS
  0
VERTEX
 10
31.200000
 20
21.300000
  8
1
 62
7
  6
CONTINUOUS
  0
SEQEND
  0
POLYLINE
  8
1
 62
7
  6
CONTINUOUS
 70
0
 66
1
  0
VERTEX
 10
33.000000
 20
20.200000
  8
1
 62
7
  6
CONTINUOUS
  0
VERTEX
 10
33.000000
 20
21.300000
  8
1
 62
7
  6
CONTINUOUS
  0
SEQEND
  0
POLYLINE
  8
1
 62
7
  6
CONTINUOUS
 70
0
 66
1
  0
VERTEX
 10
34.800000
 20
20.200000
  8
1
 62
7
  6
CONTINUOUS
  0
VERTEX
 10
34.800000
 20
21.300000
  8
1
 62
7
  6
CONTINUOUS
  0
SEQEND
  0
POLYLINE
  8
1
 62
7
  6
CONTINUOUS
 70
0
 66
1
  0
VERTEX
 10
36.600000
 20
20.200000
  8
1
 62
7
  6
CONTINUOUS
  0
VERTEX
 10
36.600000
 20
21.300000
  8
1
 62
7
  6
CONTINUOUS
  0
SEQEND
  0
POLYLINE
  8
1
 62
7
  6
CONTINUOUS
 70
0
 66
1
  0
VERTEX
 10
38.400000
 20
20.200000
  8
1
 62
7
  6
CONTINUOUS
  0
VERTEX
 10
38.400000
 20
21.300000
  8
1
 62
7
  6
CONTINUOUS
  0
SEQEND
  0
POLYLINE
  8
1
 62
7
  6
CONTINUOUS
 70
0
 66
1
  0
VERTEX
 10
40.200000
 20
20.200000
  8
1
 62
7
  6
CONTINUOUS
  0
VERTEX
 10
40.200000
 20
21.300000
  8
1
 62
7
  6
CONTINUOUS
  0
SEQEND
  0
POLYLINE
  8
1
 62
7
  6
CONTINUOUS
 70
0
 66
1
  0
VERTEX
 10
42.000000
 20
20.200000
  8
1
 62
7
  6
CONTINUOUS
  0
VERTEX
 10
42.000000
 20
21.300000
  8
1
 62
7
  6
CONTINUOUS
  0
SEQEND
  0
POLYLINE
  8
1
 62
7
  6
CONTINUOUS
 70
0
 66
1
  0
VERTEX
 10
43.800000
 20
20.200000
  8
1
 62
7
  6
CONTINUOUS
  0
VERTEX
 10
43.800000
 20
21.300000
  8
1
 62
7
  6
CONTINUOUS
  0
SEQEND
  0
POLYLINE
  8
1
 62
7
  6
CONTINUOUS
 70
0
 66
1
  0
VERTEX
 10
45.600000
 20
20.200000
  8
1
 62
7
  6
CONTINUOUS
  0
VERTEX
 10
45.600000
 20
21.300000
  8
1
 62
7
  6
CONTINUOUS
  0
SEQEND
  0
ENDBLK
  0
BLOCK
  8
1
  2
mbk206
 70
 0
 10
0.0
 20
0.0
 30
0.0
  0
POLYLINE
  8
1
 62
7
  6
CONTINUOUS
 70
1
 66
1
  0
VERTEX
 10
49.800000
 20
14.800000
 30
0.000000
  8
1
 62
7
  6
CONTINUOUS
  0
VERTEX
 10
49.800000
 20
0.200000
 30
0.000000
  8
1
 62
7
  6
CONTINUOUS
  0
VERTEX
 10
0.200000
 20
0.200000
 30
0.000000
  8
1
 62
7
  6
CONTINUOUS
  0
VERTEX
 10
0.200000
 20
14.800000
 30
0.000000
  8
1
 62
7
  6
CONTINUOUS
  0
SEQEND
  0
POLYLINE
  8
1
 62
7
  6
L014100020032000000
 70
0
 66
1
  0
VERTEX
 10
0.200000
 20
5.000000
  8
1
 62
7
  6
L014100020032000000
  0
VERTEX
 10
49.800000
 20
5.000000
  8
1
 62
7
  6
L014100020032000000
  0
SEQEND
  0
POLYLINE
  8
1
 62
7
  6
L014100020032000000
 70
0
 66
1
  0
VERTEX
 10
0.200000
 20
9.000000
  8
1
 62
7
  6
L014100020032000000
  0
VERTEX
 10
49.800000
 20
9.000000
  8
1
 62
7
  6
L014100020032000000
  0
SEQEND
  0
LINE
  8
1
 62
7
  6
CONTINUOUS
 10
1.000000
 20
12.900000
 11
1.000000
 21
12.400000
  0
LINE
  8
1
 62
7
  6
CONTINUOUS
 10
1.000000
 20
9.500000
 11
1.000000
 21
10.000000
  0
LINE
  8
1
 62
7
  6
CONTINUOUS
 10
1.400000
 20
11.200000
 11
0.500000
 21
11.200000
  0
CIRCLE
  8
1
 62
7
  6
CONTINUOUS
 10
1.000000
 20
11.200000
 30
0.0
 40
0.700000
  0
LINE
  8
1
 62
7
  6
CONTINUOUS
 10
49.000000
 20
12.900000
 11
49.000000
 21
12.400000
  0
LINE
  8
1
 62
7
  6
CONTINUOUS
 10
49.000000
 20
9.500000
 11
49.000000
 21
10.000000
  0
LINE
  8
1
 62
7
  6
CONTINUOUS
 10
48.600000
 20
11.200000
 11
49.500000
 21
11.200000
  0
CIRCLE
  8
1
 62
7
  6
CONTINUOUS
 10
49.000000
 20
11.200000
 30
0.0
 40
0.700000
  0
LINE
  8
1
 62
7
  6
CONTINUOUS
 10
49.000000
 20
2.100000
 11
49.000000
 21
2.600000
  0
LINE
  8
1
 62
7
  6
CONTINUOUS
 10
49.000000
 20
5.500000
 11
49.000000
 21
5.000000
  0
LINE
  8
1
 62
7
  6
CONTINUOUS
 10
48.600000
 20
3.800000
 11
49.500000
 21
3.800000
  0
CIRCLE
  8
1
 62
7
  6
CONTINUOUS
 10
49.000000
 20
3.800000
 30
0.0
 40
0.700000
  0
LINE
  8
1
 62
7
  6
CONTINUOUS
 10
1.000000
 20
2.100000
 11
1.000000
 21
2.600000
  0
LINE
  8
1
 62
7
  6
CONTINUOUS
 10
1.000000
 20
5.500000
 11
1.000000
 21
5.000000
  0
LINE
  8
1
 62
7
  6
CONTINUOUS
 10
1.400000
 20
3.800000
 11
0.500000
 21
3.800000
  0
CIRCLE
  8
1
 62
7
  6
CONTINUOUS
 10
1.000000
 20
3.800000
 30
0.0
 40
0.700000
  0
ENDBLK
  0
BLOCK
  8
2
  2
ot3_4
 70
 0
 10
0.0
 20
0.0
 30
0.0
  0
POLYLINE
  8
2
 62
7
  6
CONTINUOUS
 70
1
 66
1
  0
VERTEX
 10
7.000000
 20
0.000000
 30
0.000000
  8
2
 62
7
  6
CONTINUOUS
  0
VERTEX
 10
7.000000
 20
4.600000
 30
0.000000
  8
2
 62
7
  6
CONTINUOUS
  0
VERTEX
 10
0.000000
 20
4.600000
 30
0.000000
  8
2
 62
7
  6
CONTINUOUS
  0
VERTEX
 10
0.000000
 20
0.000000
 30
0.000000
  8
2
 62
7
  6
CONTINUOUS
  0
SEQEND
  0
POLYLINE
  8
2
 62
7
  6
CONTINUOUS
 70
1
 66
1
  0
VERTEX
 10
6.900000
 20
4.000000
 30
0.000000
  8
2
 62
7
  6
CONTINUOUS
  0
VERTEX
 10
6.900000
 20
4.500000
 30
0.000000
  8
2
 62
7
  6
CONTINUOUS
  0
VERTEX
 10
0.100000
 20
4.500000
 30
0.000000
  8
2
 62
7
  6
CONTINUOUS
  0
VERTEX
 10
0.100000
 20
4.000000
 30
0.000000
  8
2
 62
7
  6
CONTINUOUS
  0
SEQEND
  0
POLYLINE
  8
2
 62
7
  6
CONTINUOUS
 70
0
 66
1
  0
VERTEX
 10
5.500000
 20
1.700000
  8
2
 62
7
  6
CONTINUOUS
  0
VERTEX
 10
3.200000
 20
1.700000
  8
2
 62
7
  6
CONTINUOUS
  0
SEQEND
  0
POLYLINE
  8
2
 62
7
  6
CONTINUOUS
 70
0
 66
1
  0
VERTEX
 10
3.200000
 20
2.700000
  8
2
 62
7
  6
CONTINUOUS
  0
VERTEX
 10
5.500000
 20
2.700000
  8
2
 62
7
  6
CONTINUOUS
  0
SEQEND
  0
ARC
  8
2
 62
7
  6
CONTINUOUS
 10
3.250000
 20
2.200000
 30
0.000000
 40
0.500000
 50
94.763642
 51
-95.710593
  0
ARC
  8
2
 62
7
  6
CONTINUOUS
 10
3.450000
 20
2.200000
 30
0.000000
 40
0.450000
 50
95.710593
 51
-97.125016
  0
ARC
  8
2
 62
7
  6
CONTINUOUS
 10
5.500000
 20
2.200000
 30
0.000000
 40
0.500000
 50
-90.000000
 51
90.000000
  0
CIRCLE
  8
2
 62
7
  6
CONTINUOUS
 10
3.500000
 20
2.200000
 30
0.0
 40
0.200000
  0
TEXT
  8
2
 62
7
  6
CONTINUOUS
 10
5.100000
 20
3.266667
 40
0.400000
  1
I
 50
0.000000
 51
0.000000
 72
1
 73
0
 11
5.100000
 21
3.266667
  0
TEXT
  8
2
 62
7
  6
CONTINUOUS
 10
5.100000
 20
2.866667
 40
0.400000
  1
ON
 50
0.000000
 51
0.000000
 72
1
 73
0
 11
5.100000
 21
2.866667
  0
TEXT
  8
2
 62
7
  6
CONTINUOUS
 10
0.900000
 20
2.266667
 40
0.400000
  1
O
 50
0.000000
 51
0.000000
 72
1
 73
0
 11
0.900000
 21
2.266667
  0
TEXT
  8
2
 62
7
  6
CONTINUOUS
 10
0.900000
 20
1.866667
 40
0.400000
  1
OFF
 50
0.000000
 51
0.000000
 72
1
 73
0
 11
0.900000
 21
1.866667
  0
POLYLINE
  8
2
 62
7
  6
CONTINUOUS
 70
1
 66
1
  0
VERTEX
 10
9.300000
 20
0.000000
 30
0.000000
  8
2
 62
7
  6
CONTINUOUS
  0
VERTEX
 10
9.300000
 20
4.600000
 30
0.000000
  8
2
 62
7
  6
CONTINUOUS
  0
VERTEX
 10
7.000000
 20
4.600000
 30
0.000000
  8
2
 62
7
  6
CONTINUOUS
  0
VERTEX
 10
7.000000
 20
0.000000
 30
0.000000
  8
2
 62
7
  6
CONTINUOUS
  0
SEQEND
  0
CIRCLE
  8
2
 62
7
  6
CONTINUOUS
 10
3.200000
 20
2.200000
 30
0.0
 40
0.500000
  0
CIRCLE
  8
2
 62
7
  6
CONTINUOUS
 10
5.500000
 20
2.200000
 30
0.0
 40
0.500000
  0
POLYLINE
  8
2
 62
7
  6
CONTINUOUS
 70
1
 66
1
  0
VERTEX
 10
5.500000
 20
1.700000
 30
0.000000
  8
2
 62
7
  6
CONTINUOUS
  0
VERTEX
 10
5.500000
 20
2.700000
 30
0.000000
  8
2
 62
7
  6
CONTINUOUS
  0
VERTEX
 10
3.200000
 20
2.700000
 30
0.000000
  8
2
 62
7
  6
CONTINUOUS
  0
VERTEX
 10
3.200000
 20
1.700000
 30
0.000000
  8
2
 62
7
  6
CONTINUOUS
  0
SEQEND
  0
POLYLINE
  8
2
 62
7
  6
CONTINUOUS
 70
1
 66
1
  0
VERTEX
 10
3.800000
 20
1.900000
 30
0.000000
  8
2
 62
7
  6
CONTINUOUS
  0
VERTEX
 10
3.800000
 20
2.500000
 30
0.000000
  8
2
 62
7
  6
CONTINUOUS
  0
VERTEX
 10
3.200000
 20
2.500000
 30
0.000000
  8
2
 62
7
  6
CONTINUOUS
  0
VERTEX
 10
3.200000
 20
1.900000
 30
0.000000
  8
2
 62
7
  6
CONTINUOUS
  0
SEQEND
  0
ENDBLK
  0
BLOCK
  8
2
  2
brt125a
 70
 0
 10
0.0
 20
0.0
 30
0.0
  0
POLYLINE
  8
2
 62
7
  6
CONTINUOUS
 70
1
 66
1
  0
VERTEX
 10
0.000000
 20
-1.900000
 30
0.000000
  8
2
 62
7
  6
CONTINUOUS
  0
VERTEX
 10
0.000000
 20
6.600000
 30
0.000000
  8
2
 62
7
  6
CONTINUOUS
  0
VERTEX
 10
12.800000
 20
6.600000
 30
0.000000
  8
2
 62
7
  6
CONTINUOUS
  0
VERTEX
 10
12.800000
 20
-1.900000
 30
0.000000
  8
2
 62
7
  6
CONTINUOUS
  0
SEQEND
  0
POLYLINE
  8
2
 62
7
  6
L000000000000000000
 70
1
 66
1
  0
VERTEX
 10
12.200000
 20
-1.700000
 30
0.000000
  8
2
 62
7
  6
L000000000000000000
  0
VERTEX
 10
12.200000
 20
6.400000
 30
0.000000
  8
2
 62
7
  6
L000000000000000000
  0
VERTEX
 10
0.700000
 20
6.400000
 30
0.000000
  8
2
 62
7
  6
L000000000000000000
  0
VERTEX
 10
0.700000
 20
-1.700000
 30
0.000000
  8
2
 62
7
  6
L000000000000000000
  0
SEQEND
  0
POLYLINE
  8
2
 62
7
  6
CONTINUOUS
 70
1
 66
1
  0
VERTEX
 10
0.800000
 20
5.800000
 30
0.000000
  8
2
 62
7
  6
CONTINUOUS
  0
VERTEX
 10
0.800000
 20
6.300000
 30
0.000000
  8
2
 62
7
  6
CONTINUOUS
  0
VERTEX
 10
12.100000
 20
6.300000
 30
0.000000
  8
2
 62
7
  6
CONTINUOUS
  0
VERTEX
 10
12.100000
 20
5.800000
 30
0.000000
  8
2
 62
7
  6
CONTINUOUS
  0
SEQEND
  0
POLYLINE
  8
2
 62
7
  6
L000000000000000000
 70
1
 66
1
  0
VERTEX
 10
0.500000
 20
-1.900000
 30
0.000000
  8
2
 62
7
  6
L000000000000000000
  0
VERTEX
 10
0.500000
 20
6.600000
 30
0.000000
  8
2
 62
7
  6
L000000000000000000
  0
VERTEX
 10
0.000000
 20
6.600000
 30
0.000000
  8
2
 62
7
  6
L000000000000000000
  0
VERTEX
 10
0.000000
 20
-1.900000
 30
0.000000
  8
2
 62
7
  6
L000000000000000000
  0
SEQEND
  0
POLYLINE
  8
2
 62
7
  6
L000000000000000000
 70
1
 66
1
  0
VERTEX
 10
12.800000
 20
-1.900000
 30
0.000000
  8
2
 62
7
  6
L000000000000000000
  0
VERTEX
 10
12.800000
 20
6.600000
 30
0.000000
  8
2
 62
7
  6
L000000000000000000
  0
VERTEX
 10
12.300000
 20
6.600000
 30
0.000000
  8
2
 62
7
  6
L000000000000000000
  0
VERTEX
 10
12.300000
 20
-1.900000
 30
0.000000
  8
2
 62
7
  6
L000000000000000000
  0
SEQEND
  0
CIRCLE
  8
2
 62
7
  6
L000000000000000000
 10
1.400000
 20
-1.200000
 30
0.0
 40
0.300000
  0
CIRCLE
  8
2
 62
7
  6
L000000000000000000
 10
2.300000
 20
-1.200000
 30
0.0
 40
0.300000
  0
CIRCLE
  8
2
 62
7
  6
L000000000000000000
 10
3.200000
 20
-1.200000
 30
0.0
 40
0.300000
  0
CIRCLE
  8
2
 62
7
  6
L000000000000000000
 10
4.100000
 20
-1.200000
 30
0.0
 40
0.300000
  0
CIRCLE
  8
2
 62
7
  6
L000000000000000000
 10
5.000000
 20
-1.200000
 30
0.0
 40
0.300000
  0
CIRCLE
  8
2
 62
7
  6
L000000000000000000
 10
5.900000
 20
-1.200000
 30
0.0
 40
0.300000
  0
CIRCLE
  8
2
 62
7
  6
L000000000000000000
 10
6.800000
 20
-1.200000
 30
0.0
 40
0.300000
  0
CIRCLE
  8
2
 62
7
  6
L000000000000000000
 10
7.700000
 20
-1.200000
 30
0.0
 40
0.300000
  0
CIRCLE
  8
2
 62
7
  6
L000000000000000000
 10
8.600000
 20
-1.200000
 30
0.0
 40
0.300000
  0
CIRCLE
  8
2
 62
7
  6
L000000000000000000
 10
9.500000
 20
-1.200000
 30
0.0
 40
0.300000
  0
CIRCLE
  8
2
 62
7
  6
L000000000000000000
 10
10.400000
 20
-1.200000
 30
0.0
 40
0.300000
  0
CIRCLE
  8
2
 62
7
  6
L000000000000000000
 10
11.300000
 20
-1.200000
 30
0.0
 40
0.300000
  0
POLYLINE
  8
2
 62
7
  6
CONTINUOUS
 70
1
 66
1
  0
VERTEX
 10
7.900000
 20
-0.200000
 30
0.000000
  8
2
 62
7
  6
CONTINUOUS
  0
VERTEX
 10
7.900000
 20
5.300000
 30
0.000000
  8
2
 62
7
  6
CONTINUOUS
  0
VERTEX
 10
5.100000
 20
5.300000
 30
0.000000
  8
2
 62
7
  6
CONTINUOUS
  0
VERTEX
 10
5.100000
 20
-0.200000
 30
0.000000
  8
2
 62
7
  6
CONTINUOUS
  0
SEQEND
  0
POLYLINE
  8
2
 62
7
  6
CONTINUOUS
 70
1
 66
1
  0
VERTEX
 10
6.100000
 20
4.900000
  8
2
 62
7
  6
CONTINUOUS
  0
VERTEX
 10
6.500000
 20
4.900000
  8
2
 62
7
  6
CONTINUOUS
  0
VERTEX
 10
6.200000
 20
2.400000
  8
2
 62
7
  6
CONTINUOUS
  0
VERTEX
 10
6.800000
 20
3.500000
  8
2
 62
7
  6
CONTINUOUS
  0
VERTEX
 10
6.800000
 20
1.300000
  8
2
 62
7
  6
CONTINUOUS
  0
VERTEX
 10
7.000000
 20
1.500000
  8
2
 62
7
  6
CONTINUOUS
  0
VERTEX
 10
6.700000
 20
0.300000
  8
2
 62
7
  6
CONTINUOUS
  0
VERTEX
 10
6.400000
 20
1.400000
  8
2
 62
7
  6
CONTINUOUS
  0
VERTEX
 10
6.600000
 20
1.300000
  8
2
 62
7
  6
CONTINUOUS
  0
VERTEX
 10
6.600000
 20
2.700000
  8
2
 62
7
  6
CONTINUOUS
  0
VERTEX
 10
6.000000
 20
1.700000
  8
2
 62
7
  6
CONTINUOUS
  0
SEQEND
  0
ENDBLK
  0
BLOCK
  8
2
  2
ds201
 70
 0
 10
0.0
 20
0.0
 30
0.0
  0
POLYLINE
  8
2
 62
7
  6
CONTINUOUS
 70
1
 66
1
  0
VERTEX
 10
3.600000
 20
0.000000
 30
0.000000
  8
2
 62
7
  6
CONTINUOUS
  0
VERTEX
 10
3.600000
 20
4.600000
 30
0.000000
  8
2
 62
7
  6
CONTINUOUS
  0
VERTEX
 10
0.000000
 20
4.600000
 30
0.000000
  8
2
 62
7
  6
CONTINUOUS
  0
VERTEX
 10
0.000000
 20
0.000000
 30
0.000000
  8
2
 62
7
  6
CONTINUOUS
  0
SEQEND
  0
POLYLINE
  8
2
 62
7
  6
CONTINUOUS
 70
1
 66
1
  0
VERTEX
 10
0.100000
 20
4.000000
 30
0.000000
  8
2
 62
7
  6
CONTINUOUS
  0
VERTEX
 10
0.100000
 20
4.500000
 30
0.000000
  8
2
 62
7
  6
CONTINUOUS
  0
VERTEX
 10
3.500000
 20
4.500000
 30
0.000000
  8
2
 62
7
  6
CONTINUOUS
  0
VERTEX
 10
3.500000
 20
4.000000
 30
0.000000
  8
2
 62
7
  6
CONTINUOUS
  0
SEQEND
  0
POLYLINE
  8
2
 62
7
  6
L000000000000000000
 70
1
 66
1
  0
VERTEX
 10
0.000000
 20
0.000000
 30
0.000000
  8
2
 62
7
  6
L000000000000000000
  0
VERTEX
 10
0.000000
 20
2.800000
 30
0.000000
  8
2
 62
7
  6
L000000000000000000
  0
VERTEX
 10
3.600000
 20
2.800000
 30
0.000000
  8
2
 62
7
  6
L000000000000000000
  0
VERTEX
 10
3.600000
 20
0.000000
 30
0.000000
  8
2
 62
7
  6
L000000000000000000
  0
SEQEND
  0
POLYLINE
  8
2
 62
7
  6
L000000000000000000
 70
1
 66
1
  0
VERTEX
 10
1.500000
 20
1.100000
 30
0.000000
  8
2
 62
7
  6
L000000000000000000
  0
VERTEX
 10
1.500000
 20
1.400000
 30
0.000000
  8
2
 62
7
  6
L000000000000000000
  0
VERTEX
 10
0.300000
 20
1.400000
 30
0.000000
  8
2
 62
7
  6
L000000000000000000
  0
VERTEX
 10
0.300000
 20
1.100000
 30
0.000000
  8
2
 62
7
  6
L000000000000000000
  0
SEQEND
  0
POLYLINE
  8
2
 62
7
  6
L000000000000000000
 70
1
 66
1
  0
VERTEX
 10
3.300000
 20
1.100000
 30
0.000000
  8
2
 62
7
  6
L000000000000000000
  0
VERTEX
 10
3.300000
 20
1.400000
 30
0.000000
  8
2
 62
7
  6
L000000000000000000
  0
VERTEX
 10
2.100000
 20
1.400000
 30
0.000000
  8
2
 62
7
  6
L000000000000000000
  0
VERTEX
 10
2.100000
 20
1.100000
 30
0.000000
  8
2
 62
7
  6
L000000000000000000
  0
SEQEND
  0
POLYLINE
  8
2
 62
7
  6
L000000000000000000
 70
0
 66
1
  0
VERTEX
 10
0.900000
 20
0.000000
  8
2
 62
7
  6
L000000000000000000
  0
VERTEX
 10
0.900000
 20
2.800000
  8
2
 62
7
  6
L000000000000000000
  0
SEQEND
  0
POLYLINE
  8
2
 62
7
  6
L000000000000000000
 70
0
 66
1
  0
VERTEX
 10
2.700000
 20
0.000000
  8
2
 62
7
  6
L000000000000000000
  0
VERTEX
 10
2.700000
 20
2.800000
  8
2
 62
7
  6
L000000000000000000
  0
SEQEND
  0
POLYLINE
  8
2
 62
255
  6
L000000000000FFFFFF
 70
1
 66
1
  0
VERTEX
 10
1.500000
 20
1.100000
 30
0.000000
  8
2
 62
255
  6
L000000000000FFFFFF
  0
VERTEX
 10
1.500000
 20
2.500000
 30
0.000000
  8
2
 62
255
  6
L000000000000FFFFFF
  0
VERTEX
 10
0.300000
 20
2.500000
 30
0.000000
  8
2
 62
255
  6
L000000000000FFFFFF
  0
VERTEX
 10
0.300000
 20
1.100000
 30
0.000000
  8
2
 62
255
  6
L000000000000FFFFFF
  0
SEQEND
  0
POLYLINE
  8
2
 62
255
  6
L000000000000FFFFFF
 70
1
 66
1
  0
VERTEX
 10
3.300000
 20
1.100000
 30
0.000000
  8
2
 62
255
  6
L000000000000FFFFFF
  0
VERTEX
 10
3.300000
 20
2.500000
 30
0.000000
  8
2
 62
255
  6
L000000000000FFFFFF
  0
VERTEX
 10
2.100000
 20
2.500000
 30
0.000000
  8
2
 62
255
  6
L000000000000FFFFFF
  0
VERTEX
 10
2.100000
 20
1.100000
 30
0.000000
  8
2
 62
255
  6
L000000000000FFFFFF
  0
SEQEND
  0
POLYLINE
  8
2
 62
7
  6
CONTINUOUS
 70
1
 66
1
  0
VERTEX
 10
3.500000
 20
0.900000
 30
0.000000
  8
2
 62
7
  6
CONTINUOUS
  0
VERTEX
 10
3.500000
 20
1.400000
 30
0.000000
  8
2
 62
7
  6
CONTINUOUS
  0
VERTEX
 10
0.100000
 20
1.400000
 30
0.000000
  8
2
 62
7
  6
CONTINUOUS
  0
VERTEX
 10
0.100000
 20
0.900000
 30
0.000000
  8
2
 62
7
  6
CONTINUOUS
  0
SEQEND
  0
POLYLINE
  8
2
 62
255
  6
L000000000000FFFFFF
 70
1
 66
1
  0
VERTEX
 10
1.500000
 20
2.000000
 30
0.000000
  8
2
 62
255
  6
L000000000000FFFFFF
  0
VERTEX
 10
1.500000
 20
2.500000
 30
0.000000
  8
2
 62
255
  6
L000000000000FFFFFF
  0
VERTEX
 10
0.300000
 20
2.500000
 30
0.000000
  8
2
 62
255
  6
L000000000000FFFFFF
  0
VERTEX
 10
0.300000
 20
2.000000
 30
0.000000
  8
2
 62
255
  6
L000000000000FFFFFF
  0
SEQEND
  0
POLYLINE
  8
2
 62
255
  6
L000000000000FFFFFF
 70
1
 66
1
  0
VERTEX
 10
3.300000
 20
2.000000
 30
0.000000
  8
2
 62
255
  6
L000000000000FFFFFF
  0
VERTEX
 10
3.300000
 20
2.500000
 30
0.000000
  8
2
 62
255
  6
L000000000000FFFFFF
  0
VERTEX
 10
2.100000
 20
2.500000
 30
0.000000
  8
2
 62
255
  6
L000000000000FFFFFF
  0
VERTEX
 10
2.100000
 20
2.000000
 30
0.000000
  8
2
 62
255
  6
L000000000000FFFFFF
  0
SEQEND
  0
POLYLINE
  8
2
 62
7
  6
CONTINUOUS
 70
1
 66
1
  0
VERTEX
 10
0.900000
 20
0.600000
 30
0.000000
  8
2
 62
7
  6
CONTINUOUS
  0
VERTEX
 10
0.900000
 20
0.800000
 30
0.000000
  8
2
 62
7
  6
CONTINUOUS
  0
VERTEX
 10
0.500000
 20
0.800000
 30
0.000000
  8
2
 62
7
  6
CONTINUOUS
  0
VERTEX
 10
0.500000
 20
0.600000
 30
0.000000
  8
2
 62
7
  6
CONTINUOUS
  0
SEQEND
  0
POLYLINE
  8
2
 62
7
  6
CONTINUOUS
 70
1
 66
1
  0
VERTEX
 10
2.700000
 20
0.600000
 30
0.000000
  8
2
 62
7
  6
CONTINUOUS
  0
VERTEX
 10
2.700000
 20
0.800000
 30
0.000000
  8
2
 62
7
  6
CONTINUOUS
  0
VERTEX
 10
2.300000
 20
0.800000
 30
0.000000
  8
2
 62
7
  6
CONTINUOUS
  0
VERTEX
 10
2.300000
 20
0.600000
 30
0.000000
  8
2
 62
7
  6
CONTINUOUS
  0
SEQEND
  0
POLYLINE
  8
2
 62
7
  6
CONTINUOUS
 70
1
 66
1
  0
VERTEX
 10
1.200000
 20
3.300000
 30
0.000000
  8
2
 62
7
  6
CONTINUOUS
  0
VERTEX
 10
1.200000
 20
3.700000
 30
0.000000
  8
2
 62
7
  6
CONTINUOUS
  0
VERTEX
 10
0.500000
 20
3.700000
 30
0.000000
  8
2
 62
7
  6
CONTINUOUS
  0
VERTEX
 10
0.500000
 20
3.300000
 30
0.000000
  8
2
 62
7
  6
CONTINUOUS
  0
SEQEND
  0
ENDBLK
  0
BLOCK
  8
2
  2
s202
 70
 0
 10
0.0
 20
0.0
 30
0.0
  0
POLYLINE
  8
2
 62
7
  6
CONTINUOUS
 70
1
 66
1
  0
VERTEX
 10
3.600000
 20
0.000000
 30
0.000000
  8
2
 62
7
  6
CONTINUOUS
  0
VERTEX
 10
3.600000
 20
4.600000
 30
0.000000
  8
2
 62
7
  6
CONTINUOUS
  0
VERTEX
 10
1.800000
 20
4.600000
 30
0.000000
  8
2
 62
7
  6
CONTINUOUS
  0
VERTEX
 10
1.800000
 20
0.000000
 30
0.000000
  8
2
 62
7
  6
CONTINUOUS
  0
SEQEND
  0
LINE
  8
2
 62
7
  6
L000000000000000000
 10
1.800000
 20
2.500000
 11
3.600000
 21
2.500000
  0
POLYLINE
  8
2
 62
7
  6
L000000000000000000
 70
1
 66
1
  0
VERTEX
 10
3.300000
 20
0.900000
 30
0.000000
  8
2
 62
7
  6
L000000000000000000
  0
VERTEX
 10
3.300000
 20
2.300000
 30
0.000000
  8
2
 62
7
  6
L000000000000000000
  0
VERTEX
 10
2.100000
 20
2.300000
 30
0.000000
  8
2
 62
7
  6
L000000000000000000
  0
VERTEX
 10
2.100000
 20
0.900000
 30
0.000000
  8
2
 62
7
  6
L000000000000000000
  0
SEQEND
  0
LINE
  8
2
 62
7
  6
L000000000000000000
 10
2.100000
 20
1.600000
 11
1.800000
 21
1.600000
  0
LINE
  8
2
 62
7
  6
L000000000000000000
 10
3.600000
 20
1.600000
 11
3.300000
 21
1.600000
  0
LINE
  8
2
 62
7
  6
L000000000000000000
 10
3.300000
 20
1.800000
 11
2.100000
 21
1.800000
  0
POLYLINE
  8
2
 62
7
  6
L000000000000000000
 70
1
 66
1
  0
VERTEX
 10
3.300000
 20
0.900000
 30
0.000000
  8
2
 62
7
  6
L000000000000000000
  0
VERTEX
 10
3.300000
 20
1.200000
 30
0.000000
  8
2
 62
7
  6
L000000000000000000
  0
VERTEX
 10
2.100000
 20
1.200000
 30
0.000000
  8
2
 62
7
  6
L000000000000000000
  0
VERTEX
 10
2.100000
 20
0.900000
 30
0.000000
  8
2
 62
7
  6
L000000000000000000
  0
SEQEND
  0
POLYLINE
  8
2
 62
7
  6
CONTINUOUS
 70
1
 66
1
  0
VERTEX
 10
1.900000
 20
4.000000
 30
0.000000
  8
2
 62
7
  6
CONTINUOUS
  0
VERTEX
 10
1.900000
 20
4.500000
 30
0.000000
  8
2
 62
7
  6
CONTINUOUS
  0
VERTEX
 10
3.500000
 20
4.500000
 30
0.000000
  8
2
 62
7
  6
CONTINUOUS
  0
VERTEX
 10
3.500000
 20
4.000000
 30
0.000000
  8
2
 62
7
  6
CONTINUOUS
  0
SEQEND
  0
POLYLINE
  8
2
 62
7
  6
CONTINUOUS
 70
1
 66
1
  0
VERTEX
 10
1.800000
 20
0.000000
 30
0.000000
  8
2
 62
7
  6
CONTINUOUS
  0
VERTEX
 10
1.800000
 20
4.600000
 30
0.000000
  8
2
 62
7
  6
CONTINUOUS
  0
VERTEX
 10
0.000000
 20
4.600000
 30
0.000000
  8
2
 62
7
  6
CONTINUOUS
  0
VERTEX
 10
0.000000
 20
0.000000
 30
0.000000
  8
2
 62
7
  6
CONTINUOUS
  0
SEQEND
  0
LINE
  8
2
 62
7
  6
L000000000000000000
 10
0.000000
 20
2.500000
 11
1.800000
 21
2.500000
  0
POLYLINE
  8
2
 62
7
  6
L000000000000000000
 70
1
 66
1
  0
VERTEX
 10
1.500000
 20
0.900000
 30
0.000000
  8
2
 62
7
  6
L000000000000000000
  0
VERTEX
 10
1.500000
 20
2.300000
 30
0.000000
  8
2
 62
7
  6
L000000000000000000
  0
VERTEX
 10
0.300000
 20
2.300000
 30
0.000000
  8
2
 62
7
  6
L000000000000000000
  0
VERTEX
 10
0.300000
 20
0.900000
 30
0.000000
  8
2
 62
7
  6
L000000000000000000
  0
SEQEND
  0
LINE
  8
2
 62
7
  6
L000000000000000000
 10
0.300000
 20
1.600000
 11
0.000000
 21
1.600000
  0
LINE
  8
2
 62
7
  6
L000000000000000000
 10
1.800000
 20
1.600000
 11
1.500000
 21
1.600000
  0
LINE
  8
2
 62
7
  6
L000000000000000000
 10
1.500000
 20
1.800000
 11
0.300000
 21
1.800000
  0
POLYLINE
  8
2
 62
7
  6
L000000000000000000
 70
1
 66
1
  0
VERTEX
 10
1.500000
 20
0.900000
 30
0.000000
  8
2
 62
7
  6
L000000000000000000
  0
VERTEX
 10
1.500000
 20
1.200000
 30
0.000000
  8
2
 62
7
  6
L000000000000000000
  0
VERTEX
 10
0.300000
 20
1.200000
 30
0.000000
  8
2
 62
7
  6
L000000000000000000
  0
VERTEX
 10
0.300000
 20
0.900000
 30
0.000000
  8
2
 62
7
  6
L000000000000000000
  0
SEQEND
  0
POLYLINE
  8
2
 62
7
  6
CONTINUOUS
 70
1
 66
1
  0
VERTEX
 10
0.100000
 20
4.000000
 30
0.000000
  8
2
 62
7
  6
CONTINUOUS
  0
VERTEX
 10
0.100000
 20
4.500000
 30
0.000000
  8
2
 62
7
  6
CONTINUOUS
  0
VERTEX
 10
1.700000
 20
4.500000
 30
0.000000
  8
2
 62
7
  6
CONTINUOUS
  0
VERTEX
 10
1.700000
 20
4.000000
 30
0.000000
  8
2
 62
7
  6
CONTINUOUS
  0
SEQEND
  0
POLYLINE
  8
2
 62
7
  6
CONTINUOUS
 70
1
 66
1
  0
VERTEX
 10
3.300000
 20
1.400000
 30
0.000000
  8
2
 62
7
  6
CONTINUOUS
  0
VERTEX
 10
3.300000
 20
0.900000
 30
0.000000
  8
2
 62
7
  6
CONTINUOUS
  0
VERTEX
 10
0.300000
 20
0.900000
 30
0.000000
  8
2
 62
7
  6
CONTINUOUS
  0
VERTEX
 10
0.300000
 20
1.400000
 30
0.000000
  8
2
 62
7
  6
CONTINUOUS
  0
SEQEND
  0
ENDBLK
  0
BLOCK
  8
2
  2
s204
 70
 0
 10
0.0
 20
0.0
 30
0.0
  0
POLYLINE
  8
2
 62
7
  6
CONTINUOUS
 70
1
 66
1
  0
VERTEX
 10
1.800000
 20
0.000000
 30
0.000000
  8
2
 62
7
  6
CONTINUOUS
  0
VERTEX
 10
1.800000
 20
4.600000
 30
0.000000
  8
2
 62
7
  6
CONTINUOUS
  0
VERTEX
 10
0.000000
 20
4.600000
 30
0.000000
  8
2
 62
7
  6
CONTINUOUS
  0
VERTEX
 10
0.000000
 20
0.000000
 30
0.000000
  8
2
 62
7
  6
CONTINUOUS
  0
SEQEND
  0
POLYLINE
  8
2
 62
7
  6
L000000000000000000
 70
1
 66
1
  0
VERTEX
 10
1.500000
 20
0.900000
 30
0.000000
  8
2
 62
7
  6
L000000000000000000
  0
VERTEX
 10
1.500000
 20
2.300000
 30
0.000000
  8
2
 62
7
  6
L000000000000000000
  0
VERTEX
 10
0.300000
 20
2.300000
 30
0.000000
  8
2
 62
7
  6
L000000000000000000
  0
VERTEX
 10
0.300000
 20
0.900000
 30
0.000000
  8
2
 62
7
  6
L000000000000000000
  0
SEQEND
  0
LINE
  8
2
 62
7
  6
L000000000000000000
 10
0.300000
 20
1.600000
 11
0.000000
 21
1.600000
  0
LINE
  8
2
 62
7
  6
L000000000000000000
 10
1.500000
 20
1.800000
 11
0.300000
 21
1.800000
  0
POLYLINE
  8
2
 62
7
  6
L000000000000000000
 70
1
 66
1
  0
VERTEX
 10
1.500000
 20
0.900000
 30
0.000000
  8
2
 62
7
  6
L000000000000000000
  0
VERTEX
 10
1.500000
 20
1.200000
 30
0.000000
  8
2
 62
7
  6
L000000000000000000
  0
VERTEX
 10
0.300000
 20
1.200000
 30
0.000000
  8
2
 62
7
  6
L000000000000000000
  0
VERTEX
 10
0.300000
 20
0.900000
 30
0.000000
  8
2
 62
7
  6
L000000000000000000
  0
SEQEND
  0
POLYLINE
  8
2
 62
7
  6
CONTINUOUS
 70
1
 66
1
  0
VERTEX
 10
0.100000
 20
4.000000
 30
0.000000
  8
2
 62
7
  6
CONTINUOUS
  0
VERTEX
 10
0.100000
 20
4.500000
 30
0.000000
  8
2
 62
7
  6
CONTINUOUS
  0
VERTEX
 10
1.700000
 20
4.500000
 30
0.000000
  8
2
 62
7
  6
CONTINUOUS
  0
VERTEX
 10
1.700000
 20
4.000000
 30
0.000000
  8
2
 62
7
  6
CONTINUOUS
  0
SEQEND
  0
POLYLINE
  8
2
 62
7
  6
CONTINUOUS
 70
1
 66
1
  0
VERTEX
 10
5.400000
 20
0.000000
 30
0.000000
  8
2
 62
7
  6
CONTINUOUS
  0
VERTEX
 10
5.400000
 20
4.600000
 30
0.000000
  8
2
 62
7
  6
CONTINUOUS
  0
VERTEX
 10
3.600000
 20
4.600000
 30
0.000000
  8
2
 62
7
  6
CONTINUOUS
  0
VERTEX
 10
3.600000
 20
0.000000
 30
0.000000
  8
2
 62
7
  6
CONTINUOUS
  0
SEQEND
  0
LINE
  8
2
 62
7
  6
L000000000000000000
 10
3.600000
 20
2.500000
 11
5.400000
 21
2.500000
  0
POLYLINE
  8
2
 62
7
  6
L000000000000000000
 70
1
 66
1
  0
VERTEX
 10
5.100000
 20
0.900000
 30
0.000000
  8
2
 62
7
  6
L000000000000000000
  0
VERTEX
 10
5.100000
 20
2.300000
 30
0.000000
  8
2
 62
7
  6
L000000000000000000
  0
VERTEX
 10
3.900000
 20
2.300000
 30
0.000000
  8
2
 62
7
  6
L000000000000000000
  0
VERTEX
 10
3.900000
 20
0.900000
 30
0.000000
  8
2
 62
7
  6
L000000000000000000
  0
SEQEND
  0
LINE
  8
2
 62
7
  6
L000000000000000000
 10
3.900000
 20
1.600000
 11
3.600000
 21
1.600000
  0
LINE
  8
2
 62
7
  6
L000000000000000000
 10
5.400000
 20
1.600000
 11
5.100000
 21
1.600000
  0
LINE
  8
2
 62
7
  6
L000000000000000000
 10
5.100000
 20
1.800000
 11
3.900000
 21
1.800000
  0
POLYLINE
  8
2
 62
7
  6
L000000000000000000
 70
1
 66
1
  0
VERTEX
 10
5.100000
 20
0.900000
 30
0.000000
  8
2
 62
7
  6
L000000000000000000
  0
VERTEX
 10
5.100000
 20
1.200000
 30
0.000000
  8
2
 62
7
  6
L000000000000000000
  0
VERTEX
 10
3.900000
 20
1.200000
 30
0.000000
  8
2
 62
7
  6
L000000000000000000
  0
VERTEX
 10
3.900000
 20
0.900000
 30
0.000000
  8
2
 62
7
  6
L000000000000000000
  0
SEQEND
  0
POLYLINE
  8
2
 62
7
  6
CONTINUOUS
 70
1
 66
1
  0
VERTEX
 10
3.700000
 20
4.000000
 30
0.000000
  8
2
 62
7
  6
CONTINUOUS
  0
VERTEX
 10
3.700000
 20
4.500000
 30
0.000000
  8
2
 62
7
  6
CONTINUOUS
  0
VERTEX
 10
5.300000
 20
4.500000
 30
0.000000
  8
2
 62
7
  6
CONTINUOUS
  0
VERTEX
 10
5.300000
 20
4.000000
 30
0.000000
  8
2
 62
7
  6
CONTINUOUS
  0
SEQEND
  0
LINE
  8
2
 62
7
  6
L000000000000000000
 10
1.800000
 20
2.500000
 11
3.600000
 21
2.500000
  0
LINE
  8
2
 62
7
  6
L000000000000000000
 10
3.600000
 20
1.600000
 11
3.300000
 21
1.600000
  0
POLYLINE
  8
2
 62
7
  6
CONTINUOUS
 70
1
 66
1
  0
VERTEX
 10
3.600000
 20
0.000000
 30
0.000000
  8
2
 62
7
  6
CONTINUOUS
  0
VERTEX
 10
3.600000
 20
4.600000
 30
0.000000
  8
2
 62
7
  6
CONTINUOUS
  0
VERTEX
 10
1.800000
 20
4.600000
 30
0.000000
  8
2
 62
7
  6
CONTINUOUS
  0
VERTEX
 10
1.800000
 20
0.000000
 30
0.000000
  8
2
 62
7
  6
CONTINUOUS
  0
SEQEND
  0
POLYLINE
  8
2
 62
7
  6
L000000000000000000
 70
1
 66
1
  0
VERTEX
 10
3.300000
 20
0.900000
 30
0.000000
  8
2
 62
7
  6
L000000000000000000
  0
VERTEX
 10
3.300000
 20
2.300000
 30
0.000000
  8
2
 62
7
  6
L000000000000000000
  0
VERTEX
 10
2.100000
 20
2.300000
 30
0.000000
  8
2
 62
7
  6
L000000000000000000
  0
VERTEX
 10
2.100000
 20
0.900000
 30
0.000000
  8
2
 62
7
  6
L000000000000000000
  0
SEQEND
  0
LINE
  8
2
 62
7
  6
L000000000000000000
 10
2.100000
 20
1.600000
 11
1.800000
 21
1.600000
  0
LINE
  8
2
 62
7
  6
L000000000000000000
 10
3.600000
 20
1.600000
 11
3.300000
 21
1.600000
  0
LINE
  8
2
 62
7
  6
L000000000000000000
 10
3.300000
 20
1.800000
 11
2.100000
 21
1.800000
  0
POLYLINE
  8
2
 62
7
  6
L000000000000000000
 70
1
 66
1
  0
VERTEX
 10
3.300000
 20
0.900000
 30
0.000000
  8
2
 62
7
  6
L000000000000000000
  0
VERTEX
 10
3.300000
 20
1.200000
 30
0.000000
  8
2
 62
7
  6
L000000000000000000
  0
VERTEX
 10
2.100000
 20
1.200000
 30
0.000000
  8
2
 62
7
  6
L000000000000000000
  0
VERTEX
 10
2.100000
 20
0.900000
 30
0.000000
  8
2
 62
7
  6
L000000000000000000
  0
SEQEND
  0
POLYLINE
  8
2
 62
7
  6
CONTINUOUS
 70
1
 66
1
  0
VERTEX
 10
1.900000
 20
4.000000
 30
0.000000
  8
2
 62
7
  6
CONTINUOUS
  0
VERTEX
 10
1.900000
 20
4.500000
 30
0.000000
  8
2
 62
7
  6
CONTINUOUS
  0
VERTEX
 10
3.500000
 20
4.500000
 30
0.000000
  8
2
 62
7
  6
CONTINUOUS
  0
VERTEX
 10
3.500000
 20
4.000000
 30
0.000000
  8
2
 62
7
  6
CONTINUOUS
  0
SEQEND
  0
LINE
  8
2
 62
7
  6
L000000000000000000
 10
0.000000
 20
2.500000
 11
1.800000
 21
2.500000
  0
LINE
  8
2
 62
7
  6
L000000000000000000
 10
1.800000
 20
1.600000
 11
1.500000
 21
1.600000
  0
LINE
  8
2
 62
7
  6
L000000000000000000
 10
1.800000
 20
2.500000
 11
3.600000
 21
2.500000
  0
POLYLINE
  8
2
 62
7
  6
CONTINUOUS
 70
1
 66
1
  0
VERTEX
 10
7.200000
 20
0.000000
 30
0.000000
  8
2
 62
7
  6
CONTINUOUS
  0
VERTEX
 10
7.200000
 20
4.600000
 30
0.000000
  8
2
 62
7
  6
CONTINUOUS
  0
VERTEX
 10
5.400000
 20
4.600000
 30
0.000000
  8
2
 62
7
  6
CONTINUOUS
  0
VERTEX
 10
5.400000
 20
0.000000
 30
0.000000
  8
2
 62
7
  6
CONTINUOUS
  0
SEQEND
  0
LINE
  8
2
 62
7
  6
L000000000000000000
 10
5.400000
 20
2.500000
 11
7.200000
 21
2.500000
  0
POLYLINE
  8
2
 62
7
  6
L000000000000000000
 70
1
 66
1
  0
VERTEX
 10
6.900000
 20
0.900000
 30
0.000000
  8
2
 62
7
  6
L000000000000000000
  0
VERTEX
 10
6.900000
 20
2.300000
 30
0.000000
  8
2
 62
7
  6
L000000000000000000
  0
VERTEX
 10
5.700000
 20
2.300000
 30
0.000000
  8
2
 62
7
  6
L000000000000000000
  0
VERTEX
 10
5.700000
 20
0.900000
 30
0.000000
  8
2
 62
7
  6
L000000000000000000
  0
SEQEND
  0
LINE
  8
2
 62
7
  6
L000000000000000000
 10
5.700000
 20
1.600000
 11
5.400000
 21
1.600000
  0
LINE
  8
2
 62
7
  6
L000000000000000000
 10
7.200000
 20
1.600000
 11
6.900000
 21
1.600000
  0
LINE
  8
2
 62
7
  6
L000000000000000000
 10
6.900000
 20
1.800000
 11
5.700000
 21
1.800000
  0
POLYLINE
  8
2
 62
7
  6
L000000000000000000
 70
1
 66
1
  0
VERTEX
 10
6.900000
 20
0.900000
 30
0.000000
  8
2
 62
7
  6
L000000000000000000
  0
VERTEX
 10
6.900000
 20
1.200000
 30
0.000000
  8
2
 62
7
  6
L000000000000000000
  0
VERTEX
 10
5.700000
 20
1.200000
 30
0.000000
  8
2
 62
7
  6
L000000000000000000
  0
VERTEX
 10
5.700000
 20
0.900000
 30
0.000000
  8
2
 62
7
  6
L000000000000000000
  0
SEQEND
  0
POLYLINE
  8
2
 62
7
  6
CONTINUOUS
 70
1
 66
1
  0
VERTEX
 10
5.500000
 20
4.000000
 30
0.000000
  8
2
 62
7
  6
CONTINUOUS
  0
VERTEX
 10
5.500000
 20
4.500000
 30
0.000000
  8
2
 62
7
  6
CONTINUOUS
  0
VERTEX
 10
7.100000
 20
4.500000
 30
0.000000
  8
2
 62
7
  6
CONTINUOUS
  0
VERTEX
 10
7.100000
 20
4.000000
 30
0.000000
  8
2
 62
7
  6
CONTINUOUS
  0
SEQEND
  0
POLYLINE
  8
2
 62
7
  6
CONTINUOUS
 70
1
 66
1
  0
VERTEX
 10
6.900000
 20
1.400000
 30
0.000000
  8
2
 62
7
  6
CONTINUOUS
  0
VERTEX
 10
6.900000
 20
0.900000
 30
0.000000
  8
2
 62
7
  6
CONTINUOUS
  0
VERTEX
 10
0.300000
 20
0.900000
 30
0.000000
  8
2
 62
7
  6
CONTINUOUS
  0
VERTEX
 10
0.300000
 20
1.400000
 30
0.000000
  8
2
 62
7
  6
CONTINUOUS
  0
SEQEND
  0
ENDBLK
  0
BLOCK
  8
2
  2
f374
 70
 0
 10
0.0
 20
0.0
 30
0.0
  0
POLYLINE
  8
2
 62
7
  6
CONTINUOUS
 70
1
 66
1
  0
VERTEX
 10
5.400000
 20
0.000000
 30
0.000000
  8
2
 62
7
  6
CONTINUOUS
  0
VERTEX
 10
5.400000
 20
4.600000
 30
0.000000
  8
2
 62
7
  6
CONTINUOUS
  0
VERTEX
 10
0.000000
 20
4.600000
 30
0.000000
  8
2
 62
7
  6
CONTINUOUS
  0
VERTEX
 10
0.000000
 20
0.000000
 30
0.000000
  8
2
 62
7
  6
CONTINUOUS
  0
SEQEND
  0
POLYLINE
  8
2
 62
7
  6
CONTINUOUS
 70
1
 66
1
  0
VERTEX
 10
0.100000
 20
4.000000
 30
0.000000
  8
2
 62
7
  6
CONTINUOUS
  0
VERTEX
 10
0.100000
 20
4.500000
 30
0.000000
  8
2
 62
7
  6
CONTINUOUS
  0
VERTEX
 10
1.700000
 20
4.500000
 30
0.000000
  8
2
 62
7
  6
CONTINUOUS
  0
VERTEX
 10
1.700000
 20
4.000000
 30
0.000000
  8
2
 62
7
  6
CONTINUOUS
  0
SEQEND
  0
POLYLINE
  8
2
 62
7
  6
CONTINUOUS
 70
1
 66
1
  0
VERTEX
 10
7.200000
 20
0.000000
 30
0.000000
  8
2
 62
7
  6
CONTINUOUS
  0
VERTEX
 10
7.200000
 20
4.600000
 30
0.000000
  8
2
 62
7
  6
CONTINUOUS
  0
VERTEX
 10
5.400000
 20
4.600000
 30
0.000000
  8
2
 62
7
  6
CONTINUOUS
  0
VERTEX
 10
5.400000
 20
0.000000
 30
0.000000
  8
2
 62
7
  6
CONTINUOUS
  0
SEQEND
  0
LINE
  8
2
 62
7
  6
L000000000000000000
 10
5.400000
 20
3.000000
 11
7.200000
 21
3.000000
  0
POLYLINE
  8
2
 62
7
  6
L000000000000000000
 70
1
 66
1
  0
VERTEX
 10
6.500000
 20
1.400000
 30
0.000000
  8
2
 62
7
  6
L000000000000000000
  0
VERTEX
 10
6.500000
 20
2.800000
 30
0.000000
  8
2
 62
7
  6
L000000000000000000
  0
VERTEX
 10
5.500000
 20
2.800000
 30
0.000000
  8
2
 62
7
  6
L000000000000000000
  0
VERTEX
 10
5.500000
 20
1.400000
 30
0.000000
  8
2
 62
7
  6
L000000000000000000
  0
SEQEND
  0
LINE
  8
2
 62
7
  6
L000000000000000000
 10
5.800000
 20
1.600000
 11
5.400000
 21
1.600000
  0
LINE
  8
2
 62
7
  6
L000000000000000000
 10
7.200000
 20
1.600000
 11
6.500000
 21
1.600000
  0
LINE
  8
2
 62
7
  6
L000000000000000000
 10
6.500000
 20
2.300000
 11
5.500000
 21
2.300000
  0
POLYLINE
  8
2
 62
7
  6
L000000000000000000
 70
1
 66
1
  0
VERTEX
 10
6.500000
 20
1.400000
 30
0.000000
  8
2
 62
7
  6
L000000000000000000
  0
VERTEX
 10
6.500000
 20
1.700000
 30
0.000000
  8
2
 62
7
  6
L000000000000000000
  0
VERTEX
 10
5.500000
 20
1.700000
 30
0.000000
  8
2
 62
7
  6
L000000000000000000
  0
VERTEX
 10
5.500000
 20
1.400000
 30
0.000000
  8
2
 62
7
  6
L000000000000000000
  0
SEQEND
  0
POLYLINE
  8
2
 62
7
  6
CONTINUOUS
 70
1
 66
1
  0
VERTEX
 10
5.500000
 20
4.000000
 30
0.000000
  8
2
 62
7
  6
CONTINUOUS
  0
VERTEX
 10
5.500000
 20
4.500000
 30
0.000000
  8
2
 62
7
  6
CONTINUOUS
  0
VERTEX
 10
7.100000
 20
4.500000
 30
0.000000
  8
2
 62
7
  6
CONTINUOUS
  0
VERTEX
 10
7.100000
 20
4.000000
 30
0.000000
  8
2
 62
7
  6
CONTINUOUS
  0
SEQEND
  0
POLYLINE
  8
2
 62
7
  6
CONTINUOUS
 70
0
 66
1
  0
VERTEX
 10
1.800000
 20
4.600000
  8
2
 62
7
  6
CONTINUOUS
  0
VERTEX
 10
1.800000
 20
0.000000
  8
2
 62
7
  6
CONTINUOUS
  0
SEQEND
  0
POLYLINE
  8
2
 62
7
  6
CONTINUOUS
 70
1
 66
1
  0
VERTEX
 10
3.600000
 20
0.000000
 30
0.000000
  8
2
 62
7
  6
CONTINUOUS
  0
VERTEX
 10
3.600000
 20
0.800000
 30
0.000000
  8
2
 62
7
  6
CONTINUOUS
  0
VERTEX
 10
5.400000
 20
0.800000
 30
0.000000
  8
2
 62
7
  6
CONTINUOUS
  0
VERTEX
 10
5.400000
 20
0.000000
 30
0.000000
  8
2
 62
7
  6
CONTINUOUS
  0
SEQEND
  0
POLYLINE
  8
2
 62
7
  6
CONTINUOUS
 70
0
 66
1
  0
VERTEX
 10
3.600000
 20
0.100000
  8
2
 62
7
  6
CONTINUOUS
  0
VERTEX
 10
5.400000
 20
0.100000
  8
2
 62
7
  6
CONTINUOUS
  0
SEQEND
  0
POLYLINE
  8
2
 62
7
  6
CONTINUOUS
 70
1
 66
1
  0
VERTEX
 10
5.200000
 20
3.800000
 30
0.000000
  8
2
 62
7
  6
CONTINUOUS
  0
VERTEX
 10
5.200000
 20
4.600000
 30
0.000000
  8
2
 62
7
  6
CONTINUOUS
  0
VERTEX
 10
3.800000
 20
4.600000
 30
0.000000
  8
2
 62
7
  6
CONTINUOUS
  0
VERTEX
 10
3.800000
 20
3.800000
 30
0.000000
  8
2
 62
7
  6
CONTINUOUS
  0
SEQEND
  0
ENDBLK
  0
BLOCK
  8
2
  2
esb24
 70
 0
 10
0.0
 20
0.0
 30
0.0
  0
POLYLINE
  8
2
 62
7
  6
CONTINUOUS
 70
1
 66
1
  0
VERTEX
 10
3.600000
 20
0.000000
 30
0.000000
  8
2
 62
7
  6
CONTINUOUS
  0
VERTEX
 10
3.600000
 20
4.600000
 30
0.000000
  8
2
 62
7
  6
CONTINUOUS
  0
VERTEX
 10
0.000000
 20
4.600000
 30
0.000000
  8
2
 62
7
  6
CONTINUOUS
  0
VERTEX
 10
0.000000
 20
0.000000
 30
0.000000
  8
2
 62
7
  6
CONTINUOUS
  0
SEQEND
  0
POLYLINE
  8
2
 62
7
  6
CONTINUOUS
 70
1
 66
1
  0
VERTEX
 10
0.100000
 20
4.000000
 30
0.000000
  8
2
 62
7
  6
CONTINUOUS
  0
VERTEX
 10
0.100000
 20
4.500000
 30
0.000000
  8
2
 62
7
  6
CONTINUOUS
  0
VERTEX
 10
3.500000
 20
4.500000
 30
0.000000
  8
2
 62
7
  6
CONTINUOUS
  0
VERTEX
 10
3.500000
 20
4.000000
 30
0.000000
  8
2
 62
7
  6
CONTINUOUS
  0
SEQEND
  0
POLYLINE
  8
2
 62
7
  6
CONTINUOUS
 70
1
 66
1
  0
VERTEX
 10
1.800000
 20
0.800000
 30
0.000000
  8
2
 62
7
  6
CONTINUOUS
  0
VERTEX
 10
1.800000
 20
0.000000
 30
0.000000
  8
2
 62
7
  6
CONTINUOUS
  0
VERTEX
 10
0.000000
 20
0.000000
 30
0.000000
  8
2
 62
7
  6
CONTINUOUS
  0
VERTEX
 10
0.000000
 20
0.800000
 30
0.000000
  8
2
 62
7
  6
CONTINUOUS
  0
SEQEND
  0
LINE
  8
2
 62
7
  6
CONTINUOUS
 10
1.800000
 20
0.500000
 11
0.000000
 21
0.500000
  0
POLYLINE
  8
2
 62
7
  6
CONTINUOUS
 70
1
 66
1
  0
VERTEX
 10
2.900000
 20
1.200000
 30
0.000000
  8
2
 62
7
  6
CONTINUOUS
  0
VERTEX
 10
2.900000
 20
1.400000
 30
0.000000
  8
2
 62
7
  6
CONTINUOUS
  0
VERTEX
 10
2.500000
 20
1.400000
 30
0.000000
  8
2
 62
7
  6
CONTINUOUS
  0
VERTEX
 10
2.500000
 20
1.200000
 30
0.000000
  8
2
 62
7
  6
CONTINUOUS
  0
SEQEND
  0
ENDBLK
  0
BLOCK
  8
2
  2
ts25
 70
 0
 10
0.0
 20
0.0
 30
0.0
  0
POLYLINE
  8
2
 62
7
  6
CONTINUOUS
 70
1
 66
1
  0
VERTEX
 10
7.000000
 20
0.000000
 30
0.000000
  8
2
 62
7
  6
CONTINUOUS
  0
VERTEX
 10
7.000000
 20
4.600000
 30
0.000000
  8
2
 62
7
  6
CONTINUOUS
  0
VERTEX
 10
0.000000
 20
4.600000
 30
0.000000
  8
2
 62
7
  6
CONTINUOUS
  0
VERTEX
 10
0.000000
 20
0.000000
 30
0.000000
  8
2
 62
7
  6
CONTINUOUS
  0
SEQEND
  0
POLYLINE
  8
2
 62
7
  6
CONTINUOUS
 70
1
 66
1
  0
VERTEX
 10
0.100000
 20
4.000000
 30
0.000000
  8
2
 62
7
  6
CONTINUOUS
  0
VERTEX
 10
0.100000
 20
4.500000
 30
0.000000
  8
2
 62
7
  6
CONTINUOUS
  0
VERTEX
 10
6.900000
 20
4.500000
 30
0.000000
  8
2
 62
7
  6
CONTINUOUS
  0
VERTEX
 10
6.900000
 20
4.000000
 30
0.000000
  8
2
 62
7
  6
CONTINUOUS
  0
SEQEND
  0
CIRCLE
  8
2
 62
7
  6
CONTINUOUS
 10
3.500000
 20
1.500000
 30
0.0
 40
0.600000
  0
CIRCLE
  8
2
 62
7
  6
CONTINUOUS
 10
3.500000
 20
2.400000
 30
0.0
 40
0.600000
  0
POLYLINE
  8
2
 62
7
  6
CONTINUOUS
 70
0
 66
1
  0
VERTEX
 10
3.500000
 20
0.300000
  8
2
 62
7
  6
CONTINUOUS
  0
VERTEX
 10
3.500000
 20
0.900000
  8
2
 62
7
  6
CONTINUOUS
  0
SEQEND
  0
POLYLINE
  8
2
 62
7
  6
CONTINUOUS
 70
0
 66
1
  0
VERTEX
 10
3.500000
 20
3.000000
  8
2
 62
7
  6
CONTINUOUS
  0
VERTEX
 10
3.500000
 20
3.600000
  8
2
 62
7
  6
CONTINUOUS
  0
SEQEND
  0
ENDBLK
  0
ENDSEC
  0
SECTION
  2
ENTITIES
  0
INSERT
  8
0
 2
abba4_hh
 10
10.000000
 20
15.000000
 30
0.0
 50
0.0
  0
INSERT
  8
0
 2
tg206g
 10
35.000000
 20
69.800000
 30
0.0
 50
0.0
  0
TEXT
  8
12
 62
7
  6
CONTINUOUS
 10
86.500000
 20
165.300000
 40
3.000000
  1
TG206G
 50
0.000000
 51
0.000000
 72
2
 73
0
 11
86.500000
 21
165.300000
  0
INSERT
  8
1
 2
mbg423
 10
35.000000
 20
69.800000
 30
0.0
 50
0.0
  0
INSERT
  8
1
 2
mbg422
 10
35.000000
 20
114.800000
 30
0.0
 50
0.0
  0
INSERT
  8
1
 2
mbk206
 10
35.000000
 20
144.800000
 30
0.0
 50
0.0
  0
INSERT
  8
2
 2
ot3_4
 10
37.600000
 20
135.000000
 30
0.0
 50
0.0
  0
TEXT
  8
41
 62
7
  6
CONTINUOUS
 10
42.500000
 20
139.900000
 40
1.500000
  1
HS
 50
90.000000
 51
0.000000
 72
0
 73
0
  0
INSERT
  8
2
 2
brt125a
 10
37.600000
 20
75.000000
 30
0.0
 50
0.0
  0
TEXT
  8
41
 62
7
  6
CONTINUOUS
 10
44.500000
 20
81.900000
 40
1.500000
  1
VB
 50
90.000000
 51
0.000000
 72
0
 73
0
  0
INSERT
  8
2
 2
ds201
 10
37.600000
 20
120.000000
 30
0.0
 50
0.0
  0
TEXT
  8
41
 62
7
  6
CONTINUOUS
 10
39.900000
 20
124.900000
 40
1.500000
  1
1
 50
90.000000
 51
0.000000
 72
0
 73
0
  0
INSERT
  8
2
 2
ds201
 10
41.200000
 20
120.000000
 30
0.0
 50
0.0
  0
TEXT
  8
41
 62
7
  6
CONTINUOUS
 10
43.500000
 20
124.900000
 40
1.500000
  1
2
 50
90.000000
 51
0.000000
 72
0
 73
0
  0
INSERT
  8
2
 2
ds201
 10
44.800000
 20
120.000000
 30
0.0
 50
0.0
  0
TEXT
  8
41
 62
7
  6
CONTINUOUS
 10
47.100000
 20
124.900000
 40
1.500000
  1
3
 50
90.000000
 51
0.000000
 72
0
 73
0
  0
INSERT
  8
2
 2
ds201
 10
48.400000
 20
120.000000
 30
0.0
 50
0.0
  0
TEXT
  8
41
 62
7
  6
CONTINUOUS
 10
50.700000
 20
124.900000
 40
1.500000
  1
4
 50
90.000000
 51
0.000000
 72
0
 73
0
  0
INSERT
  8
2
 2
ds201
 10
37.600000
 20
105.000000
 30
0.0
 50
0.0
  0
TEXT
  8
41
 62
7
  6
CONTINUOUS
 10
39.900000
 20
109.900000
 40
1.500000
  1
5
 50
90.000000
 51
0.000000
 72
0
 73
0
  0
INSERT
  8
2
 2
ds201
 10
41.200000
 20
105.000000
 30
0.0
 50
0.0
  0
TEXT
  8
41
 62
7
  6
CONTINUOUS
 10
43.500000
 20
109.900000
 40
1.500000
  1
6
 50
90.000000
 51
0.000000
 72
0
 73
0
  0
INSERT
  8
2
 2
ds201
 10
44.800000
 20
105.000000
 30
0.0
 50
0.0
  0
TEXT
  8
41
 62
7
  6
CONTINUOUS
 10
47.100000
 20
109.900000
 40
1.500000
  1
7
 50
90.000000
 51
0.000000
 72
0
 73
0
  0
INSERT
  8
2
 2
ds201
 10
48.400000
 20
105.000000
 30
0.0
 50
0.0
  0
TEXT
  8
41
 62
7
  6
CONTINUOUS
 10
50.700000
 20
109.900000
 40
1.500000
  1
8
 50
90.000000
 51
0.000000
 72
0
 73
0
  0
INSERT
  8
2
 2
ds201
 10
52.000000
 20
105.000000
 30
0.0
 50
0.0
  0
TEXT
  8
41
 62
7
  6
CONTINUOUS
 10
54.300000
 20
109.900000
 40
1.500000
  1
9
 50
90.000000
 51
0.000000
 72
0
 73
0
  0
INSERT
  8
2
 2
ds201
 10
55.600000
 20
105.000000
 30
0.0
 50
0.0
  0
TEXT
  8
41
 62
7
  6
CONTINUOUS
 10
57.900000
 20
109.900000
 40
1.500000
  1
10
 50
90.000000
 51
0.000000
 72
0
 73
0
  0
INSERT
  8
2
 2
s202
 10
37.600000
 20
90.000000
 30
0.0
 50
0.0
  0
TEXT
  8
41
 62
7
  6
CONTINUOUS
 10
39.900000
 20
94.900000
 40
1.500000
  1
11
 50
90.000000
 51
0.000000
 72
0
 73
0
  0
INSERT
  8
2
 2
s202
 10
41.300000
 20
90.000000
 30
0.0
 50
0.0
  0
TEXT
  8
41
 62
7
  6
CONTINUOUS
 10
43.600000
 20
94.900000
 40
1.500000
  1
12
 50
90.000000
 51
0.000000
 72
0
 73
0
  0
INSERT
  8
2
 2
s202
 10
44.900000
 20
90.000000
 30
0.0
 50
0.0
  0
TEXT
  8
41
 62
7
  6
CONTINUOUS
 10
47.200000
 20
94.900000
 40
1.500000
  1
13
 50
90.000000
 51
0.000000
 72
0
 73
0
  0
INSERT
  8
2
 2
s204
 10
60.800000
 20
120.000000
 30
0.0
 50
0.0
  0
TEXT
  8
41
 62
7
  6
CONTINUOUS
 10
64.900000
 20
124.900000
 40
1.500000
  1
K1
 50
90.000000
 51
0.000000
 72
0
 73
0
  0
INSERT
  8
2
 2
s204
 10
68.000000
 20
120.000000
 30
0.0
 50
0.0
  0
TEXT
  8
41
 62
7
  6
CONTINUOUS
 10
72.100000
 20
124.900000
 40
1.500000
  1
K2
 50
90.000000
 51
0.000000
 72
0
 73
0
  0
INSERT
  8
2
 2
s204
 10
75.200000
 20
120.000000
 30
0.0
 50
0.0
  0
TEXT
  8
41
 62
7
  6
CONTINUOUS
 10
79.300000
 20
124.900000
 40
1.500000
  1
K3
 50
90.000000
 51
0.000000
 72
0
 73
0
  0
INSERT
  8
2
 2
s204
 10
68.000000
 20
90.000000
 30
0.0
 50
0.0
  0
TEXT
  8
41
 62
7
  6
CONTINUOUS
 10
72.100000
 20
94.900000
 40
1.500000
  1
K4
 50
90.000000
 51
0.000000
 72
0
 73
0
  0
INSERT
  8
2
 2
f374
 10
60.800000
 20
90.000000
 30
0.0
 50
0.0
  0
TEXT
  8
41
 62
7
  6
CONTINUOUS
 10
64.900000
 20
94.900000
 40
1.500000
  1
ALS
 50
90.000000
 51
0.000000
 72
0
 73
0
  0
INSERT
  8
2
 2
esb24
 10
60.800000
 20
135.000000
 30
0.0
 50
0.0
  0
TEXT
  8
41
 62
7
  6
CONTINUOUS
 10
63.100000
 20
139.900000
 40
1.500000
  1
Q1
 50
90.000000
 51
0.000000
 72
0
 73
0
  0
INSERT
  8
2
 2
ts25
 10
75.200000
 20
135.000000
 30
0.0
 50
0.0
  0
TEXT
  8
41
 62
7
  6
CONTINUOUS
 10
79.200000
 20
139.900000
 40
1.500000
  1
T1
 50
90.000000
 51
0.000000
 72
0
 73
0
  0
TEXT
  8
0
 62
7
  6
CONTINUOUS
 10
34.600000
 20
170.700000
 40
3.000000
  1
Membraaminvoer deksels
 50
0.000000
 51
0.000000
 72
0
 73
0
  0
TEXT
  8
0
 62
7
  6
CONTINUOUS
 10
128.400000
 20
106.666667
 40
2.500000
  1
1 x Hoofdschakelaar 125 Amp. 4 polig
 50
0.000000
 51
0.000000
 72
0
 73
0
  0
TEXT
  8
0
 62
7
  6
CONTINUOUS
 10
128.400000
 20
104.166667
 40
2.500000
  1
1 x Verdeelblok 125 Amp
 50
0.000000
 51
0.000000
 72
0
 73
0
  0
TEXT
  8
0
 62
7
  6
CONTINUOUS
 10
128.400000
 20
101.666667
 40
2.500000
  1

 50
0.000000
 51
0.000000
 72
0
 73
0
  0
TEXT
  8
0
 62
7
  6
CONTINUOUS
 10
128.400000
 20
99.166667
 40
2.500000
  1
4 x Aardlekautomaat 1p+N B16/0.03 Amp.
 50
0.000000
 51
0.000000
 72
0
 73
0
  0
TEXT
  8
0
 62
7
  6
CONTINUOUS
 10
128.400000
 20
96.666667
 40
2.500000
  1
6 x Aardlekautomaat 1p+N C32/0.03 Amp.
 50
0.000000
 51
0.000000
 72
0
 73
0
  0
TEXT
  8
0
 62
7
  6
CONTINUOUS
 10
128.400000
 20
94.166667
 40
2.500000
  1

 50
0.000000
 51
0.000000
 72
0
 73
0
  0
TEXT
  8
0
 62
7
  6
CONTINUOUS
 10
128.400000
 20
91.666667
 40
2.500000
  1
1 x Automaat 16 Amp. 1 polig + N B-kar.
 50
0.000000
 51
0.000000
 72
0
 73
0
  0
TEXT
  8
0
 62
7
  6
CONTINUOUS
 10
128.400000
 20
89.166667
 40
2.500000
  1
2 x Automaat 6 Amp. 1 polig + N B-kar.
 50
0.000000
 51
0.000000
 72
0
 73
0
  0
TEXT
  8
0
 62
7
  6
CONTINUOUS
 10
128.400000
 20
86.666667
 40
2.500000
  1

 50
0.000000
 51
0.000000
 72
0
 73
0
  0
TEXT
  8
0
 62
7
  6
CONTINUOUS
 10
128.400000
 20
84.166667
 40
2.500000
  1
1 x Automaat 32 Amp. 3 polig + N B-kar.
 50
0.000000
 51
0.000000
 72
0
 73
0
  0
TEXT
  8
0
 62
7
  6
CONTINUOUS
 10
128.400000
 20
81.666667
 40
2.500000
  1
1 x Automaat 32 Amp. 3 polig + N C-kar.
 50
0.000000
 51
0.000000
 72
0
 73
0
  0
TEXT
  8
0
 62
7
  6
CONTINUOUS
 10
128.400000
 20
79.166667
 40
2.500000
  1
1 x Automaat 16 Amp. 3 polig + N B-kar.
 50
0.000000
 51
0.000000
 72
0
 73
0
  0
TEXT
  8
0
 62
7
  6
CONTINUOUS
 10
128.400000
 20
76.666667
 40
2.500000
  1

 50
0.000000
 51
0.000000
 72
0
 73
0
  0
TEXT
  8
0
 62
7
  6
CONTINUOUS
 10
128.400000
 20
74.166667
 40
2.500000
  1
1 x Aardlek blok 4p 63/0,03 Amp.
 50
0.000000
 51
0.000000
 72
0
 73
0
  0
TEXT
  8
0
 62
7
  6
CONTINUOUS
 10
128.400000
 20
71.666667
 40
2.500000
  1
1 x Automaat 63 Amp. 3 polig + N B-kar.
 50
0.000000
 51
0.000000
 72
0
 73
0
  0
TEXT
  8
0
 62
7
  6
CONTINUOUS
 10
128.400000
 20
69.166667
 40
2.500000
  1

 50
0.000000
 51
0.000000
 72
0
 73
0
  0
TEXT
  8
0
 62
7
  6
CONTINUOUS
 10
128.400000
 20
66.666667
 40
2.500000
  1
1 x Magneetschakelaar 4p 25 Amp. 24vac
 50
0.000000
 51
0.000000
 72
0
 73
0
  0
TEXT
  8
0
 62
7
  6
CONTINUOUS
 10
128.400000
 20
64.166667
 40
2.500000
  1
1 x Voeding 230/24vdc
 50
0.000000
 51
0.000000
 72
0
 73
0
  0
TEXT
  8
0
 62
7
  6
CONTINUOUS
 10
128.400000
 20
61.666667
 40
2.500000
  1

 50
0.000000
 51
0.000000
 72
0
 73
0
  0
TEXT
  8
0
 62
7
  6
CONTINUOUS
 10
128.400000
 20
59.166667
 40
2.500000
  1
Rijgklemmen
 50
0.000000
 51
0.000000
 72
0
 73
0
  0
TEXT
  8
0
 62
7
  6
CONTINUOUS
 10
128.400000
 20
56.666667
 40
2.500000
  1

 50
0.000000
 51
0.000000
 72
0
 73
0
  0
TEXT
  8
0
 62
7
  6
CONTINUOUS
 10
127.700000
 20
182.766667
 40
10.000000
  1
OVI
 50
0.000000
 51
0.000000
 72
0
 73
0
  0
TEXT
  8
0
 62
7
  6
CONTINUOUS
 10
128.600000
 20
169.033333
 40
3.500000
  1
Wandkast plaatstaal geaard
 50
0.000000
 51
0.000000
 72
0
 73
0
  0
TEXT
  8
0
 62
7
  6
CONTINUOUS
 10
128.600000
 20
165.533333
 40
3.500000
  1
IP 55 RAL-7035 incl. schematas
 50
0.000000
 51
0.000000
 72
0
 73
0
  0
TEXT
  8
0
 62
7
  6
CONTINUOUS
 10
128.600000
 20
162.033333
 40
3.500000
  1
Stroomstelsel: TN-S
 50
0.000000
 51
0.000000
 72
0
 73
0
  0
TEXT
  8
0
 62
7
  6
CONTINUOUS
 10
128.600000
 20
158.533333
 40
3.500000
  1
Spanning: 230/400vac 50Hz
 50
0.000000
 51
0.000000
 72
0
 73
0
  0
TEXT
  8
0
 62
7
  6
CONTINUOUS
 10
128.600000
 20
155.033333
 40
3.500000
  1
Bouwvorm:1
 50
0.000000
 51
0.000000
 72
0
 73
0
  0
TEXT
  8
0
 62
7
  6
CONTINUOUS
 10
128.600000
 20
151.533333
 40
3.500000
  1
Inom = 125 A
 50
0.000000
 51
0.000000
 72
0
 73
0
  0
TEXT
  8
0
 62
7
  6
CONTINUOUS
 10
128.600000
 20
148.033333
 40
3.500000
  1
Kortsluitvastheid: 6kA volgens IEC60947-02
 50
0.000000
 51
0.000000
 72
0
 73
0
  0
TEXT
  8
0
 62
7
  6
CONTINUOUS
 10
128.600000
 20
144.533333
 40
3.500000
  1
Afmetingen:
 50
0.000000
 51
0.000000
 72
0
 73
0
  0
TEXT
  8
0
 62
7
  6
CONTINUOUS
 10
128.900000
 20
126.700000
 40
3.000000
  1
H: 950 mm 
 50
0.000000
 51
0.000000
 72
0
 73
0
  0
TEXT
  8
0
 62
7
  6
CONTINUOUS
 10
128.900000
 20
123.700000
 40
3.000000
  1
B: 550 mm 
 50
0.000000
 51
0.000000
 72
0
 73
0
  0
TEXT
  8
0
 62
7
  6
CONTINUOUS
 10
128.900000
 20
120.700000
 40
3.000000
  1
D: 225 mm
 50
0.000000
 51
0.000000
 72
0
 73
0
  0
TEXT
  8
2
 62
7
  6
CONTINUOUS
 10
48.200000
 20
150.600000
 40
3.000000
  1
KLEMMEN
 50
0.000000
 51
0.000000
 72
0
 73
0
  0
TEXT
  8
2
 62
7
  6
CONTINUOUS
 10
37.300000
 20
70.700000
 40
3.000000
  1
verdeel
 50
0.000000
 51
0.000000
 72
0
 73
0
  0
ENDSEC
  0
EOF
